M48
;FILE_FORMAT=2:4
INCH,LZ
FMAT,2
ICI,OFF
;TYPE=PLATED
T1C.00787
T2C.0315
T3C.03543
T4C.03937
T5C.04213
T6C.04331
;TYPE=NON_PLATED
T7C.12008
T8C.12598
%
M72
G90
G93X0Y0
T1C.00787F0S0
X02815Y043661
X02815Y043268
X02815Y042874
X02815Y04248
X02815Y042087
X028583Y042087
X029016Y042087
X02937Y042087
X029665Y041929
X029665Y041535
X030059Y041535
X030157Y042087
X030453Y041535
X030846Y041535
X03124Y041535
X031634Y041535
X032028Y041535
X032421Y041535
X032815Y041535
X033209Y041535
X033602Y041535
X033996Y041535
X034094Y042087
X03439Y041535
X034783Y041535
X035177Y041535
X035571Y041535
X035965Y041535
X036063Y042087
X036358Y041535
X036752Y041535
X037146Y041535
X037539Y041535
X037933Y041535
X038031Y042087
X038327Y041535
X03872Y041535
X039114Y041535
X039508Y041535
X039902Y041535
X04Y042087
X040295Y041535
X040689Y041535
X041083Y041535
X041476Y041535
X04187Y041535
X041969Y042087
X042264Y041535
X042657Y041535
X043051Y041929
X043051Y041535
X043051Y043898
X043051Y043504
X043051Y04311
X043051Y042717
X043051Y042323
X043445Y041535
X043839Y041535
X043947Y043435
X043947Y042431
X044232Y041535
X044626Y041535
X044951Y043435
X044951Y042431
X04502Y041535
X045413Y041535
X045807Y041535
X045955Y042431
X045955Y043435
X046201Y041535
X046594Y041535
X046959Y043435
X046959Y042431
X046988Y041535
X047382Y041535
X047776Y041535
X047963Y042431
X047963Y043435
X048169Y041535
X048563Y041535
X048957Y041535
X048967Y043435
X048967Y042431
X04935Y041535
X049744Y041535
X04997Y042431
X04997Y043435
X050138Y041535
X050531Y041535
X050925Y041535
X050974Y043435
X050974Y042431
X051319Y041535
X051713Y041535
X051978Y043435
X051978Y042431
X052106Y041535
X0525Y041535
X052894Y041535
X052982Y043435
X052982Y042431
X053287Y041535
X053681Y041535
X053986Y042431
X053986Y043435
X054075Y041535
X054469Y041535
X054862Y041535
X05499Y042431
X05499Y043435
X055256Y041535
X05565Y041535
X055994Y042431
X055994Y043435
X056043Y041535
X056437Y041535
X056831Y041535
X056998Y042431
X057224Y041535
X057244Y043425
X057461Y043701
X057618Y041535
X057717Y043767
X057776Y041831
X057776Y042421
X057776Y042126
X058012Y041535
X058179Y042864
X058189Y043425
X058406Y041535
X058799Y041535
X058839Y043327
X059193Y041535
X059488Y043327
X059587Y041535
X059872Y043986
X05998Y041535
X060138Y041831
X060138Y04252
X060138Y042224
X060315Y043031
X060374Y041535
X06064Y044006
X060679Y043219
X060768Y041535
X060846Y043829
X061014Y042431
X061161Y041535
X061555Y041535
X061949Y041535
X062343Y041535
X062736Y041535
X06313Y041535
X063484Y044016
X063524Y041535
X063602Y043386
X063917Y041535
X063996Y043376
X064311Y041535
X064587Y04247
X064705Y041535
X064734Y042963
X064843Y04374
X064951Y043179
X064951Y042963
X065098Y041535
X065108Y042047
X065217Y043484
X065217Y042411
X065433Y042785
X065551Y04247
X065561Y042047
X065689Y043386
X066033Y042047
X066043Y043071
X066201Y043583
X066201Y044016
X066339Y042894
X066339Y043287
X066339Y043681
X066339Y0425
X066339Y04565
X066339Y046437
X066339Y046043
X066201Y045827
X066201Y044469
X066201Y044941
X066201Y045394
X066033Y046447
X065679Y046024
X065226Y044055
X065177Y045394
X064951Y046378
X064951Y046161
X064941Y044902
X064921Y045551
X064734Y046378
X064685Y045551
X064508Y044941
X064508Y044469
X064469Y045837
X064006Y046014
X063612Y046024
X063484Y044469
X063484Y045394
X063484Y044941
X063307Y046368
X063022Y045443
X061093Y044646
X061063Y044213
X061014Y045443
X061004Y046358
X060571Y045325
X060295Y04565
X05998Y04565
X05998Y046043
X059665Y04565
X059665Y046043
X05935Y046043
X05935Y046516
X059035Y04502
X059035Y046043
X058878Y046516
X05872Y04502
X05872Y046043
X058406Y044862
X058406Y046516
X058406Y046043
X058248Y044705
X058091Y046043
X057933Y046516
X057776Y046043
X057461Y046043
X057461Y046516
X057146Y04565
X056998Y046447
X056831Y04565
X056516Y04565
X056486Y044783
X056161Y04437
X055955Y044439
X055492Y045
X055364Y046191
X05499Y044439
X054823Y0456
X054547Y044833
X054488Y045856
X05439Y045394
X054321Y046289
X053937Y044409
X053474Y045846
X053386Y045089
X052982Y046447
X052982Y045443
X052982Y044439
X052067Y045453
X051978Y044439
X05123Y045856
X05123Y045344
X05123Y045089
X05123Y0456
X050994Y044833
X050974Y044439
X050965Y046122
X04997Y045443
X04997Y044439
X049941Y046398
X049587Y045994
X049331Y046467
X048967Y046447
X048967Y045443
X048967Y044439
X047963Y046447
X047963Y044439
X047963Y045443
X046959Y046447
X046959Y045443
X046959Y044439
X045955Y046447
X045955Y044439
X045955Y045443
X044951Y046447
X044951Y044439
X044951Y045443
X043947Y045443
X043947Y046447
X043947Y044439
X043051Y045079
X043051Y045472
X043051Y044685
X043051Y044291
X043051Y045866
X041969Y046024
X041969Y044055
X04Y044055
X04Y046024
X038031Y046024
X038031Y044055
X036063Y046024
X036063Y044055
X034094Y044055
X034094Y046024
X032126Y046024
X030157Y046024
X030157Y044055
X02815Y046024
X02815Y044449
X02815Y04563
X02815Y044055
X02815Y046417
X02815Y045236
X02815Y044843
X02815Y047205
X02815Y046811
X02815Y047598
X02815Y04878
X02815Y048386
X02815Y047992
X030157Y047992
X032126Y047992
X034094Y047992
X036063Y047992
X038031Y047992
X04Y047992
X041969Y047992
X043051Y047835
X043051Y047441
X043051Y047047
X043051Y046654
X043051Y049016
X043051Y048622
X043051Y048228
X043947Y047451
X043947Y048455
X044951Y047451
X044951Y048455
X045955Y047451
X045955Y048455
X046959Y047451
X046959Y048455
X047047Y048671
X047777Y047885
X047969Y047988
X048168Y047889
X048366Y047539
X048632Y047963
X048957Y047657
X049331Y047116
X049331Y047785
X04935Y048898
X049549Y047815
X049744Y047943
X049943Y047802
X04998Y047343
X050138Y047943
X050335Y048012
X050886Y046742
X050925Y046959
X050974Y048278
X051043Y048711
X05123Y047982
X05123Y047726
X05123Y04747
X05123Y047215
X052982Y047451
X052982Y048494
X053543Y04747
X053543Y047224
X054016Y046742
X054291Y04815
X054311Y048494
X054409Y04752
X054547Y047933
X054547Y046959
X05499Y048455
X055118Y047175
X055118Y047402
X055197Y046565
X055276Y047018
X055433Y04748
X055472Y047805
X055492Y04812
X055768Y047963
X055787Y048543
X055866Y047648
X056831Y048602
X05685Y048228
X056998Y047707
X056998Y047077
X056998Y048455
X057195Y046781
X057195Y048671
X057195Y048199
X057264Y047264
X057431Y04749
X057431Y047018
X057431Y047963
X057431Y048435
X057697Y046752
X057933Y047254
X057933Y047726
X057933Y048671
X057933Y048199
X058169Y046752
X058406Y047726
X058406Y047254
X058406Y048671
X058406Y048199
X058642Y046752
X058878Y047254
X058878Y048671
X058878Y048199
X058878Y047726
X059114Y046752
X05938Y047963
X05938Y047018
X05938Y048435
X05938Y04749
X059616Y047254
X059616Y046781
X059616Y047726
X059616Y048671
X059616Y048199
X06002Y047805
X06002Y046555
X06002Y04686
X06002Y047175
X06002Y04749
X06002Y04875
X06002Y048435
X06002Y04812
X060965Y04686
X060965Y04749
X060965Y04875
X060965Y048435
X060965Y04812
X060965Y047805
X062018Y047451
X062018Y048455
X062274Y046732
X062362Y046959
X062618Y047441
X062677Y046959
X062697Y048445
X062992Y046634
X062992Y047717
X063022Y047451
X06314Y048406
X063307Y047982
X063691Y048081
X063701Y046634
X063701Y047717
X064026Y047441
X064094Y047982
X064242Y048406
X064409Y047717
X064409Y046693
X064596Y047362
X064646Y046959
X06503Y047451
X06503Y048455
X065039Y046959
X065423Y046535
X065531Y046909
X065778Y047156
X066033Y047451
X066033Y048455
X066339Y046831
X066339Y047618
X066339Y04876
X066339Y048406
X066339Y048012
X066339Y047224
X066339Y049941
X066339Y049547
X066339Y049154
X066339Y051476
X066339Y051083
X066339Y050728
X066339Y050335
X066033Y049459
X066033Y051467
X066033Y050463
X06503Y051467
X064242Y049587
X064026Y051467
X064026Y050463
X063691Y049911
X06314Y049587
X063022Y049459
X063022Y051467
X063022Y050463
X062018Y049459
X062018Y050463
X062018Y051467
X061014Y049459
X061014Y051467
X060965Y049065
X060955Y050463
X060709Y050876
X060295Y050876
X06003Y05001
X06002Y049065
X06Y051467
X05998Y050876
X05998Y050325
X059665Y050876
X059626Y050207
X059616Y049144
X059508Y049528
X05935Y050876
X05935Y049931
X059114Y049173
X059035Y050876
X059035Y049931
X059006Y051467
X058878Y049528
X05872Y049941
X058642Y049173
X058406Y049931
X058248Y049528
X058169Y049173
X058091Y049931
X058091Y050876
X058002Y051467
X057776Y050876
X057776Y049921
X057697Y049173
X057618Y049528
X057461Y049921
X057461Y050876
X057195Y049144
X057126Y050059
X056998Y051467
X056831Y050876
X056791Y04938
X056791Y05
X056791Y049035
X056791Y049705
X056516Y050876
X056516Y050325
X055856Y050325
X055846Y049065
X055512Y049754
X055512Y049951
X055Y050354
X05499Y051467
X054301Y05001
X054301Y049695
X053986Y051467
X05378Y050472
X053681Y049508
X053671Y049695
X053652Y05001
X052982Y050463
X052982Y051467
X052982Y049459
X052205Y050955
X052126Y04997
X051978Y050463
X051978Y049459
X051978Y051467
X051949Y049154
X051014Y049577
X050974Y051467
X050974Y050463
X04997Y049459
X04997Y051467
X048967Y049459
X048967Y050463
X047963Y050463
X047963Y049459
X047963Y051467
X047638Y049587
X04749Y050167
X04749Y051348
X04749Y049774
X04749Y04938
X04749Y050364
X046566Y050167
X046388Y04997
X046152Y051191
X045945Y049882
X04564Y049951
X045098Y050433
X045079Y051457
X044902Y049803
X044488Y050984
X044488Y050748
X043051Y051378
X043051Y049409
X043051Y050197
X043051Y049803
X041969Y049961
X04Y049961
X038031Y049961
X036063Y049961
X034094Y049961
X032126Y049961
X030157Y049961
X02815Y051142
X02815Y049567
X02815Y050748
X02815Y050354
X02815Y049173
X02815Y049961
X02815Y051535
X02815Y051929
X02815Y053898
X02815Y053504
X02815Y05311
X02815Y052717
X02815Y052323
X030157Y051929
X030157Y053898
X032126Y053898
X034094Y051929
X034094Y053898
X036063Y051929
X036063Y053898
X038022Y053888
X038031Y051929
X03999Y051919
X04Y053898
X041969Y051929
X041969Y053898
X043051Y051772
X043051Y05374
X043051Y053346
X043051Y052953
X043051Y052559
X043051Y052165
X043947Y05247
X045069Y052894
X045089Y053504
X045276Y052589
X045374Y051693
X045955Y051909
X04626Y051821
X046959Y05247
X046959Y053533
X047333Y052864
X04749Y052136
X047933Y053809
X048976Y052421
X048996Y051594
X049537Y053346
X049961Y053701
X04997Y052421
X050531Y053533
X050974Y05247
X050974Y053514
X051014Y051939
X05123Y052864
X051978Y05247
X051978Y053474
X052982Y05247
X052982Y053474
X053986Y05247
X053986Y053474
X05499Y05247
X05499Y053474
X05565Y053327
X056929Y053976
X056998Y053474
X057156Y052008
X058858Y052391
X059035Y053445
X06Y05247
X06Y053474
X061014Y053474
X061014Y05247
X062018Y05247
X062018Y053474
X063022Y053474
X063022Y05247
X064026Y05247
X064026Y053474
X06503Y05247
X06503Y053474
X066033Y053474
X066033Y05247
X066339Y053406
X066339Y053051
X066339Y052657
X066339Y052264
X066339Y05187
X066339Y053799
X066339Y055728
X066339Y055374
X066339Y05498
X066339Y054587
X066339Y054193
X066339Y056516
X066339Y056122
X066033Y055482
X066033Y054478
X066033Y056486
X06503Y054478
X06503Y055482
X06503Y056486
X064026Y055482
X064026Y054478
X064026Y056486
X063022Y055482
X063022Y054478
X063022Y056486
X062018Y054478
X062018Y055482
X062018Y056486
X061014Y054478
X061014Y055482
X061014Y056486
X06001Y056486
X06Y054478
X06Y055482
X059035Y054469
X059006Y055482
X059006Y056486
X058002Y055482
X056811Y054449
X055896Y05562
X055896Y05623
X055679Y055925
X055482Y05562
X055482Y05623
X055256Y054508
X05499Y056486
X054596Y055315
X053986Y056486
X053976Y054478
X053041Y055167
X053041Y055699
X052982Y056486
X052835Y055433
X052628Y055167
X052628Y055699
X051978Y056486
X050974Y056486
X050974Y054478
X050571Y055305
X04997Y056486
X04997Y054478
X04997Y055482
X048967Y055482
X047963Y055482
X047077Y054173
X046959Y056486
X046959Y055482
X045098Y054498
X045089Y056516
X045089Y055492
X043947Y056486
X043947Y055482
X043051Y056496
X043051Y056102
X043051Y054528
X043051Y055709
X043051Y054921
X043051Y054134
X043051Y055315
X041969Y055866
X04Y055866
X038031Y055866
X036063Y055866
X034094Y055866
X032126Y055866
X030157Y055866
X028524Y056339
X02815Y054685
X02815Y055472
X02815Y05626
X02815Y055079
X02815Y054291
X02815Y055866
X028524Y05748
X028524Y058661
X029016Y057776
X029016Y058366
X029429Y056693
X029941Y058583
X029961Y057106
X029961Y057559
X030049Y058012
X03061Y058209
X031112Y058209
X031496Y05811
X031496Y058307
X032126Y057785
X034094Y057835
X036063Y057835
X038031Y057835
X04Y057835
X041969Y057835
X043051Y05689
X043051Y057677
X043051Y057283
X043051Y058858
X043051Y058465
X043209Y059016
X043602Y059016
X043947Y05749
X043947Y058494
X043996Y059016
X04439Y059016
X044783Y059016
X045039Y058504
X045079Y05751
X045177Y059016
X045571Y059016
X045955Y058494
X045965Y059016
X046358Y059016
X046752Y059016
X046959Y058494
X046959Y05749
X047146Y059016
X047539Y059016
X047933Y059016
X047963Y05749
X047963Y058494
X048327Y059016
X04872Y059016
X048957Y056575
X048967Y05749
X048967Y058494
X049114Y059016
X049508Y059016
X049902Y059016
X04997Y05749
X04997Y058494
X050295Y059016
X050974Y058494
X050974Y05749
X051083Y059016
X051476Y059016
X05187Y059016
X051978Y05749
X051978Y058494
X052264Y059016
X052657Y059016
X052982Y05749
X052982Y058494
X053051Y059016
X053445Y059016
X053839Y059016
X053986Y05749
X053986Y058494
X054232Y059016
X054626Y059016
X05499Y05749
X05499Y058494
X05502Y059016
X055413Y059016
X055689Y056703
X055807Y059016
X055994Y05749
X055994Y058494
X056201Y059016
X056594Y059016
X056988Y059016
X057185Y058494
X057382Y059016
X057776Y059016
X058002Y05749
X058002Y058494
X058337Y058278
X058346Y058898
X059144Y058287
X059272Y05748
X059665Y0575
X059813Y058287
X05997Y05749
X06001Y058494
X060315Y05749
X060925Y059016
X061014Y05749
X061014Y058494
X061713Y059016
X062018Y05749
X062018Y058494
X062106Y059016
X0625Y059016
X062894Y059016
X063022Y05749
X063022Y058494
X063287Y059016
X063681Y059016
X064026Y058494
X064026Y05749
X064075Y059016
X064469Y059016
X064862Y059016
X06503Y058494
X06503Y05749
X065256Y059016
X06565Y059016
X066033Y05749
X066033Y058494
X066043Y059016
X066339Y057697
X066339Y058839
X066339Y058445
X066339Y058051
X066339Y056909
X066339Y057303
X073031Y06124
X073031Y060846
X073031Y060453
X072776Y060197
X072382Y060197
X071988Y060197
X071594Y060197
X071201Y060197
X070807Y060197
X070413Y060197
X07002Y060197
X069626Y060197
X069232Y060197
X068839Y060197
X068445Y060197
X068051Y060197
X067657Y060197
X067264Y060197
X06687Y060197
X066516Y060197
X066339Y06002
X066339Y059626
X066339Y059232
X063051Y060728
X062579Y060728
X062047Y059724
X061575Y059724
X059587Y059134
X059016Y060335
X058524Y059114
X041969Y059803
X04Y059803
X038031Y059803
X036063Y059803
X034094Y059803
X032126Y059803
X030157Y059803
X029961Y059035
X029429Y059449
X028524Y059803
X02815Y060591
X02815Y060197
X02815Y059803
X02815Y061378
X02815Y060984
X02815Y061772
X02815Y062165
X02815Y062559
X02815Y062953
X02815Y063346
X02815Y06374
X030157Y061772
X030157Y06374
X034094Y061772
X034094Y06374
X036063Y061772
X036063Y06374
X038031Y061772
X038031Y06374
X04Y061772
X04Y06374
X041969Y061772
X041969Y06374
X043937Y061772
X043937Y06374
X045906Y061772
X045906Y06374
X047874Y061772
X047874Y06374
X049843Y061772
X049843Y06374
X051811Y061772
X051811Y06374
X05378Y061772
X05378Y06374
X055748Y061772
X055748Y06374
X057717Y06374
X059685Y061772
X059685Y06374
X060846Y061772
X061654Y061772
X061654Y06374
X062087Y061752
X06252Y061752
X063583Y061732
X063622Y06374
X064055Y061732
X064587Y062736
X065059Y062736
X065591Y06374
X065591Y061772
X066063Y06374
X067559Y061772
X067559Y06374
X069528Y061772
X069528Y06374
X071496Y061772
X071496Y06374
X073031Y061634
X073031Y063602
X073031Y063209
X073031Y062815
X073031Y062421
X073031Y062028
X073031Y063996
X073031Y06439
X072598Y064043
X071969Y064469
X071496Y065709
X069528Y065709
X068248Y064472
X067618Y064043
X067559Y065709
X066988Y064472
X066063Y065709
X065197Y066339
X064528Y064833
X063622Y065709
X061654Y065709
X059685Y065709
X057717Y065709
X055748Y065709
X05378Y065709
X051811Y065709
X049843Y065709
X047874Y065709
X045906Y065709
X043937Y065709
X041969Y065709
X04Y065709
X038031Y065709
X036063Y065709
X034094Y065709
X032126Y065709
X02815Y064528
X02815Y064134
X02815Y065315
X02815Y064921
X02815Y066102
X02815Y066496
X02815Y065709
X02815Y067283
X02815Y067677
X02815Y06689
X02815Y068071
X02815Y068465
X02815Y068858
X030157Y067677
X032126Y067677
X034094Y067677
X036063Y067677
X038031Y067677
X04Y067677
X041969Y067677
X043937Y067677
X045906Y067677
X047874Y067677
X049843Y067677
X051811Y067677
X05378Y067677
X055748Y067677
X057717Y067677
X059685Y067677
X061654Y067677
X065472Y067844
X065669Y06748
X065876Y068839
X066053Y068346
X066063Y067087
X066102Y066841
X06687Y068341
X067559Y067677
X071496Y067677
X073031Y071476
X072598Y071476
X071969Y071047
X068248Y071047
X067618Y071476
X066988Y071047
X065591Y069646
X065531Y069075
X063622Y069646
X059685Y069646
X055748Y069646
X05378Y069646
X051811Y069646
X049843Y069646
X047874Y069646
X045906Y069646
X043937Y069646
X041969Y069646
X04Y069646
X038031Y069646
X036063Y069646
X034094Y069646
X032126Y069646
X030157Y069646
X02815Y069646
X02815Y069252
X02815Y07122
X02815Y070827
X02815Y070039
X02815Y070433
X02815Y071614
X02815Y072008
X02815Y072402
X028386Y072638
X02878Y072638
X029173Y072638
X029567Y072638
X029961Y072638
X030157Y071614
X030354Y072638
X030748Y072638
X031142Y072638
X031535Y072638
X031929Y072638
X032126Y071614
X032323Y072638
X032717Y072638
X03311Y072638
X033504Y072638
X033898Y072638
X034094Y071614
X034291Y072638
X034685Y072638
X035079Y072638
X035472Y072638
X035866Y072638
X036063Y071614
X03626Y072638
X036654Y072638
X037047Y072638
X037441Y072638
X037835Y072638
X038031Y071614
X038228Y072638
X038622Y072638
X039016Y072638
X039409Y072638
X039803Y072638
X04Y071614
X040197Y072638
X040591Y072638
X040984Y072638
X041378Y072638
X041772Y072638
X041969Y071614
X042165Y072638
X042559Y072638
X042953Y072638
X043346Y072638
X04374Y072638
X043937Y071614
X044134Y072638
X044528Y072638
X044921Y072638
X045315Y072638
X045709Y072638
X045906Y071614
X046102Y072638
X046496Y072638
X04689Y072638
X047283Y072638
X047677Y072638
X047874Y071614
X048071Y072638
X048465Y072638
X048858Y072638
X049252Y072638
X049646Y072638
X049843Y071614
X050039Y072638
X050433Y072638
X050827Y072638
X05122Y072638
X051614Y072638
X051811Y071614
X052008Y072638
X052402Y072638
X052795Y072638
X053189Y072638
X053583Y072638
X05378Y071614
X053976Y072638
X05437Y072638
X054764Y072638
X055157Y072638
X055551Y072638
X055748Y071614
X055945Y072638
X056339Y072638
X056732Y072638
X057126Y072638
X05752Y072638
X057717Y071614
X057913Y072638
X058307Y072638
X058701Y072638
X059094Y072638
X059488Y072638
X059685Y071614
X059882Y072638
X060276Y072638
X060669Y072638
X061063Y072638
X061457Y072638
X06185Y072638
X062244Y072638
X062638Y072638
X063031Y072638
X063425Y072638
X063622Y071614
X063819Y072638
X064213Y072638
X064606Y072638
X065Y072638
X065394Y072638
X065591Y071614
X065787Y072638
X066181Y072638
X066575Y072638
X066969Y072638
X067362Y072638
X067756Y072638
X06815Y072638
X068543Y072638
X068937Y072638
X069331Y072638
X069528Y071614
X069724Y072638
X070118Y072638
X070512Y072638
X070906Y072638
X071299Y072638
X071496Y071614
X071693Y072638
X072087Y072638
X07248Y072638
X072874Y072638
X073031Y071693
X073031Y07248
X073031Y072087
T2C.0315F197S55
X05624Y051929
X059114Y051929
T3C.03543F197S55
X044685Y049055
X045472Y049055
X04626Y049055
T4C.03937F197S55
X032303Y060772
X058573Y054348
X058573Y053348
X032303Y061772
X032303Y062772
T5C.04213F139S55
X031526Y066378
X031526Y065197
T6C.04331F139S55
X029181Y049197
X029181Y051197
X031181Y049197
X031181Y051197
T7C.12008F035S794
X029825Y065787
T8C.12598F035S794
X031496Y043307
X062205Y043307
X072047Y062992
X062205Y070866
X031496Y070866
M30
