*
*
G04 PADS VX.2.10 Build Number: 19222662 generated Gerber (RS-274-X) file*
G04 PC Version=2.1*
*
%IN "HWPT011X6.pcb"*%
*
%MOMM*%
*
%FSLAX34Y34*%
*
*
*
*
G04 PC Standard Apertures*
*
*
G04 Thermal Relief Aperture macro.*
%AMTER*
1,1,$1,0,0*
1,0,$1-$2,0,0*
21,0,$3,$4,0,0,45*
21,0,$3,$4,0,0,135*
%
*
*
G04 Annular Aperture macro.*
%AMANN*
1,1,$1,0,0*
1,0,$2,0,0*
%
*
*
G04 Odd Aperture macro.*
%AMODD*
1,1,$1,0,0*
1,0,$1-0.005,0,0*
%
*
*
G04 PC Custom Aperture Macros*
*
*
*
*
*
*
G04 PC Aperture Table*
*
%ADD022C,0.3*%
%ADD031C,0.4*%
%ADD036C,0.0254*%
%ADD040R,1.5X1.5*%
%ADD041C,1.5*%
%ADD054R,1.6X1.6*%
%ADD057C,1.6*%
%ADD061C,1.7*%
%ADD085C,0.1*%
%ADD105R,1.7X1.7*%
%ADD106C,3.3*%
%ADD112C,1.9*%
%ADD134C,0.29997*%
%ADD135C,0.50013*%
%ADD136C,0.29997*%
%ADD137C,0.1999*%
%ADD138C,0.50013*%
%ADD337C,0.10008*%
%ADD421C,1.705*%
*
*
*
*
G04 PC Circuitry*
G04 Layer Name HWPT011X6.pcb - circuitry*
%LPD*%
*
*
G04 PC Custom Flashes*
G04 Layer Name HWPT011X6.pcb - flashes*
%LPD*%
*
*
G04 PC Circuitry*
G04 Layer Name HWPT011X6.pcb - circuitry*
%LPD*%
*
G54D22*
G01X914499Y1653000D03*
X954499Y1643000D03*
X944499D03*
X934499D03*
X924499D03*
X914499D03*
X1014499D03*
X1004499D03*
X994499D03*
X984499D03*
X974499D03*
X964499D03*
X1064499D03*
X1054499D03*
X1044499D03*
X1034499D03*
X1024499D03*
X1114499D03*
X1104499D03*
X1094499D03*
X1084499D03*
X1074499D03*
X1164499D03*
X1154499D03*
X1144499D03*
X1134499D03*
X1124499D03*
X1214499D03*
X1204499D03*
X1194499D03*
X1184499D03*
X1174499D03*
X1264499D03*
X1254499Y1653000D03*
Y1643000D03*
X1244499D03*
X1234499D03*
X1224499D03*
X1314499D03*
X1304499D03*
X1294499D03*
X1284499D03*
X1274499D03*
X1364499D03*
X1354499D03*
X1344499D03*
X1334499D03*
X1324499D03*
X1414499D03*
X1404499D03*
X1394499D03*
X1384499D03*
X1374499D03*
X1464499D03*
X1454499D03*
X1444499D03*
X1434499D03*
X1424499D03*
X1514499D03*
X1504499D03*
X1494499D03*
X1484499D03*
X1474499D03*
X1564499D03*
X1554499D03*
X1544499D03*
X1534499D03*
X1524499D03*
X1624499D03*
X1614499D03*
X1604499D03*
X1594499D03*
X1584499D03*
X1574499D03*
X1628499Y1650500D03*
X1674499Y1643000D03*
X1664499D03*
X1654499D03*
X1644499D03*
X1634499D03*
X1688499Y1650500D03*
X1724499Y1643000D03*
X1714499D03*
X1704499D03*
X1694499D03*
X1684499D03*
X1774499D03*
X1764499D03*
X1754499D03*
X1744499D03*
X1734499D03*
X1814499D03*
X1804499D03*
X1794499D03*
X1784499D03*
X875999Y1697000D03*
Y1687000D03*
Y1677000D03*
Y1667000D03*
Y1657000D03*
X886999D03*
X897999D03*
X906999D03*
X926999D03*
X1026999D03*
X1076999D03*
X1126999D03*
X1176999D03*
X1226999D03*
X1254499Y1703000D03*
Y1693000D03*
Y1683000D03*
Y1673000D03*
Y1663000D03*
X1302749Y1691250D03*
X1277249D03*
X1302749Y1665750D03*
X1277249D03*
X1328249D03*
X1353749Y1691250D03*
Y1665750D03*
X1328249Y1691250D03*
X1404749D03*
Y1665750D03*
X1379249D03*
Y1691250D03*
X1430249Y1665750D03*
X1455749Y1691250D03*
Y1665750D03*
X1430249Y1691250D03*
X1506749D03*
Y1665750D03*
X1481249Y1691250D03*
Y1665750D03*
X1557749D03*
Y1691250D03*
X1532249Y1665750D03*
Y1691250D03*
X1608749Y1665750D03*
X1583249D03*
Y1691250D03*
X1620499Y1698000D03*
X1614999Y1691000D03*
X1628499Y1665500D03*
X1626999Y1699675D03*
X1628499Y1658000D03*
X1638749Y1676750D03*
X1671999Y1688500D03*
X1655499D03*
X1638999Y1691000D03*
X1688499Y1668000D03*
Y1660500D03*
X1706499Y1701250D03*
X1681749Y1705250D03*
X1692999Y1681000D03*
X1710749Y1665750D03*
X1702249Y1685750D03*
X1776499Y1690000D03*
X1807999Y1699000D03*
X1825999Y1666750D03*
X1817499Y1665250D03*
X1786499Y1689750D03*
X1801499Y1666750D03*
X1822999Y1674750D03*
X1826249Y1656000D03*
X1814749D03*
X1810749Y1684750D03*
Y1679250D03*
X1805249D03*
X1817499Y1692500D03*
X1838499Y1682000D03*
X1842499Y1695000D03*
X1845999Y1667500D03*
Y1677500D03*
Y1687500D03*
Y1697500D03*
X1829499Y1690000D03*
X1838249Y1656000D03*
X875999Y1747000D03*
Y1737000D03*
Y1727000D03*
Y1717000D03*
Y1707000D03*
X926999D03*
X1026999D03*
X1076999D03*
X1126999D03*
X1176999D03*
X1226999D03*
X1254499Y1753000D03*
Y1743000D03*
Y1733000D03*
Y1723000D03*
Y1713000D03*
X1302749Y1742250D03*
Y1716750D03*
X1277249D03*
Y1742250D03*
X1328249Y1716750D03*
X1353749D03*
Y1742250D03*
X1328249D03*
X1379249D03*
Y1716750D03*
X1404749Y1742250D03*
Y1716750D03*
X1455749D03*
X1430249D03*
Y1742250D03*
X1456249Y1726750D03*
X1462249Y1752750D03*
Y1746250D03*
Y1739750D03*
Y1733250D03*
X1516999D03*
X1519249Y1752500D03*
X1506749Y1742250D03*
X1481249Y1716750D03*
X1483499Y1742500D03*
X1506749Y1716750D03*
X1546499Y1726750D03*
X1542499Y1741000D03*
X1557749Y1716750D03*
X1570499Y1731000D03*
X1530999Y1716000D03*
X1544999Y1752750D03*
X1553499Y1746250D03*
X1595749Y1725500D03*
X1587499Y1715000D03*
X1604499Y1747500D03*
X1582249Y1716750D03*
X1612499Y1747500D03*
X1596499D03*
X1652499Y1731500D03*
X1640499Y1723500D03*
X1644499Y1727500D03*
X1660499Y1731500D03*
X1711999Y1711000D03*
X1701249Y1705750D03*
X1712749Y1722000D03*
X1684499Y1747500D03*
X1676499D03*
X1710749Y1742250D03*
X1692499Y1747500D03*
X1699499Y1739250D03*
X1761749Y1742250D03*
X1773499Y1717500D03*
Y1706000D03*
Y1741000D03*
Y1729500D03*
X1810499Y1728500D03*
X1798499Y1752250D03*
X1803999Y1745000D03*
X1809999D03*
X1816499Y1741000D03*
X1799499Y1729500D03*
Y1717500D03*
X1817749Y1707000D03*
X1845999Y1747500D03*
X1842499Y1752000D03*
Y1706000D03*
Y1717500D03*
Y1729500D03*
Y1741000D03*
X875999Y1797000D03*
Y1787000D03*
Y1777000D03*
Y1767000D03*
Y1757000D03*
X926999D03*
X976999D03*
X1026999D03*
X1076999D03*
X1126999D03*
X1176999D03*
X1254499Y1803000D03*
Y1793000D03*
Y1783000D03*
Y1773000D03*
X1226999Y1757000D03*
X1302749Y1767750D03*
Y1793250D03*
X1277249Y1767750D03*
Y1793250D03*
X1328249D03*
X1353749Y1767750D03*
X1328249D03*
X1353749Y1793250D03*
X1413999Y1801750D03*
Y1784750D03*
X1420499Y1756250D03*
X1419549Y1802500D03*
X1413999Y1768250D03*
X1379249Y1767750D03*
X1404749D03*
X1404499Y1798500D03*
X1389499Y1795500D03*
X1396249Y1806250D03*
X1384474Y1804375D03*
X1379424Y1806900D03*
X1374524Y1804275D03*
X1455499Y1759500D03*
X1434499Y1805750D03*
X1462249Y1806750D03*
X1429549Y1802175D03*
X1462249Y1800250D03*
X1424499Y1805750D03*
X1462249Y1793750D03*
Y1787250D03*
X1430499Y1790500D03*
X1453499Y1775250D03*
X1454499Y1780750D03*
X1429499Y1766500D03*
X1520999Y1787500D03*
Y1793750D03*
X1506749Y1767750D03*
Y1793250D03*
X1546499Y1805500D03*
X1540749Y1763750D03*
X1546499Y1780750D03*
X1568999Y1794000D03*
X1560999Y1786250D03*
X1569999Y1802250D03*
X1560999Y1792000D03*
X1542999Y1795000D03*
X1564999Y1782250D03*
X1562999Y1770750D03*
X1567249Y1761250D03*
X1532999Y1775250D03*
X1579999Y1798250D03*
X1620499Y1757500D03*
X1608749Y1767750D03*
X1613749Y1776250D03*
X1620499Y1769500D03*
X1608749Y1783750D03*
X1615499Y1788500D03*
X1608749Y1799750D03*
X1619749Y1806250D03*
Y1794250D03*
Y1782250D03*
X1577499Y1806250D03*
X1675249Y1776250D03*
X1644499Y1769500D03*
X1652499Y1757500D03*
X1632499Y1769500D03*
X1656499D03*
X1660499Y1757500D03*
X1675249Y1788250D03*
X1628499Y1757500D03*
X1668499D03*
X1636499D03*
X1675249Y1800250D03*
X1644499Y1757500D03*
X1668499Y1769500D03*
X1669249Y1806250D03*
X1632499Y1800250D03*
X1644499D03*
X1632499Y1788250D03*
X1626499Y1775500D03*
X1644499Y1788250D03*
X1638499Y1775500D03*
X1656499Y1800250D03*
X1669249Y1794250D03*
X1650499Y1775500D03*
X1656499Y1788250D03*
X1662499Y1775500D03*
X1669249Y1782250D03*
X1685499Y1770500D03*
X1684499Y1757500D03*
X1676499D03*
X1710499Y1765500D03*
X1709499Y1778250D03*
Y1794250D03*
Y1802250D03*
X1685499Y1778250D03*
Y1786250D03*
Y1794250D03*
Y1802250D03*
X1736249Y1793250D03*
X1776749Y1757000D03*
X1761749Y1793250D03*
X1742749Y1775000D03*
X1752999Y1780750D03*
X1751499Y1793000D03*
X1744999Y1780750D03*
X1760999Y1800000D03*
X1768999Y1806750D03*
X1760999Y1772500D03*
X1768999Y1765750D03*
X1825499Y1779500D03*
X1812999Y1780750D03*
X1812749Y1793250D03*
X1822749Y1770000D03*
X1786749Y1756750D03*
X1787249Y1793000D03*
X1802999Y1780750D03*
X1801749Y1791000D03*
X1778999Y1800000D03*
X1796999D03*
X1788999Y1806750D03*
X1778999Y1772500D03*
X1796999Y1774000D03*
X1805249Y1766000D03*
X1810749D03*
Y1760500D03*
X1831749Y1785750D03*
X1838249Y1793250D03*
X1845999Y1797500D03*
Y1787500D03*
Y1777500D03*
Y1767500D03*
Y1757500D03*
X1838249Y1767750D03*
X1829249Y1757000D03*
X875999Y1857000D03*
Y1847000D03*
Y1837000D03*
Y1827000D03*
Y1817000D03*
Y1807000D03*
X926999D03*
Y1857000D03*
X976999D03*
Y1807000D03*
X1026999D03*
Y1857000D03*
X1076999Y1807000D03*
Y1857000D03*
X1126999Y1807000D03*
Y1857000D03*
X1176999D03*
Y1807000D03*
X1226999Y1857000D03*
Y1807000D03*
X1254499Y1853000D03*
Y1843000D03*
Y1833000D03*
Y1823000D03*
Y1813000D03*
X1277249Y1818750D03*
X1302749D03*
X1301499Y1853000D03*
X1339249Y1857250D03*
X1353749Y1818750D03*
X1328249D03*
X1367249Y1842250D03*
Y1852250D03*
X1327999Y1855000D03*
X1320249Y1856750D03*
X1355999Y1824250D03*
X1370999Y1847500D03*
X1404749Y1844250D03*
X1379249D03*
X1414499Y1830000D03*
X1455749Y1814250D03*
X1439499Y1807500D03*
X1430249Y1844250D03*
X1457499Y1825250D03*
X1456749Y1847250D03*
X1481249Y1844250D03*
X1506749Y1819750D03*
Y1844250D03*
X1480499Y1836500D03*
X1484999Y1857250D03*
X1570499Y1810250D03*
X1539999Y1811000D03*
X1570999Y1856750D03*
X1540249Y1850250D03*
X1570999Y1851750D03*
X1557749Y1818750D03*
X1524499Y1845500D03*
X1524249Y1850250D03*
X1540499Y1819750D03*
X1603499Y1833500D03*
X1579499Y1834250D03*
X1603499Y1842250D03*
Y1850500D03*
X1613749Y1824250D03*
Y1812250D03*
X1604499Y1822500D03*
X1620499Y1856000D03*
X1608749Y1818750D03*
X1624499Y1846000D03*
X1577999Y1821000D03*
X1604999Y1813000D03*
X1613749Y1836250D03*
X1619749Y1818250D03*
X1675249Y1824250D03*
X1628499Y1856000D03*
X1652499Y1856500D03*
X1668499Y1856250D03*
X1675249Y1812250D03*
X1640499Y1846000D03*
X1672499D03*
X1656499D03*
X1636499Y1856250D03*
X1660499D03*
X1626499Y1837000D03*
X1638499D03*
X1644499Y1824250D03*
X1650499Y1837000D03*
X1656499Y1824250D03*
X1675249Y1836250D03*
X1662499Y1837000D03*
X1632499Y1824250D03*
X1656499Y1812250D03*
X1669249Y1818250D03*
X1632499Y1812250D03*
X1644499D03*
Y1856250D03*
X1710749Y1844250D03*
X1709499Y1834250D03*
Y1826250D03*
Y1818250D03*
Y1810250D03*
X1685499Y1834250D03*
Y1826250D03*
Y1818250D03*
Y1810250D03*
X1736249Y1844250D03*
X1761749D03*
X1753499Y1818500D03*
X1736249Y1818750D03*
X1764749Y1847500D03*
Y1817500D03*
X1812749Y1818750D03*
X1778749Y1855750D03*
X1792749Y1847500D03*
X1778749Y1809250D03*
X1792749Y1817500D03*
X1845999Y1856500D03*
Y1846500D03*
Y1836500D03*
Y1826500D03*
Y1817500D03*
Y1807500D03*
X1838249Y1844250D03*
Y1818750D03*
X875999Y1907000D03*
Y1897000D03*
Y1887000D03*
Y1877000D03*
Y1867000D03*
X926999Y1907000D03*
X1026999D03*
X1076999D03*
X1126999D03*
X1176749Y1906750D03*
X1226999Y1907000D03*
X1254499Y1903000D03*
Y1893000D03*
Y1863000D03*
X1305999Y1895000D03*
X1306499Y1869000D03*
X1313499Y1901000D03*
X1290999Y1877000D03*
Y1883000D03*
X1367249Y1862250D03*
Y1867250D03*
Y1892250D03*
X1333249Y1888250D03*
X1328249Y1906500D03*
X1335999Y1904250D03*
X1343774Y1862250D03*
X1379249Y1895250D03*
Y1869750D03*
X1404749D03*
X1405499Y1898500D03*
X1430249Y1895250D03*
X1455749Y1869750D03*
Y1895250D03*
X1456749Y1907250D03*
X1481249Y1895250D03*
Y1869750D03*
X1506749D03*
Y1895250D03*
X1486999Y1882250D03*
X1523749Y1858250D03*
X1540249D03*
X1532249Y1895250D03*
X1526999Y1870000D03*
X1557999Y1867000D03*
X1557749Y1895250D03*
X1611999Y1859500D03*
X1608749Y1895250D03*
X1603499Y1858000D03*
X1579749Y1866250D03*
X1596499Y1880250D03*
Y1866250D03*
X1604499Y1880250D03*
X1620499D03*
X1668499D03*
X1634249Y1895250D03*
X1659749D03*
X1660499Y1880250D03*
X1628499D03*
X1636499D03*
X1692499D03*
X1684499D03*
X1676499D03*
X1675499Y1863250D03*
X1685749Y1858250D03*
X1684999Y1895250D03*
X1710749D03*
X1702999Y1880250D03*
X1709249Y1869750D03*
X1684499Y1866250D03*
X1736249Y1869750D03*
Y1895250D03*
X1761749D03*
Y1869750D03*
X1812749Y1895250D03*
X1787249D03*
Y1869750D03*
X1845999Y1905500D03*
Y1895500D03*
Y1885500D03*
Y1876500D03*
Y1866500D03*
X1838249Y1895250D03*
Y1869750D03*
X875999Y1957000D03*
Y1947000D03*
Y1937000D03*
Y1927000D03*
Y1917000D03*
X926999Y1957000D03*
X976999D03*
X1026999D03*
X1076999D03*
X1126749Y1956750D03*
X1176999Y1957000D03*
X1226999D03*
X1254499Y1953000D03*
Y1943000D03*
Y1933000D03*
Y1923000D03*
Y1913000D03*
X1310999Y1923750D03*
X1277249Y1920750D03*
X1305749Y1931500D03*
X1306249Y1947000D03*
X1363249Y1930750D03*
X1353749Y1920750D03*
Y1947750D03*
X1367249Y1912250D03*
X1378499Y1954750D03*
X1404999Y1919500D03*
X1419249Y1943000D03*
X1462249Y1930750D03*
X1455749Y1920750D03*
Y1947250D03*
X1430249Y1919500D03*
X1429999Y1952000D03*
X1444499Y1947750D03*
X1481249Y1920750D03*
X1506749D03*
Y1946250D03*
X1481249D03*
X1557749D03*
X1532249Y1920750D03*
X1557749D03*
X1532249Y1946250D03*
X1612749Y1909000D03*
X1608749Y1946250D03*
X1574499Y1942500D03*
X1606999Y1959000D03*
X1660499Y1945500D03*
X1655999Y1918725D03*
X1684999Y1920750D03*
X1710749Y1946250D03*
Y1920750D03*
X1684999Y1946250D03*
X1736249Y1920750D03*
X1761749Y1946250D03*
Y1920750D03*
X1736249Y1946250D03*
X1787249Y1920750D03*
Y1946250D03*
X1812749Y1920750D03*
Y1946250D03*
X1845999Y1954500D03*
Y1944500D03*
Y1935500D03*
Y1925500D03*
Y1915500D03*
X1838249Y1946250D03*
Y1920750D03*
X875999Y2007000D03*
Y1997000D03*
Y1987000D03*
Y1977000D03*
Y1967000D03*
X926999Y2007000D03*
X976999D03*
X1026999D03*
X1076999D03*
X1126999D03*
X1176999D03*
X1254499Y2003000D03*
Y1993000D03*
Y1983000D03*
Y1973000D03*
Y1963000D03*
X1226999Y2007000D03*
X1277249Y1997250D03*
X1306249Y1997500D03*
X1306499Y1972250D03*
X1353749Y1997250D03*
X1356749Y1964000D03*
X1379249Y1997250D03*
X1404749D03*
X1445499Y1992750D03*
X1455749Y1971750D03*
X1430249Y1997250D03*
Y1971750D03*
X1497749Y1989250D03*
Y2002750D03*
X1502999Y1996000D03*
X1508249Y2002750D03*
Y1989250D03*
X1547749Y1993000D03*
X1531999Y1971750D03*
X1570249Y2000750D03*
X1564499Y1972500D03*
X1603999Y1971000D03*
X1580749Y2000750D03*
X1575249Y2008500D03*
X1660499Y1971500D03*
X1659749Y1997250D03*
X1634249D03*
X1684999Y1971750D03*
X1710749D03*
X1684999Y1997250D03*
X1710749D03*
X1736249Y1971750D03*
X1761749Y1997250D03*
X1736249D03*
X1761749Y1971750D03*
X1787249Y1997250D03*
X1812749Y1971750D03*
X1787249D03*
X1812749Y1997250D03*
X1845999Y2003500D03*
Y1994500D03*
Y1984500D03*
Y1974500D03*
Y1964500D03*
X1838249Y1997250D03*
Y1971750D03*
X875999Y2017000D03*
X885499Y2019000D03*
X897999Y2055500D03*
X885499Y2048000D03*
X908499Y2028000D03*
X921999Y2038500D03*
Y2050000D03*
X976999Y2055750D03*
X1026999Y2057000D03*
X1076999D03*
X1126999D03*
X1176999D03*
X1226999D03*
X1254499Y2053000D03*
Y2043000D03*
Y2033000D03*
Y2023000D03*
Y2013000D03*
X1277249Y2022750D03*
Y2048250D03*
X1305999Y2048750D03*
X1306249Y2023500D03*
X1353749Y2048250D03*
Y2022750D03*
X1379249Y2048250D03*
X1404749D03*
X1404499Y2025000D03*
X1455749Y2048250D03*
Y2022750D03*
X1430249D03*
Y2048250D03*
X1481249D03*
X1506749D03*
X1481249Y2022750D03*
X1506749D03*
X1532249Y2048250D03*
X1570249Y2016250D03*
X1557749Y2022750D03*
X1532249D03*
X1557749Y2048250D03*
X1583249D03*
X1575499Y2028250D03*
X1580749Y2016250D03*
X1634249Y2048250D03*
X1666499Y2048000D03*
X1659749Y2022750D03*
X1710749Y2048250D03*
X1692999D03*
X1685249Y2022750D03*
X1684249Y2048250D03*
X1676499Y2048500D03*
X1710749Y2022750D03*
X1761749D03*
X1736249Y2048250D03*
X1761749D03*
X1736249Y2022750D03*
X1787249D03*
X1812749Y2048250D03*
X1787249D03*
X1812749Y2022750D03*
X1845999Y2053500D03*
Y2043500D03*
Y2033500D03*
Y2023500D03*
Y2013500D03*
X1838249Y2022750D03*
Y2048250D03*
X875999Y2107000D03*
X897999Y2070500D03*
X885499Y2078000D03*
Y2107000D03*
X908499Y2098000D03*
X938499Y2066500D03*
X921499Y2076000D03*
X926999Y2107000D03*
X924249Y2061500D03*
X951249Y2066500D03*
X921999Y2087500D03*
X960999Y2064000D03*
Y2069000D03*
X976999Y2107000D03*
X1026999D03*
X1076999D03*
X1126999D03*
X1176999D03*
X1226999D03*
X1268499Y2087000D03*
X1258499D03*
X1254499Y2083000D03*
Y2073000D03*
X1277249Y2073750D03*
X1318499Y2087000D03*
X1308499D03*
X1298499D03*
X1288499D03*
X1278499D03*
X1304999Y2074000D03*
X1328249Y2073750D03*
X1353749D03*
X1368499Y2087000D03*
X1358499D03*
X1348499D03*
X1338499D03*
X1328499D03*
X1404749Y2073750D03*
X1379249D03*
X1418499Y2087000D03*
X1408499D03*
X1398499D03*
X1388499D03*
X1378499D03*
X1455749Y2073750D03*
X1430249D03*
X1468499Y2087000D03*
X1458499D03*
X1438499D03*
X1428499D03*
X1506749Y2073750D03*
X1481249D03*
X1518499Y2087000D03*
X1508499D03*
X1498499D03*
X1488499D03*
X1478499D03*
X1532249Y2073750D03*
X1557749D03*
X1568499Y2087000D03*
X1558499D03*
X1548499D03*
X1538499D03*
X1528499D03*
X1613499Y2073750D03*
X1618499Y2087000D03*
X1608499D03*
X1598499D03*
X1588499D03*
X1578499D03*
X1583249Y2073750D03*
X1642749Y2068250D03*
X1663249Y2068500D03*
X1674499Y2090000D03*
X1634249Y2073750D03*
X1647499Y2089500D03*
X1628499Y2087000D03*
X1642999Y2084000D03*
X1680249Y2068500D03*
X1724999Y2105000D03*
X1710749Y2073750D03*
X1685249D03*
X1708499Y2087000D03*
X1761749Y2073750D03*
X1736249D03*
X1736999Y2105000D03*
X1768499Y2087000D03*
X1758499D03*
X1748499D03*
X1738499D03*
X1728499D03*
X1812749Y2073750D03*
X1787249D03*
X1818499Y2087000D03*
X1808499D03*
X1798499D03*
X1788499D03*
X1778499D03*
X1838249Y2073750D03*
X1845999Y2102500D03*
Y2092500D03*
Y2082500D03*
Y2072500D03*
Y2062500D03*
X1838499Y2087000D03*
X1828499D03*
X875999Y2117000D03*
Y2127000D03*
Y2137000D03*
Y2147000D03*
Y2157000D03*
X926999D03*
X1026999D03*
X1076999D03*
X1126999D03*
X1176999D03*
X1226999D03*
X1276999D03*
X1326999D03*
X1376999D03*
X1426999D03*
X1476999D03*
X1526999D03*
X1576999D03*
X1659999Y2120500D03*
X1676999Y2157000D03*
X1706499D03*
X1762499Y2130500D03*
X1750499D03*
X1775999Y2156000D03*
X1726999Y2157000D03*
X1748999Y2156500D03*
X1737999D03*
X1787999Y2156000D03*
X1826999Y2157000D03*
X1869499Y2117000D03*
X1859499D03*
X1850499D03*
X1845999Y2112500D03*
X1876999Y2157000D03*
X1919499Y2117000D03*
X1909499D03*
X1899499D03*
X1889499D03*
X1879499D03*
X1926999Y2157000D03*
X1976999D03*
X1979499Y2117000D03*
X1969499D03*
X1959499D03*
X1949499D03*
X1939499D03*
X1929499D03*
X2015999Y2153500D03*
Y2143500D03*
Y2133500D03*
Y2123500D03*
X2009499Y2117000D03*
X1999499D03*
X1989499D03*
X875999Y2167000D03*
Y2177000D03*
Y2187000D03*
Y2197000D03*
Y2207000D03*
X926999D03*
X1026999D03*
X1076999D03*
X1126999D03*
X1176999D03*
X1226999D03*
X1276999D03*
X1326999D03*
X1376999D03*
X1426999D03*
X1476999D03*
X1526999D03*
X1576999D03*
X1626999D03*
X1676999D03*
X1726999D03*
X1813499Y2181500D03*
X1826999Y2207000D03*
X1801499Y2181500D03*
X1776999Y2207000D03*
X1876999D03*
X1838999D03*
X1926999D03*
X1976999D03*
X2015999Y2203500D03*
Y2193500D03*
Y2183500D03*
Y2173500D03*
Y2163500D03*
X875999Y2217000D03*
Y2227000D03*
Y2237000D03*
Y2247000D03*
Y2257000D03*
X976999D03*
X1026999D03*
X1076999D03*
X1126999D03*
X1176999D03*
X1226999D03*
X1276999D03*
X1326999D03*
X1376999D03*
X1426999D03*
X1476999D03*
X1526999D03*
X1576999D03*
X1626999D03*
X1676999D03*
X1726999D03*
X1799999Y2234750D03*
X1776999Y2257000D03*
X1876999D03*
X1838999D03*
X1878499Y2214700D03*
X1862499Y2225600D03*
X1926999Y2257000D03*
X1894499Y2225600D03*
X1976999Y2257000D03*
X2015999Y2223500D03*
Y2213500D03*
X1988999Y2225500D03*
X2004999Y2214700D03*
X875999Y2267000D03*
Y2277000D03*
Y2287000D03*
Y2297000D03*
Y2307000D03*
X926999D03*
X976999D03*
X1026999D03*
X1076999D03*
X1126999D03*
X1176999D03*
X1226999D03*
X1276999D03*
X1326999D03*
X1376999D03*
X1426999D03*
X1476999D03*
X1526999D03*
X1576999D03*
X1626999D03*
X1676999D03*
X1726999D03*
X1823999Y2311250D03*
X1816999Y2273000D03*
X1839999Y2285750D03*
X1876999Y2307000D03*
X1838999Y2292000D03*
X1828999Y2302000D03*
X1976999Y2307000D03*
X875999Y2317000D03*
Y2327000D03*
Y2337000D03*
Y2347000D03*
Y2357000D03*
X926999D03*
X976999D03*
X1026999D03*
X1076999D03*
X1126999D03*
X1176999D03*
X1226999D03*
X1276999D03*
X1326999D03*
X1376999D03*
X1426999D03*
X1476999D03*
X1526999D03*
X1576999D03*
X1676999D03*
X1825499Y2342500D03*
X1826999Y2357000D03*
X1776999D03*
X1834249Y2336500D03*
X1859499Y2323850D03*
X1838749Y2324000D03*
X875999Y2367000D03*
Y2377000D03*
Y2387000D03*
Y2397000D03*
Y2407000D03*
X926999D03*
X976999D03*
X1026999D03*
X1076999D03*
X1126999D03*
X1176999D03*
X1226999D03*
X1276999D03*
X1326999D03*
X1376999D03*
X1426999D03*
X1476999D03*
X1526999D03*
X1576999D03*
X1626999D03*
X1676999D03*
X1826999D03*
X1776999D03*
X1878499Y2403500D03*
X1862499Y2392600D03*
X1926999Y2407000D03*
X1894499Y2392600D03*
X1976999Y2407000D03*
X2015999Y2409000D03*
Y2403500D03*
X1988999Y2392600D03*
X2004999Y2403500D03*
X875999Y2417000D03*
Y2427000D03*
X881999Y2433000D03*
X891999D03*
X901999D03*
X911999D03*
X921999D03*
X931999D03*
X941999D03*
X951999D03*
X961999D03*
X971999D03*
X981999D03*
X991999D03*
X1001999D03*
X1011999D03*
X1021999D03*
X1031999D03*
X1041999D03*
X1051999D03*
X1061999D03*
X1071999D03*
X1081999D03*
X1091999D03*
X1101999D03*
X1111999D03*
X1121999D03*
X1131999D03*
X1141999D03*
X1151999D03*
X1161999D03*
X1171999D03*
X1181999D03*
X1191999D03*
X1201999D03*
X1211999D03*
X1221999D03*
X1231999D03*
X1241999D03*
X1251999D03*
X1261999D03*
X1271999D03*
X1281999D03*
X1291999D03*
X1301999D03*
X1311999D03*
X1321999D03*
X1331999D03*
X1341999D03*
X1351999D03*
X1361999D03*
X1371999D03*
X1381999D03*
X1391999D03*
X1401999D03*
X1411999D03*
X1421999D03*
X1431999D03*
X1441999D03*
X1451999D03*
X1461999D03*
X1471999D03*
X1481999D03*
X1491999D03*
X1501999D03*
X1511999D03*
X1521999D03*
X1531999D03*
X1541999D03*
X1551999D03*
X1561999D03*
X1571999D03*
X1581999D03*
X1591999D03*
X1601999D03*
X1611999D03*
X1621999D03*
X1631999D03*
X1641999D03*
X1651999D03*
X1661999D03*
X1671999D03*
X1681999D03*
X1691999D03*
X1701999D03*
X1711999D03*
X1721999D03*
X1731999D03*
X1741999D03*
X1751999D03*
X1761999D03*
X1771999D03*
X1781999D03*
X1791999D03*
X1801999D03*
X1811999D03*
X1821999D03*
X1831999D03*
X1841999D03*
X1851999D03*
X1861999D03*
X1871999D03*
X1881999D03*
X1891999D03*
X1901999D03*
X1911999D03*
X1921999D03*
X1931999D03*
X1941999D03*
X1951999D03*
X1961999D03*
X1971999D03*
X1981999D03*
X1991999D03*
X2001999D03*
X2011999D03*
X2015999Y2429000D03*
Y2419000D03*
X870999Y1638000D02*
X2020999D01*
X2020999D02*
Y2438000D01*
X2020999D02*
X870999D01*
X870999D02*
Y1638000D01*
G54D31*
X1675499Y1868000D03*
X1676499Y1885000D03*
X1668499D03*
X1684499D03*
X1692499D03*
G54D36*
G54D40*
X1295999Y1834000D03*
G54D41*
X1315999D03*
X1335999D03*
G54D54*
X1662499Y1907000D03*
G54D57*
X1589499D03*
G54D61*
X1648749Y1943050D03*
X981499Y2157000D03*
Y2182400D03*
G54D85*
X1679499Y2081250D02*
G75*
G03X1679499I-4999J0D01*
G01X1447999Y1757250D02*
G03X1447999I-4999J0D01*
G01X1659749Y2068500D02*
G03X1659749I-4999J0D01*
G01X1434499Y1757250D02*
G03X1434499I-4999J0D01*
G01X1659749Y2084000D02*
G03X1659749I-4999J0D01*
G01X1418999Y1793250D02*
G03X1418999I-4999J0D01*
G01X1679499Y2081250D02*
G03X1679499I-4999J0D01*
G01X1447999Y1757250D02*
G03X1447999I-4999J0D01*
G01X1659749Y2068500D02*
G03X1659749I-4999J0D01*
G01X1434499Y1757250D02*
G03X1434499I-4999J0D01*
G01X1659749Y2084000D02*
G03X1659749I-4999J0D01*
G01X1418999Y1793250D02*
G03X1418999I-4999J0D01*
G01X1669515Y2081647D02*
X1679483D01*
X1669524Y2080747D02*
X1679474D01*
X1669670Y2082547D02*
X1679328D01*
X1669700Y2079847D02*
X1679298D01*
X1670007Y2083447D02*
X1678991D01*
X1670061Y2078947D02*
X1678937D01*
X1670573Y2084347D02*
X1678425D01*
X1670660Y2078047D02*
X1678338D01*
X1671495Y2085247D02*
X1677503D01*
X1671642Y2077147D02*
X1677356D01*
X1673488Y2086147D02*
X1675510D01*
X1438015Y1757647D02*
X1447983D01*
X1438024Y1756747D02*
X1447974D01*
X1438170Y1758547D02*
X1447828D01*
X1438200Y1755847D02*
X1447798D01*
X1438507Y1759447D02*
X1447491D01*
X1438561Y1754947D02*
X1447437D01*
X1439073Y1760347D02*
X1446925D01*
X1439160Y1754047D02*
X1446838D01*
X1439995Y1761247D02*
X1446003D01*
X1440142Y1753147D02*
X1445856D01*
X1441988Y1762147D02*
X1444010D01*
X1649765Y2068897D02*
X1659733D01*
X1649774Y2067997D02*
X1659724D01*
X1649920Y2069797D02*
X1659578D01*
X1649950Y2067097D02*
X1659548D01*
X1650257Y2070697D02*
X1659241D01*
X1650311Y2066197D02*
X1659187D01*
X1650823Y2071597D02*
X1658675D01*
X1650910Y2065297D02*
X1658588D01*
X1651745Y2072497D02*
X1657753D01*
X1651892Y2064397D02*
X1657606D01*
X1653738Y2073397D02*
X1655760D01*
X1424515Y1757647D02*
X1434483D01*
X1424524Y1756747D02*
X1434474D01*
X1424670Y1758547D02*
X1434328D01*
X1424700Y1755847D02*
X1434298D01*
X1425007Y1759447D02*
X1433991D01*
X1425061Y1754947D02*
X1433937D01*
X1425573Y1760347D02*
X1433425D01*
X1425660Y1754047D02*
X1433338D01*
X1426495Y1761247D02*
X1432503D01*
X1426642Y1753147D02*
X1432356D01*
X1428488Y1762147D02*
X1430510D01*
X1649765Y2084397D02*
X1659733D01*
X1649774Y2083497D02*
X1659724D01*
X1649920Y2085297D02*
X1659578D01*
X1649950Y2082597D02*
X1659548D01*
X1650257Y2086197D02*
X1659241D01*
X1650311Y2081697D02*
X1659187D01*
X1650823Y2087097D02*
X1658675D01*
X1650910Y2080797D02*
X1658588D01*
X1651745Y2087997D02*
X1657753D01*
X1651892Y2079897D02*
X1657606D01*
X1653738Y2088897D02*
X1655760D01*
X1409015Y1793647D02*
X1418983D01*
X1409024Y1792747D02*
X1418974D01*
X1409170Y1794547D02*
X1418828D01*
X1409200Y1791847D02*
X1418798D01*
X1409507Y1795447D02*
X1418491D01*
X1409561Y1790947D02*
X1418437D01*
X1410073Y1796347D02*
X1417925D01*
X1410160Y1790047D02*
X1417838D01*
X1410995Y1797247D02*
X1417003D01*
X1411142Y1789147D02*
X1416856D01*
X1412988Y1798147D02*
X1415010D01*
X870999Y1638000D02*
X2020999D01*
X2020999D02*
Y2438000D01*
X2020999D02*
X870999D01*
X870999D02*
Y1638000D01*
X1175544Y1492902D02*
Y1483149D01*
X1209560*
X1211663Y1482448D02*
G03X1209560Y1483149I-2561J-4180D01*
G01X1213918Y1479705D02*
G03X1211663Y1482448I-6165J-2771D01*
G01X1214436Y1477358D02*
G03X1213918Y1479705I-5361J46D01*
G01X1214436Y1477358D02*
Y1475072D01*
X1213917Y1472726D02*
G03X1214436Y1475072I-4868J2308D01*
G01X1211661Y1469983D02*
G03X1213917Y1472726I-3632J5285D01*
G01X1209560Y1469280D02*
G03X1211661Y1469983I-399J4692D01*
G01X1209560Y1469280D02*
X1189565D01*
X1189565D02*
G03X1178775Y1466537I-448J-20825D01*
G01X1178775D02*
G03X1173349Y1459527I6446J-10593D01*
G01X1173349D02*
G03X1172343Y1453736I22180J-6834D01*
G01X1172343D02*
Y1451450D01*
X1172343D02*
G03X1173349Y1445658I22499J924D01*
G01X1173349D02*
G03X1178775Y1438648I11780J3512D01*
G01X1178775D02*
G03X1189565Y1435905I10262J17775D01*
G01X1224312*
Y1445658*
X1224312D02*
X1189565D01*
X1187462Y1446359D02*
G03X1189565Y1445658I2474J3920D01*
G01X1185206Y1449103D02*
G03X1187462Y1446359I6031J2660D01*
G01X1184688Y1451450D02*
G03X1185206Y1449103I5322J-55D01*
G01X1184688Y1451450D02*
Y1453736D01*
X1185206Y1456083D02*
G03X1184688Y1453736I4927J-2318D01*
G01X1187462Y1458826D02*
G03X1185206Y1456083I3777J-5404D01*
G01X1189565Y1459527D02*
G03X1187462Y1458826I456J-4873D01*
G01X1189565Y1459527D02*
X1209560D01*
G03X1220349Y1462270I448J20826*
G01X1220349D02*
G03X1225775Y1469280I-6291J10474D01*
G01X1225775D02*
G03X1226750Y1475072I-20387J6412D01*
G01X1226750D02*
Y1477358D01*
X1226750D02*
G03X1225775Y1483149I-21079J-572D01*
X1220349Y1490159I-11909J-3612*
G01X1220349D02*
G03X1209560Y1492902I-10306J-17948D01*
G01X1209560D02*
X1175544D01*
X1287710Y1435905D02*
X1275823D01*
Y1478242*
X1251835Y1435905*
X1251835D02*
X1237418D01*
X1237418D02*
Y1492902D01*
X1237418D02*
X1249305D01*
X1249305D02*
Y1450566D01*
X1249305D02*
X1273293Y1492902D01*
X1273293D02*
X1287710D01*
X1287710D02*
Y1435905D01*
X1356412D02*
X1343915D01*
X1343915D02*
X1338795Y1449621D01*
X1318129*
X1318129D02*
X1319806Y1459374D01*
X1319806D02*
X1334771D01*
X1334771D02*
X1326420Y1481930D01*
X1308315Y1435905*
X1295208*
X1295208D02*
X1319379Y1492902D01*
X1319379D02*
X1332242D01*
X1332242D02*
X1356412Y1435905D01*
X1545266Y1492902D02*
Y1483149D01*
X1545266D02*
X1579282D01*
X1581385Y1482448D02*
G03X1579282Y1483149I-2565J-4191D01*
G01X1583641Y1479705D02*
G03X1581385Y1482448I-6151J-2758D01*
G01X1584159Y1477358D02*
G03X1583641Y1479705I-5362J46D01*
G01X1584159Y1477358D02*
Y1475072D01*
X1583639Y1472726D02*
G03X1584159Y1475072I-4867J2308D01*
G01X1581384Y1469982D02*
G03X1583639Y1472726I-3632J5286D01*
G01X1579282Y1469280D02*
G03X1581384Y1469982I-407J4719D01*
G01X1579282Y1469280D02*
X1559287D01*
X1559287D02*
G03X1548497Y1466537I-448J-20825D01*
G01X1548497D02*
G03X1543072Y1459527I6447J-10592D01*
X1542066Y1453736I22179J-6834*
G01Y1451450*
G03X1543072Y1445658I22499J924*
G01X1543072D02*
G03X1548497Y1438648I11779J3512D01*
G01X1548497D02*
G03X1559287Y1435905I10263J17775D01*
G01X1594034*
X1594034D02*
Y1445658D01*
X1594034D02*
X1559287D01*
X1557184Y1446359D02*
G03X1559287Y1445658I2475J3920D01*
G01X1554928Y1449103D02*
G03X1557184Y1446359I6028J2656D01*
G01X1554410Y1451450D02*
G03X1554928Y1449103I5322J-55D01*
G01X1554410Y1451450D02*
Y1453736D01*
X1554928Y1456083D02*
G03X1554410Y1453736I4927J-2318D01*
G01X1557184Y1458826D02*
G03X1554928Y1456083I3794J-5418D01*
G01X1559287Y1459527D02*
G03X1557184Y1458826I463J-4892D01*
G01X1559287Y1459527D02*
X1579282D01*
G03X1590072Y1462270I449J20826*
G01X1590072D02*
G03X1595497Y1469280I-6306J10486D01*
G01X1595497D02*
G03X1596473Y1475072I-20387J6412D01*
G01Y1477358*
G03X1595497Y1483149I-21080J-572*
G01X1595497D02*
G03X1590072Y1490159I-11909J-3612D01*
G01X1590072D02*
G03X1579282Y1492902I-10306J-17948D01*
G01X1579282D02*
X1545266D01*
X1487659Y1492872D02*
X1509026D01*
X1523321Y1489428D02*
G03X1509026Y1492872I-13170J-23275D01*
G01X1531215Y1480863D02*
G03X1523321Y1489428I-17933J-8608D01*
G01X1534019Y1468732D02*
G03X1531215Y1480863I-31008J-777D01*
G01X1534019Y1468732D02*
Y1459984D01*
X1531215Y1447853D02*
G03X1534019Y1459984I-28507J12979D01*
G01X1523321Y1439288D02*
G03X1531215Y1447853I-9990J17129D01*
G01X1509026Y1435844D02*
G03X1523321Y1439288I1029J27117D01*
G01X1509026Y1435844D02*
X1487659D01*
Y1445597*
X1487659D02*
X1509026D01*
X1509026D02*
G03X1515853Y1447274I-1162J19476D01*
X1519602Y1451785I-3715J6902*
G01X1519602D02*
G03X1521248Y1459984I-25807J9446D01*
G01X1521248D02*
X1487659D01*
X1487659D02*
Y1469738D01*
X1520974*
G03X1519572Y1476931I-20989J-357*
X1515822Y1481438I-7455J-2388*
G01X1515822D02*
G03X1508994Y1483115I-8054J-18061D01*
G01X1508994D02*
X1487659Y1483118D01*
X1487659D02*
Y1492872D01*
X1584249Y1492250D02*
X1583499Y1492500D01*
X1583499D02*
X1545499D01*
X1545499D02*
Y1491500D01*
X1545499D02*
X1586999D01*
X1586999D02*
X1589249Y1490500D01*
X1589249D02*
X1545499D01*
X1545499D02*
Y1489500D01*
X1545499D02*
X1590999D01*
X1590999D02*
X1591999Y1488500D01*
X1591999D02*
X1545499D01*
X1545499D02*
Y1487500D01*
X1545499D02*
X1592999D01*
X1592999D02*
X1593749Y1486500D01*
X1593749D02*
X1545499D01*
X1545499D02*
Y1485500D01*
X1545499D02*
X1594499D01*
X1594499D02*
X1594999Y1484500D01*
X1594999D02*
X1545499D01*
X1545499D02*
Y1483500D01*
X1545499D02*
X1595249D01*
X1595249D02*
X1595499Y1482500D01*
X1595499D02*
X1581499D01*
X1581499D02*
X1582749Y1481500D01*
X1582749D02*
X1595749D01*
X1595749D02*
X1595999Y1480500D01*
X1595999D02*
X1583499D01*
X1583499D02*
X1583999Y1479500D01*
X1583999D02*
X1596249D01*
X1596249D02*
Y1478500D01*
X1596249D02*
X1584249D01*
X1584249D02*
Y1477500D01*
X1584249D02*
X1596249D01*
X1596249D02*
Y1476500D01*
X1596249D02*
X1584499D01*
X1584499D02*
Y1475500D01*
X1584499D02*
X1596249D01*
X1596249D02*
Y1474500D01*
X1596249D02*
X1584249D01*
X1584249D02*
Y1473500D01*
X1584249D02*
X1596249D01*
X1596249D02*
Y1472500D01*
X1596249D02*
X1583749D01*
X1583749D02*
X1582999Y1471500D01*
X1582999D02*
X1595999D01*
X1595999D02*
X1595749Y1470500D01*
X1595749D02*
X1582249D01*
X1582249D02*
X1580499Y1469500D01*
X1580499D02*
X1595499D01*
X1595499D02*
X1594999Y1468500D01*
X1594999D02*
X1553749D01*
X1553749D02*
X1550499Y1467500D01*
X1550499D02*
X1594499D01*
X1594499D02*
X1594249Y1466500D01*
X1594249D02*
X1548999D01*
X1548999D02*
X1547249Y1465500D01*
X1547249D02*
X1593499D01*
X1593499D02*
X1592499Y1464500D01*
X1592499D02*
X1546249D01*
X1546249D02*
X1545249Y1463500D01*
X1545249D02*
X1591499D01*
X1591499D02*
X1589999Y1462500D01*
X1589999D02*
X1544749D01*
X1544749D02*
X1544249Y1461500D01*
X1544249D02*
X1588499D01*
X1588499D02*
X1585749Y1460500D01*
X1585749D02*
X1543499D01*
X1543499D02*
Y1459500D01*
X1543499D02*
X1558249D01*
X1558249D02*
X1556499Y1458500D01*
X1556499D02*
X1542749D01*
X1542749D02*
Y1457500D01*
X1542749D02*
X1555749D01*
X1555749D02*
X1554999Y1456500D01*
X1554999D02*
X1542499D01*
X1542499D02*
X1542249Y1455500D01*
X1542249D02*
X1554499D01*
X1554499D02*
Y1454500D01*
X1554499D02*
X1542249D01*
X1542249D02*
Y1453500D01*
X1542249D02*
X1554249D01*
X1554249D02*
Y1452500D01*
X1554249D02*
X1542249D01*
X1542249D02*
Y1451500D01*
X1542249D02*
X1554249D01*
X1554249D02*
Y1450500D01*
X1554249D02*
X1542249D01*
X1542249D02*
X1542499Y1449500D01*
X1542499D02*
X1554499D01*
X1554499D02*
X1555249Y1448500D01*
X1555249D02*
X1542499D01*
X1542499D02*
X1542749Y1447500D01*
X1542749D02*
X1555749D01*
X1555749D02*
X1556749Y1446500D01*
X1556749D02*
X1542999D01*
X1542999D02*
X1543249Y1445500D01*
X1543249D02*
X1593749D01*
X1593749D02*
Y1444500D01*
X1593749D02*
X1543499D01*
X1543499D02*
X1543999Y1443500D01*
X1543999D02*
X1593749D01*
X1593749D02*
Y1442500D01*
X1593749D02*
X1544749D01*
X1544749D02*
X1545499Y1441500D01*
X1545499D02*
X1593749D01*
X1593749D02*
Y1440500D01*
X1593749D02*
X1546249D01*
X1546249D02*
X1547499Y1439500D01*
X1547499D02*
X1593749D01*
X1593749D02*
Y1438500D01*
X1593749D02*
X1548999D01*
X1548999D02*
X1550749Y1437500D01*
X1550749D02*
X1593749D01*
X1593749D02*
Y1436500D01*
X1593749D02*
X1553749Y1436750D01*
X1214499Y1492250D02*
X1213749Y1492500D01*
X1213749D02*
X1175749D01*
X1175749D02*
Y1491500D01*
X1175749D02*
X1217249D01*
X1217249D02*
X1219499Y1490500D01*
X1219499D02*
X1175749D01*
X1175749D02*
Y1489500D01*
X1175749D02*
X1221249D01*
X1221249D02*
X1222249Y1488500D01*
X1222249D02*
X1175749D01*
X1175749D02*
Y1487500D01*
X1175749D02*
X1223249D01*
X1223249D02*
X1223999Y1486500D01*
X1223999D02*
X1175749D01*
X1175749D02*
Y1485500D01*
X1175749D02*
X1224749D01*
X1224749D02*
X1225249Y1484500D01*
X1225249D02*
X1175749D01*
X1175749D02*
Y1483500D01*
X1175749D02*
X1225499D01*
X1225499D02*
X1225749Y1482500D01*
X1225749D02*
X1211749D01*
X1211749D02*
X1212999Y1481500D01*
X1212999D02*
X1225999D01*
X1225999D02*
X1226249Y1480500D01*
X1226249D02*
X1213749D01*
X1213749D02*
X1214249Y1479500D01*
X1214249D02*
X1226499D01*
X1226499D02*
Y1478500D01*
X1226499D02*
X1214499D01*
X1214499D02*
Y1477500D01*
X1214499D02*
X1226499D01*
X1226499D02*
Y1476500D01*
X1226499D02*
X1214749D01*
X1214749D02*
Y1475500D01*
X1214749D02*
X1226499D01*
X1226499D02*
Y1474500D01*
X1226499D02*
X1214499D01*
X1214499D02*
Y1473500D01*
X1214499D02*
X1226499D01*
X1226499D02*
Y1472500D01*
X1226499D02*
X1213999D01*
X1213999D02*
X1213249Y1471500D01*
X1213249D02*
X1226249D01*
X1226249D02*
X1225999Y1470500D01*
X1225999D02*
X1212499D01*
X1212499D02*
X1210749Y1469500D01*
X1210749D02*
X1225749D01*
X1225749D02*
X1225249Y1468500D01*
X1225249D02*
X1183999D01*
X1183999D02*
X1180749Y1467500D01*
X1180749D02*
X1224749D01*
X1224749D02*
X1224499Y1466500D01*
X1224499D02*
X1179249D01*
X1179249D02*
X1177499Y1465500D01*
X1177499D02*
X1223749D01*
X1223749D02*
X1222749Y1464500D01*
X1222749D02*
X1176499D01*
X1176499D02*
X1175499Y1463500D01*
X1175499D02*
X1221749D01*
X1221749D02*
X1220249Y1462500D01*
X1220249D02*
X1174999D01*
X1174999D02*
X1174499Y1461500D01*
X1174499D02*
X1218749D01*
X1218749D02*
X1215999Y1460500D01*
X1215999D02*
X1173749D01*
X1173749D02*
Y1459500D01*
X1173749D02*
X1188499D01*
X1188499D02*
X1186749Y1458500D01*
X1186749D02*
X1172999D01*
X1172999D02*
Y1457500D01*
X1172999D02*
X1185999D01*
X1185999D02*
X1185249Y1456500D01*
X1185249D02*
X1172749D01*
X1172749D02*
X1172499Y1455500D01*
X1172499D02*
X1184749D01*
X1184749D02*
Y1454500D01*
X1184749D02*
X1172499D01*
X1172499D02*
Y1453500D01*
X1172499D02*
X1184499D01*
X1184499D02*
Y1452500D01*
X1184499D02*
X1172499D01*
X1172499D02*
Y1451500D01*
X1172499D02*
X1184499D01*
X1184499D02*
Y1450500D01*
X1184499D02*
X1172499D01*
X1172499D02*
X1172749Y1449500D01*
X1172749D02*
X1184749D01*
X1184749D02*
X1185499Y1448500D01*
X1185499D02*
X1172749D01*
X1172749D02*
X1172999Y1447500D01*
X1172999D02*
X1185999D01*
X1185999D02*
X1186999Y1446500D01*
X1186999D02*
X1173249D01*
X1173249D02*
X1173499Y1445500D01*
X1173499D02*
X1223999D01*
X1223999D02*
Y1444500D01*
X1223999D02*
X1173749D01*
X1173749D02*
X1174249Y1443500D01*
X1174249D02*
X1223999D01*
X1223999D02*
Y1442500D01*
X1223999D02*
X1174999D01*
X1174999D02*
X1175749Y1441500D01*
X1175749D02*
X1223999D01*
X1223999D02*
Y1440500D01*
X1223999D02*
X1176499D01*
X1176499D02*
X1177749Y1439500D01*
X1177749D02*
X1223999D01*
X1223999D02*
Y1438500D01*
X1223999D02*
X1179249D01*
X1179249D02*
X1180999Y1437500D01*
X1180999D02*
X1223999D01*
X1223999D02*
Y1436500D01*
X1223999D02*
X1183999Y1436750D01*
X1190749Y1460000D02*
X1186999D01*
X1560249D02*
X1557749D01*
X1516499Y1492000D02*
X1513499Y1492500D01*
X1513499D02*
X1487749D01*
X1487749D02*
Y1491500D01*
X1487749D02*
X1518499D01*
X1518499D02*
X1520999Y1490500D01*
X1520999D02*
X1487749D01*
X1487749D02*
Y1489500D01*
X1487749D02*
X1522999D01*
X1522999D02*
X1524749Y1488500D01*
X1524749D02*
X1487749D01*
X1487749D02*
Y1487500D01*
X1487749D02*
X1525999D01*
X1525999D02*
X1526999Y1486500D01*
X1526999D02*
X1487749D01*
X1487749D02*
Y1485500D01*
X1487749D02*
X1527999D01*
X1527999D02*
X1528999Y1484500D01*
X1528999D02*
X1487749D01*
X1487749D02*
Y1483500D01*
X1487749D02*
X1529749D01*
X1529749D02*
X1530249Y1482500D01*
X1530249D02*
X1512749D01*
X1512749D02*
X1515749Y1481500D01*
X1515749D02*
X1530749D01*
X1530749D02*
X1531249Y1480500D01*
X1531249D02*
X1517249D01*
X1517249D02*
X1518249Y1479500D01*
X1518249D02*
X1531499D01*
X1531499D02*
X1531999Y1478500D01*
X1531999D02*
X1518999D01*
X1518999D02*
X1519499Y1477500D01*
X1519499D02*
X1532499D01*
X1532499D02*
X1532749Y1476500D01*
X1532749D02*
X1519749D01*
X1519749D02*
X1520249Y1475500D01*
X1520249D02*
X1532999D01*
X1532999D02*
X1533249Y1474500D01*
X1533249D02*
X1520499D01*
X1520499D02*
X1520749Y1473500D01*
X1520749D02*
X1533499D01*
X1533499D02*
Y1472500D01*
X1533499D02*
X1520749D01*
X1520749D02*
X1520999Y1471500D01*
X1520999D02*
X1533749D01*
X1533749D02*
Y1470500D01*
X1533749D02*
X1520999D01*
X1520999D02*
X1521249Y1469500D01*
X1521249D02*
X1533749D01*
X1516249Y1436500D02*
X1487749D01*
X1487749D02*
Y1437500D01*
X1487749D02*
X1519249D01*
X1519249D02*
X1521499Y1438500D01*
X1521499D02*
X1487749D01*
X1487749D02*
Y1439500D01*
X1487749D02*
X1523499D01*
X1523499D02*
X1524999Y1440500D01*
X1524999D02*
X1487749D01*
X1487749D02*
Y1441500D01*
X1487749D02*
X1526249D01*
X1526249D02*
X1527499Y1442500D01*
X1527499D02*
X1487749D01*
X1487749D02*
Y1443500D01*
X1487749D02*
X1528499D01*
X1528499D02*
X1529249Y1444500D01*
X1529249D02*
X1487749D01*
X1487749D02*
Y1445500D01*
X1487749D02*
X1529749D01*
X1529749D02*
X1530499Y1446500D01*
X1530499D02*
X1513999D01*
X1513999D02*
X1516249Y1447500D01*
X1516249D02*
X1530999D01*
X1530999D02*
X1531499Y1448500D01*
X1531499D02*
X1517749D01*
X1517749D02*
X1518499Y1449500D01*
X1518499D02*
X1531749D01*
X1531749D02*
X1532249Y1450500D01*
X1532249D02*
X1519249D01*
X1519249D02*
X1519749Y1451500D01*
X1519749D02*
X1532499D01*
X1532499D02*
X1532749Y1452500D01*
X1532749D02*
X1519999D01*
X1519999D02*
X1520249Y1453500D01*
X1520249D02*
X1532999D01*
X1532999D02*
X1533249Y1454500D01*
X1533249D02*
X1520499D01*
X1520499D02*
X1520749Y1455500D01*
X1520749D02*
X1533499D01*
X1533499D02*
X1533749Y1456500D01*
X1533749D02*
X1520999D01*
X1520999D02*
X1521249Y1457500D01*
X1521249D02*
X1533749D01*
X1533749D02*
X1533999Y1458500D01*
X1533999D02*
X1521249D01*
X1521249D02*
Y1459500D01*
X1521249D02*
X1533999D01*
X1533999D02*
Y1460500D01*
X1533999D02*
X1487749D01*
X1487749D02*
Y1461500D01*
X1487749D02*
X1533999D01*
X1533999D02*
Y1462500D01*
X1533999D02*
X1487999D01*
X1487999D02*
Y1463500D01*
X1487999D02*
X1533999D01*
X1533999D02*
Y1464500D01*
X1533999D02*
X1487999D01*
X1487999D02*
Y1465500D01*
X1487999D02*
X1533999D01*
X1533999D02*
Y1466500D01*
X1533999D02*
X1487749D01*
X1487749D02*
Y1467500D01*
X1487749D02*
X1533999D01*
X1533999D02*
Y1468500D01*
X1533999D02*
X1487749D01*
X1487749D02*
Y1469500D01*
X1487749D02*
X1522499D01*
X1417372Y1436057D02*
X1432064D01*
X1432064D02*
X1440933Y1447548D01*
X1437276Y1450749D02*
G03X1440933Y1447548I8728J6284D01*
G01X1437276Y1450749D02*
X1434593Y1456601D01*
X1433801Y1464708D02*
G03X1434593Y1456601I39114J-268D01*
G01Y1472816D02*
G03X1433801Y1464708I33985J-7413D01*
G01X1437276Y1478668D02*
G03X1434593Y1472816I13059J-9525D01*
G01X1442975Y1482753D02*
G03X1437276Y1478668I3371J-10722D01*
G01X1449681Y1483758D02*
G03X1442975Y1482753I75J-23354D01*
G01X1456387D02*
G03X1449681Y1483758I-6891J-23089D01*
G01X1462086Y1478668D02*
G03X1456387Y1482753I-9068J-6636D01*
G01X1464769Y1472816D02*
G03X1462086Y1478668I-15741J-3673D01*
G01X1465531Y1464708D02*
G03X1464769Y1472816I-35089J792D01*
G01X1464738Y1456601D02*
G03X1465531Y1464708I-40630J8064D01*
G01X1462056Y1450749D02*
G03X1464738Y1456601I-12684J9354D01*
G01X1456356Y1446664D02*
G03X1462056Y1450749I-3252J10560D01*
G01X1449681Y1445658D02*
G03X1456356Y1446664I-102J23338D01*
G01X1442975D02*
G03X1449681Y1445658I6706J21849D01*
G01X1442975Y1446664D02*
X1438861Y1437490D01*
X1439623Y1437276*
X1439623D02*
G03X1449681Y1436057I9337J34930D01*
G01X1449681D02*
G03X1459739Y1437276I532J37714D01*
G01X1459739D02*
G03X1468761Y1441269I-6361J26566D01*
G01X1468761D02*
G03X1475589Y1450352I-14505J18012D01*
G01X1475589D02*
G03X1478332Y1464404I-33928J13918D01*
G01X1478332D02*
G03X1475589Y1478455I-36644J139D01*
X1468761Y1487538I-21481J-9039*
G01X1468761D02*
G03X1459739Y1491531I-16137J-24274D01*
G01X1459739D02*
G03X1449681Y1492750I-9989J-40317D01*
G01X1449681D02*
G03X1439623Y1491531I-182J-40594D01*
X1430600Y1487538I6883J-27742*
G01X1430600D02*
G03X1423773Y1478455I14503J-18008D01*
X1421030Y1464404I34615J-14050*
X1423773Y1450352I35967J-271*
G01X1423773D02*
G03X1426851Y1445079I20841J8633D01*
G01X1426851D02*
X1417372Y1436057D01*
X1456499Y1492000D02*
X1446499Y1492500D01*
X1446499D02*
X1439499Y1491500D01*
X1439499D02*
X1459499D01*
X1459499D02*
X1462999Y1490500D01*
X1462999D02*
X1436499D01*
X1436499D02*
X1434249Y1489500D01*
X1434249D02*
X1464749D01*
X1464749D02*
X1466999Y1488500D01*
X1466999D02*
X1432499D01*
X1432499D02*
X1430749Y1487500D01*
X1430749D02*
X1468499D01*
X1468499D02*
X1469749Y1486500D01*
X1469749D02*
X1429499D01*
X1429499D02*
X1428499Y1485500D01*
X1428499D02*
X1470749D01*
X1470749D02*
X1471749Y1484500D01*
X1471749D02*
X1427499D01*
X1427499D02*
X1426749Y1483500D01*
X1426749D02*
X1446499D01*
X1446499D02*
X1441499Y1482500D01*
X1441499D02*
X1426249D01*
X1426249D02*
X1425499Y1481500D01*
X1425499D02*
X1440249D01*
X1440249D02*
X1438749Y1480500D01*
X1438749D02*
X1424999D01*
X1424999D02*
X1424499Y1479500D01*
X1424499D02*
X1437749D01*
X1437749D02*
X1436999Y1478500D01*
X1436999D02*
X1423999D01*
X1423999D02*
X1423499Y1477500D01*
X1423499D02*
X1436249D01*
X1436249D02*
X1435749Y1476500D01*
X1435749D02*
X1423249D01*
X1423249D02*
X1422749Y1475500D01*
X1422749D02*
X1435249D01*
X1435249D02*
X1434749Y1474500D01*
X1434749D02*
X1422499D01*
X1422499D02*
X1422249Y1473500D01*
X1422249D02*
X1434749D01*
X1434749D02*
X1434499Y1472500D01*
X1434499D02*
X1421999D01*
X1421999D02*
X1421749Y1471500D01*
X1421749D02*
X1434249D01*
X1434249D02*
X1433999Y1470500D01*
X1433999D02*
X1421749D01*
X1421749D02*
X1421499Y1469500D01*
X1421499D02*
X1433999D01*
X1433999D02*
X1433749Y1468500D01*
X1433749D02*
X1421499D01*
X1421499D02*
X1421249Y1467500D01*
X1421249D02*
X1433749D01*
X1433749D02*
Y1466500D01*
X1433749D02*
X1421249D01*
X1421249D02*
Y1465500D01*
X1421249D02*
X1433749D01*
X1433749D02*
Y1464500D01*
X1433749D02*
X1421249D01*
X1421249D02*
Y1463500D01*
X1421249D02*
X1433749D01*
X1433749D02*
Y1462500D01*
X1433749D02*
X1421249D01*
X1421249D02*
Y1461500D01*
X1421249D02*
X1433749D01*
X1433749D02*
X1433999Y1460500D01*
X1433999D02*
X1421249D01*
X1421249D02*
X1421499Y1459500D01*
X1421499D02*
X1433999D01*
X1433999D02*
X1434249Y1458500D01*
X1434249D02*
X1421499D01*
X1421499D02*
X1421749Y1457500D01*
X1421749D02*
X1434249D01*
X1434249D02*
X1434499Y1456500D01*
X1434499D02*
X1421999D01*
X1421999D02*
X1422249Y1455500D01*
X1422249D02*
X1434999D01*
X1434999D02*
X1435499Y1454500D01*
X1435499D02*
X1422499D01*
X1422499D02*
X1422749Y1453500D01*
X1422749D02*
X1435999D01*
X1435999D02*
X1436499Y1452500D01*
X1436499D02*
X1422999D01*
X1422999D02*
X1423499Y1451500D01*
X1423499D02*
X1436749D01*
X1436749D02*
X1437249Y1450500D01*
X1437249D02*
X1423749D01*
X1423749D02*
X1424249Y1449500D01*
X1424249D02*
X1438499D01*
X1438499D02*
X1439499Y1448500D01*
X1439499D02*
X1424749D01*
X1424749D02*
X1425249Y1447500D01*
X1425249D02*
X1440499D01*
X1440499D02*
X1439999Y1446500D01*
X1439999D02*
X1425999D01*
X1425999D02*
X1426499Y1445500D01*
X1426499D02*
X1439249D01*
X1439249D02*
X1438499Y1444500D01*
X1438499D02*
X1426499D01*
X1426499D02*
X1425499Y1443500D01*
X1425499D02*
X1437499D01*
X1437499D02*
X1436749Y1442500D01*
X1436749D02*
X1424499D01*
X1424499D02*
X1423249Y1441500D01*
X1423249D02*
X1435999D01*
X1435999D02*
X1435249Y1440500D01*
X1435249D02*
X1422249D01*
X1422249D02*
X1421249Y1439500D01*
X1421249D02*
X1434499D01*
X1434499D02*
X1433749Y1438500D01*
X1433749D02*
X1420249D01*
X1420249D02*
X1418999Y1437500D01*
X1418999D02*
X1432999D01*
X1432999D02*
X1432249Y1436500D01*
X1432249D02*
X1417999D01*
X1452999Y1483500D02*
X1472749D01*
X1472749D02*
X1473499Y1482500D01*
X1473499D02*
X1456999D01*
X1456999D02*
X1458999Y1481500D01*
X1458999D02*
X1473999D01*
X1473999D02*
X1474499Y1480500D01*
X1474499D02*
X1460499D01*
X1460499D02*
X1461499Y1479500D01*
X1461499D02*
X1474999D01*
X1474999D02*
X1475499Y1478500D01*
X1475499D02*
X1462249D01*
X1462249D02*
X1462999Y1477500D01*
X1462999D02*
X1475999D01*
X1475999D02*
X1476249Y1476500D01*
X1476249D02*
X1463499D01*
X1463499D02*
X1463999Y1475500D01*
X1463999D02*
X1476499D01*
X1476499D02*
X1476999Y1474500D01*
X1476999D02*
X1464249D01*
X1464249D02*
X1464749Y1473500D01*
X1464749D02*
X1477249D01*
X1477249D02*
Y1472500D01*
X1477249D02*
X1464999D01*
X1464999D02*
X1465249Y1471500D01*
X1465249D02*
X1477499D01*
X1477499D02*
X1477749Y1470500D01*
X1477749D02*
X1465249D01*
X1465249D02*
X1465499Y1469500D01*
X1465499D02*
X1477999D01*
X1477999D02*
Y1468500D01*
X1477999D02*
X1465499D01*
X1465499D02*
Y1467500D01*
X1465499D02*
X1478249D01*
X1478249D02*
Y1466500D01*
X1478249D02*
X1465499D01*
X1465499D02*
X1465749Y1465500D01*
X1465749D02*
X1478249D01*
X1478249D02*
Y1464500D01*
X1478249D02*
X1465749D01*
X1465749D02*
Y1463500D01*
X1465749D02*
X1478249D01*
X1478249D02*
Y1462500D01*
X1478249D02*
X1465499D01*
X1465499D02*
Y1461500D01*
X1465499D02*
X1478249D01*
X1478249D02*
X1477999Y1460500D01*
X1477999D02*
X1465499D01*
X1465499D02*
X1465249Y1459500D01*
X1465249D02*
X1477999D01*
X1477999D02*
X1477749Y1458500D01*
X1477749D02*
X1465249D01*
X1465249D02*
X1464999Y1457500D01*
X1464999D02*
X1477749D01*
X1477749D02*
X1477499Y1456500D01*
X1477499D02*
X1464749D01*
X1464749D02*
X1464499Y1455500D01*
X1464499D02*
X1477249D01*
X1477249D02*
X1476999Y1454500D01*
X1476999D02*
X1464249D01*
X1464249D02*
X1463749Y1453500D01*
X1463749D02*
X1476749D01*
X1476749D02*
X1476249Y1452500D01*
X1476249D02*
X1463249D01*
X1463249D02*
X1462749Y1451500D01*
X1462749D02*
X1475999D01*
X1475999D02*
X1475499Y1450500D01*
X1475499D02*
X1461999D01*
X1461999D02*
X1460999Y1449500D01*
X1460999D02*
X1475249D01*
X1475249D02*
X1474749Y1448500D01*
X1474749D02*
X1459999D01*
X1459999D02*
X1458499Y1447500D01*
X1458499D02*
X1473999D01*
X1473999D02*
X1473499Y1446500D01*
X1473499D02*
X1456249D01*
X1456249D02*
X1450999Y1445500D01*
X1450999D02*
X1472999D01*
X1472999D02*
X1471999Y1444500D01*
X1471999D02*
X1452499D01*
X1452499D02*
X1450499Y1445500D01*
X1450499D02*
X1447499D01*
X1447499D02*
X1443499Y1446500D01*
X1443499D02*
X1442999D01*
X1442999D02*
X1442499Y1445500D01*
X1442499D02*
X1446499D01*
X1446499D02*
X1447249Y1445000D01*
X1447249D02*
X1450749D01*
X1450749D02*
X1452499Y1444500D01*
X1452499D02*
X1442249D01*
X1442249D02*
X1441749Y1443500D01*
X1441749D02*
X1470749D01*
X1470749D02*
X1469749Y1442500D01*
X1469749D02*
X1441499D01*
X1441499D02*
X1440999Y1441500D01*
X1440999D02*
X1468999D01*
X1468999D02*
X1467499Y1440500D01*
X1467499D02*
X1440499D01*
X1440499D02*
X1439999Y1439500D01*
X1439999D02*
X1465499D01*
X1465499D02*
X1463249Y1438500D01*
X1463249D02*
X1439499D01*
X1439499D02*
Y1437500D01*
X1439499D02*
X1460499D01*
X1460499D02*
X1454499Y1436500D01*
X1454499D02*
X1443499D01*
X1410606Y1492902D02*
Y1458460D01*
X1410270Y1449773D02*
G03X1410606Y1458460I-95932J8053D01*
G01X1403077Y1439075D02*
G03X1410270Y1449773I-7739J12971D01*
G01X1385856Y1435051D02*
G03X1403077Y1439075I1383J32947D01*
G01X1368635D02*
G03X1385856Y1435051I15845J28956D01*
G01X1361441Y1449773D02*
G03X1368635Y1439075I14801J2184D01*
G01X1361106Y1458460D02*
G03X1361441Y1449773I82794J-1153D01*
G01X1361106Y1458460D02*
Y1492902D01*
X1361106D02*
X1372749D01*
X1372749D02*
Y1456326D01*
X1372749D02*
G03X1373725Y1450931I22368J1259D01*
G01Y1450932D02*
G03X1379181Y1444927I10143J3735D01*
X1385499Y1443500I6101J12313*
G01X1385499D02*
G03X1392531Y1444927I604J15064D01*
X1397987Y1450932I-4713J9764*
X1398962Y1456326I-12768J5094*
G01X1398962D02*
Y1492902D01*
X1398962D02*
X1410606D01*
X1410499Y1492500D02*
X1399249D01*
X1399249D02*
Y1491500D01*
X1399249D02*
X1410499D01*
X1410499D02*
Y1490500D01*
X1410499D02*
X1399249D01*
X1399249D02*
Y1489500D01*
X1399249D02*
X1410499D01*
X1410499D02*
Y1488500D01*
X1410499D02*
X1399249D01*
X1399249D02*
Y1487500D01*
X1399249D02*
X1410499D01*
X1410499D02*
Y1486500D01*
X1410499D02*
X1399249D01*
X1399249D02*
Y1485500D01*
X1399249D02*
X1410499D01*
X1410499D02*
Y1484500D01*
X1410499D02*
X1398999D01*
X1398999D02*
Y1483500D01*
X1398999D02*
X1410499D01*
X1410499D02*
Y1482500D01*
X1410499D02*
X1398999D01*
X1398999D02*
Y1481500D01*
X1398999D02*
X1410499D01*
X1410499D02*
Y1480500D01*
X1410499D02*
X1398999D01*
X1398999D02*
Y1479500D01*
X1398999D02*
X1410499D01*
X1410499D02*
Y1478500D01*
X1410499D02*
X1398999D01*
X1398999D02*
Y1477500D01*
X1398999D02*
X1410499D01*
X1410499D02*
Y1476500D01*
X1410499D02*
X1398999D01*
X1398999D02*
Y1475500D01*
X1398999D02*
X1410499D01*
X1410499D02*
Y1474500D01*
X1410499D02*
X1398999D01*
X1398999D02*
Y1473500D01*
X1398999D02*
X1410499D01*
X1410499D02*
Y1472500D01*
X1410499D02*
X1398999D01*
X1398999D02*
Y1471500D01*
X1398999D02*
X1410499D01*
X1410499D02*
Y1470500D01*
X1410499D02*
X1398999D01*
X1398999D02*
Y1469500D01*
X1398999D02*
X1410499D01*
X1410499D02*
Y1468500D01*
X1410499D02*
X1398999D01*
X1398999D02*
Y1467500D01*
X1398999D02*
X1410499D01*
X1410499D02*
Y1466500D01*
X1410499D02*
X1398999D01*
X1398999D02*
Y1465500D01*
X1398999D02*
X1410499D01*
X1410499D02*
Y1464500D01*
X1410499D02*
X1398999D01*
X1398999D02*
Y1463500D01*
X1398999D02*
X1410499D01*
X1410499D02*
Y1462500D01*
X1410499D02*
X1398999D01*
X1398999D02*
Y1461500D01*
X1398999D02*
X1410499D01*
X1410499D02*
Y1460500D01*
X1410499D02*
X1398999D01*
X1398999D02*
Y1459500D01*
X1398999D02*
X1410499D01*
X1410499D02*
Y1458500D01*
X1410499D02*
X1398999D01*
X1398999D02*
Y1457500D01*
X1398999D02*
X1410499D01*
X1410499D02*
Y1456500D01*
X1410499D02*
X1398999D01*
X1398999D02*
Y1455500D01*
X1398999D02*
X1410499D01*
X1410499D02*
Y1454500D01*
X1410499D02*
X1398999D01*
X1398999D02*
Y1453500D01*
X1398999D02*
X1410499D01*
X1410499D02*
Y1452500D01*
X1410499D02*
X1398499D01*
X1398499D02*
Y1451500D01*
X1398499D02*
X1410249D01*
X1410249D02*
Y1450500D01*
X1410249D02*
X1397999D01*
X1397999D02*
X1397499Y1449500D01*
X1397499D02*
X1410249D01*
X1410249D02*
X1409999Y1448500D01*
X1409999D02*
X1396749D01*
X1396749D02*
X1395999Y1447500D01*
X1395999D02*
X1409499D01*
X1409499D02*
X1409249Y1446500D01*
X1409249D02*
X1394999D01*
X1394999D02*
X1393749Y1445500D01*
X1393749D02*
X1408749D01*
X1408749D02*
X1408249Y1444500D01*
X1408249D02*
X1391749D01*
X1391749D02*
X1390499Y1444000D01*
X1390499D02*
X1387749Y1443500D01*
X1387749D02*
X1407749D01*
X1407749D02*
X1406999Y1442500D01*
X1406999D02*
X1364749D01*
X1364749D02*
X1365749Y1441500D01*
X1365749D02*
X1405999D01*
X1405999D02*
X1404999Y1440500D01*
X1404999D02*
X1366749D01*
X1366749D02*
X1368249Y1439500D01*
X1368249D02*
X1403499D01*
X1403499D02*
X1401749Y1438500D01*
X1401749D02*
X1369749D01*
X1369749D02*
X1371999Y1437500D01*
X1371999D02*
X1399499D01*
X1399499D02*
X1396499Y1436500D01*
X1396499D02*
X1375249D01*
X1375249D02*
X1379499Y1435500D01*
X1379499D02*
X1392499D01*
X1392499D02*
X1394999Y1436000D01*
X1389499Y1443500D02*
X1363999D01*
X1363999D02*
X1363249Y1444500D01*
X1363249D02*
X1379999D01*
X1379999D02*
X1378249Y1445500D01*
X1378249D02*
X1362749D01*
X1362749D02*
X1362249Y1446500D01*
X1362249D02*
X1376749D01*
X1376749D02*
X1375749Y1447500D01*
X1375749D02*
X1361999D01*
X1361999D02*
X1361749Y1448500D01*
X1361749D02*
X1374749D01*
X1374749D02*
X1374249Y1449500D01*
X1374249D02*
X1361499D01*
X1361499D02*
Y1450500D01*
X1361499D02*
X1373749D01*
X1373749D02*
X1373499Y1451500D01*
X1373499D02*
X1361499D01*
X1361499D02*
X1361249Y1452500D01*
X1361249D02*
X1373249D01*
X1373249D02*
X1372999Y1453500D01*
X1372999D02*
X1361249D01*
X1361249D02*
Y1454500D01*
X1361249D02*
X1372749D01*
X1372749D02*
Y1455500D01*
X1372749D02*
X1361249D01*
X1361249D02*
Y1456500D01*
X1361249D02*
X1372749D01*
X1372749D02*
Y1457500D01*
X1372749D02*
X1361249D01*
X1361249D02*
Y1458500D01*
X1361249D02*
X1372749D01*
X1372749D02*
Y1459500D01*
X1372749D02*
X1361249D01*
X1361249D02*
Y1460500D01*
X1361249D02*
X1372499D01*
X1372499D02*
Y1461500D01*
X1372499D02*
X1361249D01*
X1361249D02*
Y1462500D01*
X1361249D02*
X1372499D01*
X1372499D02*
Y1463500D01*
X1372499D02*
X1361249D01*
X1361249D02*
Y1464500D01*
X1361249D02*
X1372499D01*
X1372499D02*
Y1465500D01*
X1372499D02*
X1361249D01*
X1361249D02*
Y1466500D01*
X1361249D02*
X1372499D01*
X1372499D02*
Y1467500D01*
X1372499D02*
X1361249D01*
X1361249D02*
Y1468500D01*
X1361249D02*
X1372499D01*
X1372499D02*
Y1469500D01*
X1372499D02*
X1361249D01*
X1361249D02*
Y1470500D01*
X1361249D02*
X1372499D01*
X1372499D02*
Y1471500D01*
X1372499D02*
X1361249D01*
X1361249D02*
Y1472500D01*
X1361249D02*
X1372499D01*
X1372499D02*
Y1473500D01*
X1372499D02*
X1361249D01*
X1361249D02*
Y1474500D01*
X1361249D02*
X1372499D01*
X1372499D02*
Y1475500D01*
X1372499D02*
X1361249D01*
X1361249D02*
Y1476500D01*
X1361249D02*
X1372499D01*
X1372499D02*
Y1477500D01*
X1372499D02*
X1361249D01*
X1361249D02*
Y1478500D01*
X1361249D02*
X1372499D01*
X1372499D02*
Y1479500D01*
X1372499D02*
X1361249D01*
X1361249D02*
Y1480500D01*
X1361249D02*
X1372499D01*
X1372499D02*
Y1481500D01*
X1372499D02*
X1361249D01*
X1361249D02*
Y1482500D01*
X1361249D02*
X1372499D01*
X1372499D02*
Y1483500D01*
X1372499D02*
X1361249D01*
X1361249D02*
Y1484500D01*
X1361249D02*
X1372499D01*
X1372499D02*
Y1485500D01*
X1372499D02*
X1361249D01*
X1361249D02*
Y1486500D01*
X1361249D02*
X1372499D01*
X1372499D02*
Y1487500D01*
X1372499D02*
X1361249D01*
X1361249D02*
Y1488500D01*
X1361249D02*
X1372499D01*
X1372499D02*
Y1489500D01*
X1372499D02*
X1361249D01*
X1361249D02*
Y1490500D01*
X1361249D02*
X1372499D01*
X1372499D02*
Y1491500D01*
X1372499D02*
X1361249D01*
X1361249D02*
Y1492500D01*
X1361249D02*
X1372499D01*
X1355999Y1436500D02*
X1343999D01*
X1343999D02*
X1343499Y1437500D01*
X1343499D02*
X1355499D01*
X1355499D02*
X1354999Y1438500D01*
X1354999D02*
X1343249D01*
X1343249D02*
X1342749Y1439500D01*
X1342749D02*
X1354749D01*
X1354749D02*
X1354249Y1440500D01*
X1354249D02*
X1342249D01*
X1342249D02*
X1341999Y1441500D01*
X1341999D02*
X1353999D01*
X1353999D02*
X1353499Y1442500D01*
X1353499D02*
X1341749D01*
X1341749D02*
X1341249Y1443500D01*
X1341249D02*
X1352999D01*
X1352999D02*
X1352499Y1444500D01*
X1352499D02*
X1340999D01*
X1340999D02*
X1340499Y1445500D01*
X1340499D02*
X1352249D01*
X1352249D02*
X1351749Y1446500D01*
X1351749D02*
X1340249D01*
X1340249D02*
X1339749Y1447500D01*
X1339749D02*
X1351249D01*
X1351249D02*
X1350749Y1448500D01*
X1350749D02*
X1339499D01*
X1339499D02*
X1338999Y1449500D01*
X1338999D02*
X1350499D01*
X1350499D02*
X1349999Y1450500D01*
X1349999D02*
X1318499D01*
X1318499D02*
Y1451500D01*
X1318499D02*
X1349749D01*
X1349749D02*
X1349249Y1452500D01*
X1349249D02*
X1318749D01*
X1318749D02*
X1318999Y1453500D01*
X1318999D02*
X1348749D01*
X1348749D02*
X1348249Y1454500D01*
X1348249D02*
X1319249D01*
X1319249D02*
X1319499Y1455500D01*
X1319499D02*
X1347999D01*
X1347999D02*
X1347499Y1456500D01*
X1347499D02*
X1319499D01*
X1319499D02*
X1319749Y1457500D01*
X1319749D02*
X1346999D01*
X1346999D02*
X1346499Y1458500D01*
X1346499D02*
X1319749D01*
X1319749D02*
X1319999Y1459250D01*
X1319999D02*
X1334249D01*
X1334249D02*
X1334499Y1459500D01*
X1334499D02*
X1346249D01*
X1346249D02*
X1345749Y1460500D01*
X1345749D02*
X1334499D01*
X1334499D02*
X1334249Y1461500D01*
X1334249D02*
X1345499D01*
X1345499D02*
X1345249Y1462500D01*
X1345249D02*
X1333749D01*
X1333749D02*
X1333249Y1463500D01*
X1333249D02*
X1344499D01*
X1344499D02*
X1344249Y1464500D01*
X1344249D02*
X1332999D01*
X1332999D02*
X1332749Y1465500D01*
X1332749D02*
X1343749D01*
X1343749D02*
X1343249Y1466500D01*
X1343249D02*
X1332249D01*
X1332249D02*
X1331749Y1467500D01*
X1331749D02*
X1342749D01*
X1342749D02*
X1342249Y1468500D01*
X1342249D02*
X1331499D01*
X1331499D02*
X1330999Y1469500D01*
X1330999D02*
X1341999D01*
X1341999D02*
X1341499Y1470500D01*
X1341499D02*
X1330749D01*
X1330749D02*
X1330249Y1471500D01*
X1330249D02*
X1341249D01*
X1341249D02*
X1340749Y1472500D01*
X1340749D02*
X1329999D01*
X1329999D02*
X1329749Y1473500D01*
X1329749D02*
X1340249D01*
X1340249D02*
X1339749Y1474500D01*
X1339749D02*
X1329249D01*
X1329249D02*
X1328749Y1475500D01*
X1328749D02*
X1339499D01*
X1339499D02*
X1338999Y1476500D01*
X1338999D02*
X1328499D01*
X1328499D02*
X1328249Y1477500D01*
X1328249D02*
X1338499D01*
X1338499D02*
X1337999Y1478500D01*
X1337999D02*
X1327999D01*
X1327999D02*
X1327499Y1479500D01*
X1327499D02*
X1337749D01*
X1337749D02*
X1337249Y1480500D01*
X1337249D02*
X1326999D01*
X1326999D02*
X1326499Y1481500D01*
X1326499D02*
X1336999D01*
X1336999D02*
X1336499Y1482500D01*
X1336499D02*
X1314999D01*
X1314999D02*
X1315499Y1483500D01*
X1315499D02*
X1335999D01*
X1335999D02*
X1335749Y1484500D01*
X1335749D02*
X1315749D01*
X1315749D02*
X1316249Y1485500D01*
X1316249D02*
X1335249D01*
X1335249D02*
X1334749Y1486500D01*
X1334749D02*
X1316749D01*
X1316749D02*
X1317249Y1487500D01*
X1317249D02*
X1334499D01*
X1334499D02*
X1333999Y1488500D01*
X1333999D02*
X1317749D01*
X1317749D02*
X1318249Y1489500D01*
X1318249D02*
X1333499D01*
X1333499D02*
X1332999Y1490500D01*
X1332999D02*
X1318499D01*
X1318499D02*
X1318999Y1491500D01*
X1318999D02*
X1332499D01*
X1332499D02*
X1331999Y1492500D01*
X1331999D02*
X1319499D01*
X1326499Y1481500D02*
X1314749D01*
X1314749D02*
X1314249Y1480500D01*
X1314249D02*
X1325749D01*
X1325749D02*
X1325249Y1479500D01*
X1325249D02*
X1313749D01*
X1313749D02*
X1313249Y1478500D01*
X1313249D02*
X1324999D01*
X1324999D02*
X1324499Y1477500D01*
X1324499D02*
X1312999D01*
X1312999D02*
X1312499Y1476500D01*
X1312499D02*
X1323999D01*
X1323999D02*
X1323749Y1475500D01*
X1323749D02*
X1311999D01*
X1311999D02*
X1311749Y1474500D01*
X1311749D02*
X1323499D01*
X1323499D02*
X1322999Y1473500D01*
X1322999D02*
X1311249D01*
X1311249D02*
X1310749Y1472500D01*
X1310749D02*
X1322499D01*
X1322499D02*
X1322249Y1471500D01*
X1322249D02*
X1310499D01*
X1310499D02*
X1309999Y1470500D01*
X1309999D02*
X1321749D01*
X1321749D02*
X1321249Y1469500D01*
X1321249D02*
X1309749D01*
X1309749D02*
X1309249Y1468500D01*
X1309249D02*
X1320999D01*
X1320999D02*
X1320499Y1467500D01*
X1320499D02*
X1308749D01*
X1308749D02*
X1308249Y1466500D01*
X1308249D02*
X1320249D01*
X1320249D02*
X1319749Y1465500D01*
X1319749D02*
X1307999D01*
X1307999D02*
X1307749Y1464500D01*
X1307749D02*
X1319499D01*
X1319499D02*
X1318999Y1463500D01*
X1318999D02*
X1306999D01*
X1306999D02*
X1306749Y1462500D01*
X1306749D02*
X1318499D01*
X1318499D02*
X1318249Y1461500D01*
X1318249D02*
X1306249D01*
X1306249D02*
X1305999Y1460500D01*
X1305999D02*
X1317749D01*
X1317749D02*
X1317499Y1459500D01*
X1317499D02*
X1305249D01*
X1305249D02*
X1304999Y1458500D01*
X1304999D02*
X1316999D01*
X1316999D02*
X1316499Y1457500D01*
X1316499D02*
X1304499D01*
X1304499D02*
X1303999Y1456500D01*
X1303999D02*
X1316249D01*
X1316249D02*
X1315749Y1455500D01*
X1315749D02*
X1303749D01*
X1303749D02*
X1303249Y1454500D01*
X1303249D02*
X1315499D01*
X1315499D02*
X1314999Y1453500D01*
X1314999D02*
X1302749D01*
X1302749D02*
X1302499Y1452500D01*
X1302499D02*
X1314749D01*
X1314749D02*
X1314249Y1451500D01*
X1314249D02*
X1301999D01*
X1301999D02*
X1301499Y1450500D01*
X1301499D02*
X1313999D01*
X1313999D02*
X1313499Y1449500D01*
X1313499D02*
X1301249D01*
X1301249D02*
X1300749Y1448500D01*
X1300749D02*
X1313249D01*
X1313249D02*
X1312749Y1447500D01*
X1312749D02*
X1300249D01*
X1300249D02*
X1299999Y1446500D01*
X1299999D02*
X1312249D01*
X1312249D02*
X1311749Y1445500D01*
X1311749D02*
X1299499D01*
X1299499D02*
X1298999Y1444500D01*
X1298999D02*
X1311499D01*
X1311499D02*
X1310999Y1443500D01*
X1310999D02*
X1298499D01*
X1298499D02*
X1297999Y1442500D01*
X1297999D02*
X1310749D01*
X1310749D02*
X1310249Y1441500D01*
X1310249D02*
X1297749D01*
X1297749D02*
X1297249Y1440500D01*
X1297249D02*
X1309999D01*
X1309999D02*
X1309499Y1439500D01*
X1309499D02*
X1296999D01*
X1296999D02*
X1296499Y1438500D01*
X1296499D02*
X1309249D01*
X1309249D02*
X1308749Y1437500D01*
X1308749D02*
X1295999D01*
X1295999D02*
X1295749Y1436500D01*
X1295749D02*
X1308499D01*
X1287499D02*
X1275999D01*
X1275999D02*
Y1437500D01*
X1275999D02*
X1287499D01*
X1287499D02*
Y1438500D01*
X1287499D02*
X1275999D01*
X1275999D02*
Y1439500D01*
X1275999D02*
X1287499D01*
X1287499D02*
Y1440500D01*
X1287499D02*
X1275999D01*
X1275999D02*
Y1441500D01*
X1275999D02*
X1287499D01*
X1287499D02*
Y1442500D01*
X1287499D02*
X1275999D01*
X1275999D02*
Y1443500D01*
X1275999D02*
X1287499D01*
X1287499D02*
Y1444500D01*
X1287499D02*
X1275999D01*
X1275999D02*
Y1445500D01*
X1275999D02*
X1287499D01*
X1287499D02*
Y1446500D01*
X1287499D02*
X1275999D01*
X1275999D02*
Y1447500D01*
X1275999D02*
X1287499D01*
X1287499D02*
Y1448500D01*
X1287499D02*
X1275999D01*
X1275999D02*
Y1449500D01*
X1275999D02*
X1287499D01*
X1287499D02*
Y1450500D01*
X1287499D02*
X1275999D01*
X1275999D02*
Y1451500D01*
X1275999D02*
X1287499D01*
X1287499D02*
Y1452500D01*
X1287499D02*
X1275999D01*
X1275999D02*
Y1453500D01*
X1275999D02*
X1287499D01*
X1287499D02*
Y1454500D01*
X1287499D02*
X1275999D01*
X1275999D02*
Y1455500D01*
X1275999D02*
X1287499D01*
X1287499D02*
Y1456500D01*
X1287499D02*
X1275999D01*
X1275999D02*
Y1457500D01*
X1275999D02*
X1287499D01*
X1287499D02*
Y1458500D01*
X1287499D02*
X1275999D01*
X1275999D02*
Y1459500D01*
X1275999D02*
X1287499D01*
X1287499D02*
Y1460500D01*
X1287499D02*
X1275999D01*
X1275999D02*
Y1461500D01*
X1275999D02*
X1287499D01*
X1287499D02*
Y1462500D01*
X1287499D02*
X1275999D01*
X1275999D02*
Y1463500D01*
X1275999D02*
X1287499D01*
X1287499D02*
Y1464500D01*
X1287499D02*
X1275999D01*
X1275999D02*
Y1465500D01*
X1275999D02*
X1287499D01*
X1287499D02*
Y1466500D01*
X1287499D02*
X1275999D01*
X1275999D02*
Y1467500D01*
X1275999D02*
X1287499D01*
X1287499D02*
Y1468500D01*
X1287499D02*
X1275999D01*
X1275999D02*
Y1469500D01*
X1275999D02*
X1287499D01*
X1287499D02*
Y1470500D01*
X1287499D02*
X1275999D01*
X1275999D02*
Y1471500D01*
X1275999D02*
X1287499D01*
X1287499D02*
Y1472500D01*
X1287499D02*
X1275999D01*
X1275999D02*
Y1473500D01*
X1275999D02*
X1287499D01*
X1287499D02*
Y1474500D01*
X1287499D02*
X1275999D01*
X1275999D02*
Y1475500D01*
X1275999D02*
X1287499D01*
X1287499D02*
Y1476500D01*
X1287499D02*
X1275749D01*
X1275749D02*
Y1477500D01*
X1275749D02*
X1287499D01*
X1287499D02*
Y1478500D01*
X1287499D02*
X1265249D01*
X1265249D02*
X1265749Y1479500D01*
X1265749D02*
X1287499D01*
X1287499D02*
Y1480500D01*
X1287499D02*
X1266499D01*
X1266499D02*
X1266999Y1481500D01*
X1266999D02*
X1287499D01*
X1287499D02*
Y1482500D01*
X1287499D02*
X1267499D01*
X1267499D02*
X1267999Y1483500D01*
X1267999D02*
X1287499D01*
X1287499D02*
Y1484500D01*
X1287499D02*
X1268749D01*
X1268749D02*
X1269249Y1485500D01*
X1269249D02*
X1287499D01*
X1287499D02*
Y1486500D01*
X1287499D02*
X1269749D01*
X1269749D02*
X1270249Y1487500D01*
X1270249D02*
X1287499D01*
X1287499D02*
Y1488500D01*
X1287499D02*
X1270999D01*
X1270999D02*
X1271499Y1489500D01*
X1271499D02*
X1287499D01*
X1287499D02*
Y1490500D01*
X1287499D02*
X1271999D01*
X1271999D02*
X1272499Y1491500D01*
X1272499D02*
X1287499D01*
X1287499D02*
Y1492500D01*
X1287499D02*
X1273249D01*
X1274999Y1477500D02*
X1264749D01*
X1264749D02*
X1263999Y1476500D01*
X1263999D02*
X1274749D01*
X1274749D02*
X1273999Y1475500D01*
X1273999D02*
X1263499D01*
X1263499D02*
X1262999Y1474500D01*
X1262999D02*
X1273499D01*
X1273499D02*
X1272749Y1473500D01*
X1272749D02*
X1262499D01*
X1262499D02*
X1261749Y1472500D01*
X1261749D02*
X1272499D01*
X1272499D02*
X1271749Y1471500D01*
X1271749D02*
X1261249D01*
X1261249D02*
X1260749Y1470500D01*
X1260749D02*
X1271499D01*
X1271499D02*
X1270749Y1469500D01*
X1270749D02*
X1260249D01*
X1260249D02*
X1259499Y1468500D01*
X1259499D02*
X1270249D01*
X1270249D02*
X1269499Y1467500D01*
X1269499D02*
X1258999D01*
X1258999D02*
X1258499Y1466500D01*
X1258499D02*
X1268999D01*
X1268999D02*
X1268499Y1465500D01*
X1268499D02*
X1257999D01*
X1257999D02*
X1257249Y1464500D01*
X1257249D02*
X1267999D01*
X1267999D02*
X1267249Y1463500D01*
X1267249D02*
X1256749D01*
X1256749D02*
X1256249Y1462500D01*
X1256249D02*
X1266749D01*
X1266749D02*
X1265999Y1461500D01*
X1265999D02*
X1255749D01*
X1255749D02*
X1255249Y1460500D01*
X1255249D02*
X1265749D01*
X1265749D02*
X1264999Y1459500D01*
X1264999D02*
X1254499D01*
X1254499D02*
X1253999Y1458500D01*
X1253999D02*
X1264499D01*
X1264499D02*
X1263749Y1457500D01*
X1263749D02*
X1253499D01*
X1253499D02*
X1252749Y1456500D01*
X1252749D02*
X1263499D01*
X1263499D02*
X1262749Y1455500D01*
X1262749D02*
X1252249D01*
X1252249D02*
X1251749Y1454500D01*
X1251749D02*
X1262249D01*
X1262249D02*
X1261749Y1453500D01*
X1261749D02*
X1251249D01*
X1251249D02*
X1250499Y1452500D01*
X1250499D02*
X1261249D01*
X1261249D02*
X1260499Y1451500D01*
X1260499D02*
X1237499D01*
X1237499D02*
Y1450500D01*
X1237499D02*
X1259999D01*
X1259999D02*
X1259499Y1449500D01*
X1259499D02*
X1237499D01*
X1237499D02*
Y1448500D01*
X1237499D02*
X1258749D01*
X1258749D02*
X1258249Y1447500D01*
X1258249D02*
X1237499D01*
X1237499D02*
Y1446500D01*
X1237499D02*
X1257749D01*
X1257749D02*
X1256999Y1445500D01*
X1256999D02*
X1237499D01*
X1237499D02*
Y1444500D01*
X1237499D02*
X1256499D01*
X1256499D02*
X1255999Y1443500D01*
X1255999D02*
X1237499D01*
X1237499D02*
Y1442500D01*
X1237499D02*
X1255499D01*
X1255499D02*
X1254749Y1441500D01*
X1254749D02*
X1237499D01*
X1237499D02*
Y1440500D01*
X1237499D02*
X1254249D01*
X1254249D02*
X1253749Y1439500D01*
X1253749D02*
X1237499D01*
X1237499D02*
Y1438500D01*
X1237499D02*
X1253249D01*
X1253249D02*
X1252499Y1437500D01*
X1252499D02*
X1237499D01*
X1237499D02*
Y1436500D01*
X1237499D02*
X1251999D01*
X1249249Y1452500D02*
X1237499D01*
X1237499D02*
Y1453500D01*
X1237499D02*
X1249249D01*
X1249249D02*
Y1454500D01*
X1249249D02*
X1237499D01*
X1237499D02*
Y1455500D01*
X1237499D02*
X1249249D01*
X1249249D02*
Y1456500D01*
X1249249D02*
X1237499D01*
X1237499D02*
Y1457500D01*
X1237499D02*
X1249249D01*
X1249249D02*
Y1458500D01*
X1249249D02*
X1237499D01*
X1237499D02*
Y1459500D01*
X1237499D02*
X1249249D01*
X1249249D02*
Y1460500D01*
X1249249D02*
X1237499D01*
X1237499D02*
Y1461500D01*
X1237499D02*
X1249249D01*
X1249249D02*
Y1462500D01*
X1249249D02*
X1237499D01*
X1237499D02*
Y1463500D01*
X1237499D02*
X1249249D01*
X1249249D02*
Y1464500D01*
X1249249D02*
X1237499D01*
X1237499D02*
Y1465500D01*
X1237499D02*
X1249249D01*
X1249249D02*
Y1466500D01*
X1249249D02*
X1237499D01*
X1237499D02*
Y1467500D01*
X1237499D02*
X1249249D01*
X1249249D02*
Y1468500D01*
X1249249D02*
X1237499D01*
X1237499D02*
Y1469500D01*
X1237499D02*
X1249249D01*
X1249249D02*
Y1470500D01*
X1249249D02*
X1237499D01*
X1237499D02*
Y1471500D01*
X1237499D02*
X1249249D01*
X1249249D02*
Y1472500D01*
X1249249D02*
X1237499D01*
X1237499D02*
Y1473500D01*
X1237499D02*
X1249249D01*
X1249249D02*
Y1474500D01*
X1249249D02*
X1237499D01*
X1237499D02*
Y1475500D01*
X1237499D02*
X1249249D01*
X1249249D02*
Y1476500D01*
X1249249D02*
X1237499D01*
X1237499D02*
Y1477500D01*
X1237499D02*
X1249249D01*
X1249249D02*
Y1478500D01*
X1249249D02*
X1237499D01*
X1237499D02*
Y1479500D01*
X1237499D02*
X1249249D01*
X1249249D02*
Y1480500D01*
X1249249D02*
X1237499D01*
X1237499D02*
Y1481500D01*
X1237499D02*
X1249249D01*
X1249249D02*
Y1482500D01*
X1249249D02*
X1237499D01*
X1237499D02*
Y1483500D01*
X1237499D02*
X1249249D01*
X1249249D02*
Y1484500D01*
X1249249D02*
X1237499D01*
X1237499D02*
Y1485500D01*
X1237499D02*
X1249249D01*
X1249249D02*
Y1486500D01*
X1249249D02*
X1237499D01*
X1237499D02*
Y1487500D01*
X1237499D02*
X1249249D01*
X1249249D02*
Y1488500D01*
X1249249D02*
X1237499D01*
X1237499D02*
Y1489500D01*
X1237499D02*
X1249249D01*
X1249249D02*
Y1490500D01*
X1249249D02*
X1237499D01*
X1237499D02*
Y1491500D01*
X1237499D02*
X1249249D01*
X1249249D02*
Y1492500D01*
X1249249D02*
X1237499D01*
X1723643Y1507356D02*
G03X1714499Y1516500I-9143J0D01*
G01X1723643Y1507356D02*
Y1420488D01*
X1714499Y1411344D02*
G03X1723643Y1420488I0J9144D01*
G01X1714499Y1411344D02*
X1627936D01*
X1618792Y1420488D02*
G03X1627936Y1411344I9144J0D01*
G01X1618792Y1420488D02*
Y1507356D01*
X1627936Y1516500D02*
G03X1618792Y1507356I0J-9143D01*
G01X1627936Y1516500D02*
X1714499D01*
X1636868Y1434144D02*
Y1446860D01*
X1639440*
G03X1641440Y1448860I0J2000*
G01Y1458052*
G03X1639440Y1460052I-1999J0*
G01X1636868*
Y1472768*
X1639440*
G03X1641440Y1474768I0J2000*
G01Y1483960*
G03X1639440Y1485960I-1999J0*
G01X1636868*
Y1500041*
X1636868D02*
X1653851Y1483058D01*
Y1474768*
G03X1655851Y1472768I2000J0*
G01X1664141*
X1664141D02*
X1670543Y1466366D01*
X1670543D02*
X1664265Y1460052D01*
X1664265D02*
X1655851D01*
G03X1653851Y1458052I0J-1999*
G01Y1449575*
X1638511Y1434144*
X1638511D02*
X1636868D01*
X1642190Y1422952D02*
Y1431297D01*
X1642190D02*
X1657002Y1446110D01*
X1657002D02*
X1665043D01*
G03X1667793Y1448860I0J2750*
G01Y1456900*
X1667793D02*
X1673370Y1462478D01*
X1673370D02*
X1679009Y1456839D01*
X1679009D02*
Y1448860D01*
G03X1681759Y1446110I2750J0*
G01X1689739*
X1705527Y1430322*
X1693701*
Y1432144*
G03X1690951Y1434894I-2749J0*
G01X1681759*
G03X1679009Y1432144I0J-2749*
G01Y1430322*
X1667793*
Y1432144*
G03X1665043Y1434894I-2749J0*
G01X1655851*
G03X1653101Y1432144I0J-2749*
G01Y1422952*
G03X1655851Y1420202I2750J0*
G01X1665043*
G03X1667793Y1422952I0J2750*
G01Y1424774*
X1679009*
Y1422952*
G03X1681759Y1420202I2750J0*
G01X1690951*
G03X1693701Y1422952I0J2750*
G01Y1424774*
X1712299*
X1712299D02*
G03X1714244Y1429468I0J2750D01*
G01X1714244D02*
X1693701Y1450011D01*
Y1458052*
G03X1690951Y1460802I-2749J0*
G01X1682910*
X1682910D02*
X1677302Y1466410D01*
X1677302D02*
X1682910Y1472018D01*
X1682910D02*
X1690951D01*
G03X1693701Y1474768I0J2750*
G01Y1483960*
G03X1690951Y1486710I-2749J0*
G01X1681759*
G03X1679009Y1483960I0J-2749*
G01Y1475947*
X1679009D02*
X1673404Y1470308D01*
X1673404D02*
X1667793Y1475919D01*
Y1483960*
G03X1665043Y1486710I-2749J0*
G01X1657002*
X1657002D02*
X1636764Y1506948D01*
X1636764D02*
G03X1632070Y1505003I-1943J-1944D01*
G01X1632070D02*
Y1486710D01*
X1630248*
G03X1627498Y1483960I0J-2749*
G01Y1474768*
G03X1630248Y1472018I2750J0*
G01X1632070*
Y1460802*
X1630248*
G03X1627498Y1458052I0J-2749*
G01Y1448860*
G03X1630248Y1446110I2750J0*
G01X1632070*
Y1434894*
X1630248*
G03X1627498Y1432144I0J-2749*
G01Y1422952*
G03X1630248Y1420202I2750J0*
G01X1639440*
G03X1642190Y1422952I0J2750*
G01X1641440D02*
Y1431608D01*
X1656692Y1446860*
X1665043*
G03X1667043Y1448860I0J2000*
G01Y1457211*
X1673370Y1463538*
X1673370D02*
X1679759Y1457150D01*
Y1448860*
G03X1681759Y1446860I2000J0*
G01X1690049*
X1690049D02*
X1707337Y1429572D01*
X1707337D02*
X1692951D01*
Y1432144*
G03X1690951Y1434144I-1999J0*
G01X1681759*
G03X1679759Y1432144I0J-1999*
G01Y1429572*
X1667043*
Y1432144*
G03X1665043Y1434144I-1999J0*
G01X1655851*
G03X1653851Y1432144I0J-1999*
G01Y1422952*
G03X1655851Y1420952I2000J0*
G01X1665043*
G03X1667043Y1422952I0J2000*
G01Y1425524*
X1679759*
Y1422952*
G03X1681759Y1420952I2000J0*
G01X1690951*
G03X1692951Y1422952I0J2000*
G01Y1425524*
X1712299*
X1712299D02*
G03X1713713Y1428938I0J2000D01*
G01X1713713D02*
X1692951Y1449700D01*
X1692951D02*
Y1458052D01*
G03X1690951Y1460052I-1999J0*
G01X1682600*
X1676242Y1466410*
X1682600Y1472768*
X1690951*
G03X1692951Y1474768I0J2000*
G01Y1483960*
G03X1690951Y1485960I-1999J0*
G01X1681759*
G03X1679759Y1483960I0J-1999*
G01Y1475638*
X1673405Y1469246*
X1673405D02*
X1667043Y1475608D01*
X1667043D02*
Y1483960D01*
G03X1665043Y1485960I-1999J0*
G01X1656692*
X1636234Y1506417*
X1636234D02*
G03X1632820Y1505003I-1413J-1413D01*
G01X1632820D02*
Y1485960D01*
X1630248*
G03X1628248Y1483960I0J-1999*
G01Y1474768*
G03X1630248Y1472768I2000J0*
G01X1632820*
Y1460052*
X1630248*
G03X1628248Y1458052I0J-1999*
G01Y1448860*
G03X1630248Y1446860I2000J0*
G01X1632820*
Y1434144*
X1630248*
G03X1628248Y1432144I0J-1999*
G01Y1422952*
G03X1630248Y1420952I2000J0*
G01X1639440*
G03X1641440Y1422952I0J2000*
G01X1722791Y1420543D02*
Y1507396D01*
G03X1714391Y1515796I-8400J0*
G01X1627840Y1515799*
X1627840D02*
G03X1619439Y1507399I0J-8399D01*
G01X1619439D02*
Y1420543D01*
X1619439D02*
G03X1627839Y1412143I8400J0D01*
G01X1627839D02*
X1714391D01*
X1714391D02*
G03X1722791Y1420543I0J8400D01*
G01X1637618Y1434894D02*
Y1446110D01*
X1639440*
G03X1642190Y1448860I0J2750*
G01Y1458052*
G03X1639440Y1460802I-2749J0*
G01X1637618*
Y1472018*
X1639440*
G03X1642190Y1474768I0J2750*
G01Y1483960*
G03X1639440Y1486710I-2749J0*
G01X1637618*
Y1498231*
X1653101Y1482747*
X1653101D02*
Y1474768D01*
G03X1655851Y1472018I2750J0*
G01X1663831*
X1669483Y1466365*
X1669483D02*
X1663953Y1460802D01*
X1663953D02*
X1655851D01*
G03X1653101Y1458052I0J-2749*
G01Y1449884*
X1653101D02*
X1638199Y1434894D01*
X1638199D02*
X1637618D01*
X1719143Y1514344D02*
X1622893D01*
X1622893D02*
X1621893Y1513344D01*
X1621893D02*
X1720643D01*
X1720643D02*
X1721643Y1512344D01*
X1721643D02*
X1621143D01*
X1621143D02*
X1620143Y1511344D01*
X1620143D02*
X1721893D01*
X1721893D02*
X1722893Y1510344D01*
X1722893D02*
X1619643D01*
X1619643D02*
Y1509344D01*
X1619643D02*
X1722893D01*
X1722893D02*
Y1508344D01*
X1722893D02*
X1619143D01*
X1619143D02*
Y1507344D01*
X1619143D02*
X1633643D01*
X1633643D02*
X1632643Y1506344D01*
X1632643D02*
X1619143D01*
X1619143D02*
Y1505344D01*
X1619143D02*
X1632393D01*
X1632393D02*
Y1504344D01*
X1632393D02*
X1619143D01*
X1619143D02*
Y1503344D01*
X1619143D02*
X1632393D01*
X1632393D02*
Y1502344D01*
X1632393D02*
X1619143D01*
X1619143D02*
Y1501344D01*
X1619143D02*
X1632393D01*
X1632393D02*
Y1500344D01*
X1632393D02*
X1619143D01*
X1619143D02*
Y1499344D01*
X1619143D02*
X1632393D01*
X1632393D02*
Y1498344D01*
X1632393D02*
X1619143D01*
X1619143D02*
Y1497344D01*
X1619143D02*
X1632393D01*
X1632393D02*
Y1496344D01*
X1632393D02*
X1619393D01*
X1619393D02*
Y1495344D01*
X1619393D02*
X1632143D01*
X1632143D02*
Y1494344D01*
X1632143D02*
X1619143D01*
X1619143D02*
Y1493344D01*
X1619143D02*
X1632143D01*
X1632143D02*
Y1492344D01*
X1632143D02*
X1619143D01*
X1619143D02*
Y1491344D01*
X1619143D02*
X1632393D01*
X1632393D02*
Y1490344D01*
X1632393D02*
X1619393D01*
X1619393D02*
Y1489344D01*
X1619393D02*
X1632143D01*
X1632143D02*
Y1488344D01*
X1632143D02*
X1619143D01*
X1619143D02*
Y1487344D01*
X1619143D02*
X1632143D01*
X1632143D02*
Y1486344D01*
X1632143D02*
X1619393D01*
X1619393D02*
Y1485344D01*
X1619393D02*
X1627893D01*
X1627893D02*
Y1484344D01*
X1627893D02*
X1619393D01*
X1619393D02*
Y1483344D01*
X1619393D02*
X1627643D01*
X1627643D02*
Y1482344D01*
X1627643D02*
X1619393D01*
X1619393D02*
Y1481344D01*
X1619393D02*
X1627643D01*
X1627643D02*
Y1480344D01*
X1627643D02*
X1619393D01*
X1619393D02*
Y1479344D01*
X1619393D02*
X1627643D01*
X1627643D02*
Y1478344D01*
X1627643D02*
X1619393D01*
X1619393D02*
Y1477344D01*
X1619393D02*
X1627643D01*
X1627643D02*
Y1476344D01*
X1627643D02*
X1619393D01*
X1619393D02*
Y1475344D01*
X1619393D02*
X1627893D01*
X1627893D02*
Y1474344D01*
X1627893D02*
X1619393D01*
X1619393D02*
Y1473344D01*
X1619393D02*
X1628143D01*
X1628143D02*
X1628893Y1472594D01*
X1628893D02*
X1629643D01*
X1629643D02*
X1629893Y1472344D01*
X1629893D02*
X1619393D01*
X1619393D02*
Y1471344D01*
X1619393D02*
X1631893D01*
X1631893D02*
Y1470344D01*
X1631893D02*
X1619393D01*
X1619393D02*
Y1469344D01*
X1619393D02*
X1631893D01*
X1631893D02*
Y1468344D01*
X1631893D02*
X1619393D01*
X1619393D02*
Y1467344D01*
X1619393D02*
X1632143D01*
X1632143D02*
Y1466344D01*
X1632143D02*
X1619143D01*
X1619143D02*
Y1465344D01*
X1619143D02*
X1632393D01*
X1632393D02*
Y1464344D01*
X1632393D02*
X1619143D01*
X1619143D02*
Y1463344D01*
X1619143D02*
X1632393D01*
X1632393D02*
Y1462344D01*
X1632393D02*
X1619393D01*
X1619393D02*
Y1461344D01*
X1619393D02*
X1632143D01*
X1632143D02*
Y1460594D01*
X1632143D02*
X1630143D01*
X1630143D02*
X1629893Y1460344D01*
X1629893D02*
X1619393D01*
X1619393D02*
Y1459344D01*
X1619393D02*
X1628143D01*
X1628143D02*
X1627643Y1458344D01*
X1627643D02*
X1619393D01*
X1619393D02*
Y1457344D01*
X1619393D02*
X1627643D01*
X1627643D02*
Y1456344D01*
X1627643D02*
X1619393D01*
X1619393D02*
Y1455344D01*
X1619393D02*
X1627643D01*
X1627643D02*
Y1454344D01*
X1627643D02*
X1619393D01*
X1619393D02*
Y1453344D01*
X1619393D02*
X1627643D01*
X1627643D02*
Y1452344D01*
X1627643D02*
X1619393D01*
X1619393D02*
Y1451344D01*
X1619393D02*
X1627643D01*
X1627643D02*
Y1450344D01*
X1627643D02*
X1619393D01*
X1619393D02*
Y1449344D01*
X1619393D02*
X1627643D01*
X1627643D02*
Y1448344D01*
X1627643D02*
X1619393D01*
X1619393D02*
Y1447344D01*
X1619393D02*
X1628143D01*
X1628143D02*
X1629143Y1446344D01*
X1629143D02*
X1619393D01*
X1619393D02*
Y1445344D01*
X1619393D02*
X1631893D01*
X1631893D02*
Y1444344D01*
X1631893D02*
X1619393D01*
X1619393D02*
Y1443344D01*
X1619393D02*
X1632143D01*
X1632143D02*
Y1442344D01*
X1632143D02*
X1619393D01*
X1619393D02*
Y1441344D01*
X1619393D02*
X1632143D01*
X1632143D02*
Y1440344D01*
X1632143D02*
X1619393D01*
X1619393D02*
Y1439344D01*
X1619393D02*
X1632143D01*
X1632143D02*
Y1438344D01*
X1632143D02*
X1619393D01*
X1619393D02*
Y1437344D01*
X1619393D02*
X1632143D01*
X1632143D02*
Y1436344D01*
X1632143D02*
X1619393D01*
X1619393D02*
Y1435344D01*
X1619393D02*
X1632143D01*
X1632143D02*
Y1434844D01*
X1632143D02*
X1629893D01*
X1629893D02*
X1629393Y1434344D01*
X1629393D02*
X1619393D01*
X1619393D02*
Y1433344D01*
X1619393D02*
X1628143D01*
X1628143D02*
X1627643Y1432344D01*
X1627643D02*
X1619393D01*
X1619393D02*
Y1431344D01*
X1619393D02*
X1627643D01*
X1627643D02*
Y1430344D01*
X1627643D02*
X1619393D01*
X1619393D02*
Y1429344D01*
X1619393D02*
X1627643D01*
X1627643D02*
Y1428344D01*
X1627643D02*
X1619393D01*
X1619393D02*
Y1427344D01*
X1619393D02*
X1627643D01*
X1627643D02*
Y1426344D01*
X1627643D02*
X1619393D01*
X1619393D02*
Y1425344D01*
X1619393D02*
X1627643D01*
X1627643D02*
Y1424344D01*
X1627643D02*
X1619393D01*
X1619393D02*
Y1423344D01*
X1619393D02*
X1627643D01*
X1627643D02*
Y1422344D01*
X1627643D02*
X1619393D01*
X1619393D02*
Y1421344D01*
X1619393D02*
X1628643D01*
X1628643D02*
X1629643Y1420344D01*
X1629643D02*
X1619393D01*
X1619393D02*
Y1419344D01*
X1619393D02*
X1722893D01*
X1722893D02*
X1722643Y1418344D01*
X1722643D02*
X1619643D01*
X1619643D02*
X1620143Y1417344D01*
X1620143D02*
X1722143D01*
X1722143D02*
X1721643Y1416344D01*
X1721643D02*
X1620393D01*
X1620393D02*
X1621143Y1415344D01*
X1621143D02*
X1721143D01*
X1721143D02*
X1720393Y1414344D01*
X1720393D02*
X1621893D01*
X1621893D02*
X1623393Y1413344D01*
X1623393D02*
X1718643D01*
X1718643D02*
X1716643Y1412344D01*
X1716643D02*
X1625643D01*
X1625643D02*
Y1515344D01*
X1625643D02*
X1716643D01*
X1716643D02*
X1719143Y1514344D01*
X1639643Y1420344D02*
X1655643D01*
X1655643D02*
X1654143Y1421344D01*
X1654143D02*
X1641143D01*
X1641143D02*
X1641893Y1422344D01*
X1641893D02*
X1653143D01*
X1653143D02*
Y1423344D01*
X1653143D02*
X1642143D01*
X1642143D02*
Y1424344D01*
X1642143D02*
X1653143D01*
X1653143D02*
Y1425344D01*
X1653143D02*
X1642143D01*
X1642143D02*
Y1426344D01*
X1642143D02*
X1653143D01*
X1653143D02*
Y1427344D01*
X1653143D02*
X1642393D01*
X1642393D02*
Y1428344D01*
X1642393D02*
X1653143D01*
X1653143D02*
Y1429344D01*
X1653143D02*
X1642143D01*
X1642143D02*
Y1430344D01*
X1642143D02*
X1653143D01*
X1653143D02*
Y1431344D01*
X1653143D02*
X1642143D01*
X1642143D02*
X1643143Y1432344D01*
X1643143D02*
X1653143D01*
X1653143D02*
X1653643Y1433344D01*
X1653643D02*
X1644143D01*
X1644143D02*
X1645143Y1434344D01*
X1645143D02*
X1666393D01*
X1666393D02*
X1667393Y1433344D01*
X1667393D02*
Y1430344D01*
X1667393D02*
X1679143D01*
X1679143D02*
Y1431344D01*
X1679143D02*
X1667893D01*
X1667893D02*
Y1432344D01*
X1667893D02*
X1679143D01*
X1679143D02*
Y1433344D01*
X1679143D02*
X1667893D01*
X1667893D02*
X1666893Y1434344D01*
X1666893D02*
X1692143D01*
X1692143D02*
X1693143Y1433344D01*
X1693143D02*
Y1430344D01*
X1693143D02*
X1706143D01*
X1706143D02*
X1705143Y1431344D01*
X1705143D02*
X1693893D01*
X1693893D02*
Y1432344D01*
X1693893D02*
X1703643D01*
X1703643D02*
X1702643Y1433344D01*
X1702643D02*
X1693643D01*
X1693643D02*
X1692643Y1434344D01*
X1692643D02*
X1701393D01*
X1701393D02*
X1700393Y1435344D01*
X1700393D02*
X1646143D01*
X1646143D02*
X1647143Y1436344D01*
X1647143D02*
X1699643D01*
X1699643D02*
X1698643Y1437344D01*
X1698643D02*
X1648143D01*
X1648143D02*
X1649143Y1438344D01*
X1649143D02*
X1697643D01*
X1697643D02*
X1696643Y1439344D01*
X1696643D02*
X1650143D01*
X1650143D02*
X1651143Y1440344D01*
X1651143D02*
X1695393D01*
X1695393D02*
X1694393Y1441344D01*
X1694393D02*
X1652393D01*
X1652393D02*
X1653393Y1442344D01*
X1653393D02*
X1693643D01*
X1693643D02*
X1692643Y1443344D01*
X1692643D02*
X1654393D01*
X1654393D02*
X1655393Y1444344D01*
X1655393D02*
X1691643D01*
X1691643D02*
X1690643Y1445344D01*
X1690643D02*
X1656393D01*
X1656393D02*
X1657393Y1446344D01*
X1657393D02*
X1681143D01*
X1681143D02*
X1680143Y1447344D01*
X1680143D02*
X1667143D01*
X1667143D02*
Y1448344D01*
X1667143D02*
X1679643D01*
X1679643D02*
Y1449344D01*
X1679643D02*
X1667643D01*
X1667643D02*
Y1450344D01*
X1667643D02*
X1679143D01*
X1679143D02*
Y1451344D01*
X1679143D02*
X1667643D01*
X1667643D02*
Y1452344D01*
X1667643D02*
X1679143D01*
X1679143D02*
Y1453344D01*
X1679143D02*
X1667643D01*
X1667643D02*
Y1454344D01*
X1667643D02*
X1679143D01*
X1679143D02*
Y1455344D01*
X1679143D02*
X1667643D01*
X1667643D02*
Y1456344D01*
X1667643D02*
X1679143D01*
X1679143D02*
Y1457344D01*
X1679143D02*
X1668143D01*
X1668143D02*
X1669143Y1458344D01*
X1669143D02*
X1677643D01*
X1677643D02*
X1676643Y1459344D01*
X1676643D02*
X1670393D01*
X1670393D02*
X1671393Y1460344D01*
X1671393D02*
X1675643D01*
X1675643D02*
X1674643Y1461344D01*
X1674643D02*
X1672143D01*
X1637393Y1499094D02*
Y1497344D01*
X1637393D02*
X1638643D01*
X1638643D02*
X1639643Y1496344D01*
X1639643D02*
X1637643D01*
X1637643D02*
Y1495344D01*
X1637643D02*
X1640643D01*
X1640643D02*
X1641643Y1494344D01*
X1641643D02*
X1637643D01*
X1637643D02*
Y1493344D01*
X1637643D02*
X1642393D01*
X1642393D02*
X1643393Y1492344D01*
X1643393D02*
X1637643D01*
X1637643D02*
Y1491344D01*
X1637643D02*
X1644393D01*
X1644393D02*
X1645393Y1490344D01*
X1645393D02*
X1637643D01*
X1637643D02*
Y1489344D01*
X1637643D02*
X1646393D01*
X1646393D02*
X1647393Y1488344D01*
X1647393D02*
X1637643D01*
X1637643D02*
Y1487344D01*
X1637643D02*
X1648393D01*
X1648393D02*
X1649393Y1486344D01*
X1649393D02*
X1640643D01*
X1640643D02*
X1641643Y1485344D01*
X1641643D02*
X1650393D01*
X1650393D02*
X1651393Y1484344D01*
X1651393D02*
X1642143D01*
X1642143D02*
Y1483344D01*
X1642143D02*
X1652143D01*
X1652143D02*
X1653143Y1482344D01*
X1653143D02*
X1642143D01*
X1642143D02*
Y1481344D01*
X1642143D02*
X1653143D01*
X1653143D02*
Y1480344D01*
X1653143D02*
X1642143D01*
X1642143D02*
Y1479344D01*
X1642143D02*
X1653393D01*
X1653393D02*
Y1478344D01*
X1653393D02*
X1642143D01*
X1642143D02*
Y1477344D01*
X1642143D02*
X1653143D01*
X1653143D02*
Y1476344D01*
X1653143D02*
X1642143D01*
X1642143D02*
Y1475344D01*
X1642143D02*
X1653143D01*
X1653143D02*
Y1474344D01*
X1653143D02*
X1641893D01*
X1641893D02*
X1641393Y1473344D01*
X1641393D02*
X1653643D01*
X1653643D02*
X1654643Y1472344D01*
X1654643D02*
X1637643D01*
X1637643D02*
Y1471344D01*
X1637643D02*
X1664643D01*
X1664643D02*
X1665643Y1470344D01*
X1665643D02*
X1637643D01*
X1637643D02*
Y1469344D01*
X1637643D02*
X1666393D01*
X1666393D02*
X1667393Y1468344D01*
X1667393D02*
X1637643D01*
X1637643D02*
Y1467344D01*
X1637643D02*
X1668643D01*
X1668643D02*
X1669643Y1466344D01*
X1669643D02*
X1637643D01*
X1637643D02*
Y1465344D01*
X1637643D02*
X1668393D01*
X1668393D02*
X1667393Y1464344D01*
X1667393D02*
X1637643D01*
X1637643D02*
Y1463344D01*
X1637643D02*
X1666643D01*
X1666643D02*
X1665643Y1462344D01*
X1665643D02*
X1637643D01*
X1637643D02*
Y1461344D01*
X1637643D02*
X1664643D01*
X1664643D02*
X1663643Y1460344D01*
X1663643D02*
X1640643D01*
X1640643D02*
X1641643Y1459344D01*
X1641643D02*
X1653643D01*
X1653643D02*
Y1458344D01*
X1653643D02*
X1642143D01*
X1642143D02*
Y1457344D01*
X1642143D02*
X1653143D01*
X1653143D02*
Y1456344D01*
X1653143D02*
X1642143D01*
X1642143D02*
Y1455344D01*
X1642143D02*
X1653143D01*
X1653143D02*
Y1454344D01*
X1653143D02*
X1642143D01*
X1642143D02*
Y1453344D01*
X1642143D02*
X1653143D01*
X1653143D02*
Y1452344D01*
X1653143D02*
X1642143D01*
X1642143D02*
Y1451344D01*
X1642143D02*
X1653143D01*
X1653143D02*
Y1450344D01*
X1653143D02*
X1642143D01*
X1642143D02*
Y1449344D01*
X1642143D02*
X1652643D01*
X1652643D02*
X1651643Y1448344D01*
X1651643D02*
X1642143D01*
X1642143D02*
X1641143Y1447344D01*
X1641143D02*
X1650643D01*
X1650643D02*
X1649643Y1446344D01*
X1649643D02*
X1637643D01*
X1637643D02*
Y1445344D01*
X1637643D02*
X1648643D01*
X1648643D02*
X1647643Y1444344D01*
X1647643D02*
X1637643D01*
X1637643D02*
Y1443344D01*
X1637643D02*
X1646643D01*
X1646643D02*
X1645643Y1442344D01*
X1645643D02*
X1637643D01*
X1637643D02*
Y1441344D01*
X1637643D02*
X1644643D01*
X1644643D02*
X1643643Y1440344D01*
X1643643D02*
X1637643D01*
X1637643D02*
Y1439344D01*
X1637643D02*
X1642643D01*
X1642643D02*
X1641643Y1438344D01*
X1641643D02*
X1637643D01*
X1637643D02*
Y1437344D01*
X1637643D02*
X1640643D01*
X1640643D02*
X1639643Y1436344D01*
X1639643D02*
X1637643D01*
X1637643D02*
Y1435344D01*
X1637643D02*
X1638643D01*
X1722643Y1507344D02*
X1636143D01*
X1636143D02*
X1637143Y1506344D01*
X1637143D02*
X1722643D01*
X1722643D02*
Y1505344D01*
X1722643D02*
X1638393D01*
X1638393D02*
X1639393Y1504344D01*
X1639393D02*
X1722643D01*
X1722643D02*
Y1503344D01*
X1722643D02*
X1640393D01*
X1640393D02*
X1641393Y1502344D01*
X1641393D02*
X1722643D01*
X1722643D02*
Y1501344D01*
X1722643D02*
X1642393D01*
X1642393D02*
X1643393Y1500344D01*
X1643393D02*
X1722643D01*
X1722643D02*
Y1499344D01*
X1722643D02*
X1644393D01*
X1644393D02*
X1645393Y1498344D01*
X1645393D02*
X1722643D01*
X1722643D02*
Y1497344D01*
X1722643D02*
X1646143D01*
X1646143D02*
X1647143Y1496344D01*
X1647143D02*
X1722643D01*
X1722643D02*
Y1495344D01*
X1722643D02*
X1648143D01*
X1648143D02*
X1649143Y1494344D01*
X1649143D02*
X1722643D01*
X1722643D02*
Y1493344D01*
X1722643D02*
X1650143D01*
X1650143D02*
X1651143Y1492344D01*
X1651143D02*
X1722893D01*
X1722893D02*
Y1491344D01*
X1722893D02*
X1652143D01*
X1652143D02*
X1653143Y1490344D01*
X1653143D02*
X1722893D01*
X1722893D02*
Y1489344D01*
X1722893D02*
X1654143D01*
X1654143D02*
X1655143Y1488344D01*
X1655143D02*
X1722893D01*
X1722893D02*
Y1487344D01*
X1722893D02*
X1656143D01*
X1656143D02*
X1657143Y1486344D01*
X1657143D02*
X1680643D01*
X1680643D02*
X1679643Y1485344D01*
X1679643D02*
X1667143D01*
X1667143D02*
Y1484344D01*
X1667143D02*
X1679393D01*
X1679393D02*
Y1483344D01*
X1679393D02*
X1667643D01*
X1667643D02*
Y1482344D01*
X1667643D02*
X1679143D01*
X1679143D02*
Y1481344D01*
X1679143D02*
X1667643D01*
X1667643D02*
Y1480344D01*
X1667643D02*
X1679143D01*
X1679143D02*
Y1479344D01*
X1679143D02*
X1667643D01*
X1667643D02*
Y1478344D01*
X1667643D02*
X1679143D01*
X1679143D02*
Y1477344D01*
X1679143D02*
X1667643D01*
X1667643D02*
Y1476344D01*
X1667643D02*
X1679143D01*
X1679143D02*
Y1476094D01*
X1679143D02*
X1678393Y1475344D01*
X1678393D02*
X1668393D01*
X1668393D02*
X1669393Y1474344D01*
X1669393D02*
X1677393D01*
X1677393D02*
X1676393Y1473344D01*
X1676393D02*
X1670143D01*
X1670143D02*
X1671143Y1472344D01*
X1671143D02*
X1675643D01*
X1675643D02*
X1674643Y1471344D01*
X1674643D02*
X1672393D01*
X1672393D02*
X1673393Y1470344D01*
X1668143Y1424344D02*
X1678643D01*
X1678643D02*
Y1423344D01*
X1678643D02*
X1667893D01*
X1667893D02*
Y1422344D01*
X1667893D02*
X1679143D01*
X1679143D02*
X1680143Y1421344D01*
X1680143D02*
X1667143D01*
X1667143D02*
X1666143Y1420344D01*
X1666143D02*
X1722643D01*
X1722643D02*
Y1421344D01*
X1722643D02*
X1692893D01*
X1692893D02*
X1693393Y1422344D01*
X1693393D02*
X1722643D01*
X1722643D02*
Y1423344D01*
X1722643D02*
X1693643D01*
X1693643D02*
Y1424344D01*
X1693643D02*
X1722643D01*
X1722643D02*
Y1425344D01*
X1722643D02*
X1714143D01*
X1714143D02*
Y1426344D01*
X1714143D02*
X1722643D01*
X1722643D02*
Y1427344D01*
X1722643D02*
X1714893D01*
X1714893D02*
Y1428344D01*
X1714893D02*
X1722643D01*
X1722643D02*
Y1429344D01*
X1722643D02*
X1714143D01*
X1714143D02*
X1713143Y1430344D01*
X1713143D02*
X1722643D01*
X1722643D02*
Y1431344D01*
X1722643D02*
X1712393D01*
X1712393D02*
X1711393Y1432344D01*
X1711393D02*
X1722643D01*
X1722643D02*
Y1433344D01*
X1722643D02*
X1710643D01*
X1710643D02*
X1709643Y1434344D01*
X1709643D02*
X1722643D01*
X1722643D02*
Y1435344D01*
X1722643D02*
X1708643D01*
X1708643D02*
X1707643Y1436344D01*
X1707643D02*
X1722643D01*
X1722643D02*
Y1437344D01*
X1722643D02*
X1706643D01*
X1706643D02*
X1705643Y1438344D01*
X1705643D02*
X1722643D01*
X1722643D02*
Y1439344D01*
X1722643D02*
X1704643D01*
X1704643D02*
X1703643Y1440344D01*
X1703643D02*
X1722643D01*
X1722643D02*
Y1441344D01*
X1722643D02*
X1702643D01*
X1702643D02*
X1701643Y1442344D01*
X1701643D02*
X1722643D01*
X1722643D02*
Y1443344D01*
X1722643D02*
X1700143D01*
X1700143D02*
X1699143Y1444344D01*
X1699143D02*
X1722643D01*
X1722643D02*
Y1445344D01*
X1722643D02*
X1698143D01*
X1698143D02*
X1697143Y1446344D01*
X1697143D02*
X1722643D01*
X1722643D02*
Y1447344D01*
X1722643D02*
X1696143D01*
X1696143D02*
X1695143Y1448344D01*
X1695143D02*
X1722643D01*
X1722643D02*
Y1449344D01*
X1722643D02*
X1694643D01*
X1694643D02*
X1693643Y1450344D01*
X1693643D02*
X1722643D01*
X1722643D02*
Y1451344D01*
X1722643D02*
X1693643D01*
X1693643D02*
Y1452344D01*
X1693643D02*
X1722893D01*
X1722893D02*
Y1453344D01*
X1722893D02*
X1693643D01*
X1693643D02*
Y1454344D01*
X1693643D02*
X1723143D01*
X1723143D02*
Y1455344D01*
X1723143D02*
X1693643D01*
X1693643D02*
Y1456344D01*
X1693643D02*
X1722893D01*
X1722893D02*
Y1457344D01*
X1722893D02*
X1693643D01*
X1693643D02*
Y1458344D01*
X1693643D02*
X1722893D01*
X1722893D02*
Y1459344D01*
X1722893D02*
X1693143D01*
X1693143D02*
X1692143Y1460344D01*
X1692143D02*
X1722893D01*
X1722893D02*
Y1461344D01*
X1722893D02*
X1682393D01*
X1682393D02*
X1681393Y1462344D01*
X1681393D02*
X1722893D01*
X1722893D02*
Y1463344D01*
X1722893D02*
X1680643D01*
X1680643D02*
X1679643Y1464344D01*
X1679643D02*
X1722893D01*
X1722893D02*
Y1465344D01*
X1722893D02*
X1678393D01*
X1678393D02*
X1677393Y1466344D01*
X1677393D02*
X1722893D01*
X1722893D02*
Y1467344D01*
X1722893D02*
X1677893D01*
X1677893D02*
X1678893Y1468344D01*
X1678893D02*
X1722893D01*
X1722893D02*
Y1469344D01*
X1722893D02*
X1679893D01*
X1679893D02*
X1680893Y1470344D01*
X1680893D02*
X1722893D01*
X1722893D02*
Y1471344D01*
X1722893D02*
X1681643D01*
X1681643D02*
X1682643Y1472344D01*
X1682643D02*
X1722893D01*
X1722893D02*
Y1473344D01*
X1722893D02*
X1693143D01*
X1693143D02*
Y1474344D01*
X1693143D02*
X1722893D01*
X1722893D02*
Y1475344D01*
X1722893D02*
X1693643D01*
X1693643D02*
Y1476344D01*
X1693643D02*
X1722893D01*
X1722893D02*
Y1477344D01*
X1722893D02*
X1693643D01*
X1693643D02*
Y1478344D01*
X1693643D02*
X1722893D01*
X1722893D02*
Y1479344D01*
X1722893D02*
X1693643D01*
X1693643D02*
Y1480344D01*
X1693643D02*
X1722893D01*
X1722893D02*
Y1481344D01*
X1722893D02*
X1693643D01*
X1693643D02*
Y1482344D01*
X1693643D02*
X1722893D01*
X1722893D02*
Y1483344D01*
X1722893D02*
X1693643D01*
X1693643D02*
Y1484344D01*
X1693643D02*
X1722893D01*
X1722893D02*
Y1485344D01*
X1722893D02*
X1693393D01*
X1693393D02*
X1692393Y1486344D01*
X1692393D02*
X1722893D01*
G54D105*
X1648749Y1968450D03*
X981499Y2131600D03*
G54D106*
X960999Y1688000D03*
Y2388000D03*
X1740999D03*
Y1688000D03*
X1990999Y2188000D03*
G54D112*
X952999Y1837600D03*
Y1888400D03*
X902199Y1837600D03*
Y1888400D03*
G54D134*
X1715954Y1252375D02*
X1717317Y1254250D01*
X1717317D02*
X1719363Y1255187D01*
X1719363D02*
X1722090D01*
X1722090D02*
X1724136Y1254250D01*
X1725499Y1252375*
X1725499D02*
Y1250500D01*
X1725499D02*
X1724817Y1248625D01*
X1724817D02*
X1724136Y1247687D01*
X1724136D02*
X1722772Y1246750D01*
X1718681Y1244875*
X1717317Y1243937*
X1717317D02*
X1716636Y1243000D01*
X1715954Y1241125*
Y1238312*
X1715954D02*
X1717317Y1236437D01*
X1717317D02*
X1719363Y1235500D01*
X1722090*
X1722090D02*
X1724136Y1236437D01*
X1724136D02*
X1725499Y1238312D01*
X1705727Y1255187D02*
X1707090Y1254250D01*
X1707090D02*
X1708454Y1252375D01*
X1709136Y1250500*
X1709817Y1247687*
X1709817D02*
Y1243000D01*
X1709817D02*
X1709136Y1240187D01*
X1709136D02*
X1708454Y1238312D01*
X1708454D02*
X1707090Y1236437D01*
X1707090D02*
X1705727Y1235500D01*
X1702999*
X1702999D02*
X1701636Y1236437D01*
X1701636D02*
X1700272Y1238312D01*
X1700272D02*
X1699590Y1240187D01*
X1699590D02*
X1698908Y1243000D01*
X1698908D02*
Y1247687D01*
X1698908D02*
X1699590Y1250500D01*
X1699590D02*
X1700272Y1252375D01*
X1701636Y1254250*
X1702999Y1255187*
X1702999D02*
X1705727D01*
X1692772D02*
Y1235500D01*
X1684590*
X1678454Y1255187D02*
Y1235500D01*
Y1255187D02*
X1673681D01*
X1673681D02*
X1671636Y1254250D01*
X1670272Y1252375*
X1669590Y1250500*
X1669590D02*
X1668908Y1247687D01*
X1668908D02*
Y1243000D01*
X1668908D02*
X1669590Y1240187D01*
X1669590D02*
X1670272Y1238312D01*
X1670272D02*
X1671636Y1236437D01*
X1671636D02*
X1673681Y1235500D01*
X1673681D02*
X1678454D01*
X1662772Y1255187D02*
Y1235500D01*
Y1255187D02*
X1653908D01*
X1662772Y1245812D02*
X1657318D01*
X1662772Y1235500D02*
X1653908D01*
X1647772Y1255187D02*
Y1235500D01*
Y1255187D02*
X1641636D01*
X1641636D02*
X1639590Y1254250D01*
X1639590D02*
X1638908Y1253312D01*
X1638908D02*
X1638227Y1251437D01*
X1638227D02*
Y1249562D01*
X1638227D02*
X1638908Y1247687D01*
X1638908D02*
X1639590Y1246750D01*
X1639590D02*
X1641636Y1245812D01*
X1641636D02*
X1647772D01*
X1642999D02*
X1638227Y1235500D01*
X1616409Y1255187D02*
Y1235500D01*
Y1255187D02*
X1610954Y1235500D01*
X1605499Y1255187D02*
X1610954Y1235500D01*
X1605499Y1255187D02*
Y1235500D01*
X1593909Y1255187D02*
X1599363Y1235500D01*
X1593909Y1255187D02*
X1588454Y1235500D01*
X1597318Y1242062D02*
X1590499D01*
X1572772Y1252375D02*
X1574136Y1254250D01*
X1576181Y1255187*
X1576181D02*
X1578909D01*
X1578909D02*
X1580954Y1254250D01*
X1580954D02*
X1582318Y1252375D01*
Y1250500*
X1581636Y1248625*
X1580954Y1247687*
X1580954D02*
X1579590Y1246750D01*
X1579590D02*
X1575500Y1244875D01*
X1574136Y1243937*
X1574136D02*
X1573454Y1243000D01*
X1573454D02*
X1572772Y1241125D01*
X1572772D02*
Y1238312D01*
X1572772D02*
X1574136Y1236437D01*
X1574136D02*
X1576181Y1235500D01*
X1576181D02*
X1578909D01*
X1580954Y1236437*
X1580954D02*
X1582318Y1238312D01*
X1566636Y1255187D02*
Y1235500D01*
X1557090Y1255187D02*
X1566636Y1242062D01*
X1563227Y1246750D02*
X1557090Y1235500D01*
X1530500Y1258937D02*
X1531863Y1257062D01*
X1531863D02*
X1533227Y1254250D01*
X1534591Y1250500*
X1535272Y1245812*
X1535272D02*
Y1242062D01*
X1535272D02*
X1534591Y1237375D01*
X1533227Y1233625*
X1531863Y1230812*
X1531863D02*
X1530500Y1228937D01*
X1524363Y1255187D02*
Y1235500D01*
X1524363D02*
X1516181D01*
X1504591Y1255187D02*
X1510045Y1235500D01*
X1504591Y1255187D02*
X1499136Y1235500D01*
X1508000Y1242062D02*
X1501182D01*
X1493000Y1255187D02*
X1487545Y1245812D01*
X1487545D02*
Y1235500D01*
X1482091Y1255187D02*
X1487545Y1245812D01*
X1475954Y1255187D02*
Y1235500D01*
Y1255187D02*
X1467091D01*
X1475954Y1245812D02*
X1470500D01*
X1475954Y1235500D02*
X1467091D01*
X1460954Y1255187D02*
Y1235500D01*
Y1255187D02*
X1454818D01*
X1454818D02*
X1452773Y1254250D01*
X1452091Y1253312*
X1452091D02*
X1451409Y1251437D01*
X1451409D02*
Y1249562D01*
X1451409D02*
X1452091Y1247687D01*
X1452091D02*
X1452773Y1246750D01*
X1454818Y1245812*
X1454818D02*
X1460954D01*
X1456182D02*
X1451409Y1235500D01*
X1422773Y1255187D02*
X1429591Y1242062D01*
X1429591D02*
X1419364D01*
X1422773Y1255187D02*
Y1235500D01*
X1413227Y1258937D02*
X1411864Y1257062D01*
X1411864D02*
X1410500Y1254250D01*
X1409136Y1250500*
X1409136D02*
X1408454Y1245812D01*
X1408454D02*
Y1242062D01*
X1408454D02*
X1409136Y1237375D01*
X1409136D02*
X1410500Y1233625D01*
X1411864Y1230812*
X1411864D02*
X1413227Y1228937D01*
X1795499Y1255187D02*
Y1235500D01*
Y1255187D02*
X1786635D01*
X1795499Y1245812D02*
X1790045D01*
X1780499Y1255187D02*
X1779817Y1254250D01*
X1779817D02*
X1779135Y1255187D01*
X1779135D02*
X1779817Y1256125D01*
X1779817D02*
X1780499Y1255187D01*
X1779817Y1248625D02*
Y1235500D01*
X1772999Y1255187D02*
Y1235500D01*
X1766863Y1248625D02*
Y1235500D01*
Y1244875D02*
X1764817Y1247687D01*
X1764817D02*
X1763454Y1248625D01*
X1761408*
X1761408D02*
X1760045Y1247687D01*
X1760045D02*
X1759363Y1244875D01*
Y1235500*
Y1244875D02*
X1757317Y1247687D01*
X1757317D02*
X1755954Y1248625D01*
X1753908*
X1753908D02*
X1752545Y1247687D01*
X1752545D02*
X1751863Y1244875D01*
Y1235500*
X1745045Y1248625D02*
X1745726Y1247687D01*
X1745726D02*
X1745045Y1246750D01*
X1744363Y1247687*
X1744363D02*
X1745045Y1248625D01*
Y1237375D02*
X1745726Y1236437D01*
X1745726D02*
X1745045Y1235500D01*
X1744363Y1236437*
X1744363D02*
X1745045Y1237375D01*
X1315500Y1277189D02*
Y1257501D01*
Y1277189D02*
X1309364D01*
X1307318Y1276251*
X1307318D02*
X1306636Y1275314D01*
X1306636D02*
X1305955Y1273439D01*
Y1271564*
X1306636Y1269689*
X1306636D02*
X1307318Y1268751D01*
X1307318D02*
X1309364Y1267814D01*
X1315500*
X1310727D02*
X1305955Y1257501D01*
X1299818Y1277189D02*
Y1257501D01*
Y1277189D02*
X1290955D01*
X1299818Y1267814D02*
X1294364D01*
X1299818Y1257501D02*
X1290955D01*
X1284818Y1277189D02*
X1279364Y1257501D01*
X1273909Y1277189D02*
X1279364Y1257501D01*
X1267091Y1270626D02*
X1267773Y1269689D01*
X1267091Y1268751*
X1267091D02*
X1266409Y1269689D01*
X1266409D02*
X1267091Y1270626D01*
Y1259376D02*
X1267773Y1258439D01*
X1267091Y1257501*
X1267091D02*
X1266409Y1258439D01*
X1266409D02*
X1267091Y1259376D01*
X1790045Y1300188D02*
X1795499Y1280501D01*
X1790045Y1300188D02*
X1784590Y1280501D01*
X1793454Y1287063D02*
X1786635D01*
X1778454Y1293626D02*
Y1280501D01*
Y1288001D02*
X1777772Y1290813D01*
X1777772D02*
X1776408Y1292688D01*
X1776408D02*
X1775045Y1293626D01*
X1772999*
X1764817Y1300188D02*
Y1284251D01*
X1764817D02*
X1764135Y1281438D01*
X1764135D02*
X1762772Y1280501D01*
X1761408*
X1766863Y1293626D02*
X1762090D01*
X1755272D02*
X1752545Y1280501D01*
X1749817Y1293626D02*
X1752545Y1280501D01*
X1749817Y1293626D02*
X1747090Y1280501D01*
X1744363Y1293626D02*
X1747090Y1280501D01*
X1734817Y1293626D02*
X1736181Y1292688D01*
X1736181D02*
X1737545Y1290813D01*
X1737545D02*
X1738226Y1288001D01*
X1738226D02*
Y1286126D01*
X1738226D02*
X1737545Y1283313D01*
X1737545D02*
X1736181Y1281438D01*
X1736181D02*
X1734817Y1280501D01*
X1734817D02*
X1732772D01*
X1731408Y1281438*
X1731408D02*
X1730045Y1283313D01*
X1730045D02*
X1729363Y1286126D01*
Y1288001*
X1730045Y1290813*
X1730045D02*
X1731408Y1292688D01*
X1731408D02*
X1732772Y1293626D01*
X1734817*
X1723226D02*
Y1280501D01*
Y1288001D02*
X1722545Y1290813D01*
X1722545D02*
X1721181Y1292688D01*
X1721181D02*
X1719817Y1293626D01*
X1719817D02*
X1717772D01*
X1711636Y1300188D02*
Y1280501D01*
X1704817Y1293626D02*
X1711636Y1284251D01*
X1708908Y1288001D02*
X1704136Y1280501D01*
X1682317Y1300188D02*
Y1280501D01*
Y1300188D02*
X1672772Y1280501D01*
Y1300188D02*
Y1280501D01*
X1663227Y1293626D02*
X1664590Y1292688D01*
X1664590D02*
X1665954Y1290813D01*
X1665954D02*
X1666636Y1288001D01*
Y1286126*
X1665954Y1283313*
X1665954D02*
X1664590Y1281438D01*
X1664590D02*
X1663227Y1280501D01*
X1661181*
X1661181D02*
X1659818Y1281438D01*
X1659818D02*
X1658454Y1283313D01*
X1658454D02*
X1657772Y1286126D01*
X1657772D02*
Y1288001D01*
X1657772D02*
X1658454Y1290813D01*
X1658454D02*
X1659818Y1292688D01*
X1659818D02*
X1661181Y1293626D01*
X1661181D02*
X1663227D01*
X1650954D02*
X1651636Y1292688D01*
X1651636D02*
X1650954Y1291751D01*
X1650272Y1292688*
X1650272D02*
X1650954Y1293626D01*
Y1282376D02*
X1651636Y1281438D01*
X1651636D02*
X1650954Y1280501D01*
X1650272Y1281438*
X1650272D02*
X1650954Y1282376D01*
X1790726Y1390188D02*
Y1370501D01*
X1795499Y1390188D02*
X1785954D01*
X1779817D02*
X1779135Y1389251D01*
X1779135D02*
X1778454Y1390188D01*
X1778454D02*
X1779135Y1391126D01*
X1779135D02*
X1779817Y1390188D01*
X1779135Y1383626D02*
Y1370501D01*
X1770272Y1390188D02*
Y1374251D01*
X1769590Y1371438*
X1769590D02*
X1768226Y1370501D01*
X1768226D02*
X1766863D01*
X1772317Y1383626D02*
X1767545D01*
X1760726Y1390188D02*
Y1370501D01*
X1754590Y1378001D02*
X1746408D01*
X1746408D02*
Y1379876D01*
X1746408D02*
X1747090Y1381751D01*
X1747090D02*
X1747772Y1382688D01*
X1747772D02*
X1749136Y1383626D01*
X1751181*
X1752545Y1382688*
X1752545D02*
X1753908Y1380813D01*
X1753908D02*
X1754590Y1378001D01*
X1754590D02*
Y1376126D01*
X1754590D02*
X1753908Y1373313D01*
X1753908D02*
X1752545Y1371438D01*
X1752545D02*
X1751181Y1370501D01*
X1749136*
X1747772Y1371438*
X1747772D02*
X1746408Y1373313D01*
X1739590Y1383626D02*
X1740272Y1382688D01*
X1740272D02*
X1739590Y1381751D01*
X1739590D02*
X1738908Y1382688D01*
X1738908D02*
X1739590Y1383626D01*
Y1372376D02*
X1740272Y1371438D01*
X1740272D02*
X1739590Y1370501D01*
X1739590D02*
X1738908Y1371438D01*
X1738908D02*
X1739590Y1372376D01*
X1795499Y1345187D02*
Y1325499D01*
Y1345187D02*
X1789363D01*
X1787317Y1344249*
X1787317D02*
X1786635Y1343312D01*
X1786635D02*
X1785954Y1341437D01*
Y1338624*
X1785954D02*
X1786635Y1336749D01*
X1786635D02*
X1787317Y1335812D01*
X1787317D02*
X1789363Y1334874D01*
X1789363D02*
X1795499D01*
X1771635Y1338624D02*
Y1325499D01*
Y1335812D02*
X1772999Y1337687D01*
X1772999D02*
X1774363Y1338624D01*
X1774363D02*
X1776408D01*
X1776408D02*
X1777772Y1337687D01*
X1779135Y1335812*
X1779135D02*
X1779817Y1332999D01*
X1779817D02*
Y1331124D01*
X1779817D02*
X1779135Y1328312D01*
X1779135D02*
X1777772Y1326437D01*
X1776408Y1325499*
X1776408D02*
X1774363D01*
X1774363D02*
X1772999Y1326437D01*
X1772999D02*
X1771635Y1328312D01*
X1765499Y1338624D02*
Y1325499D01*
Y1332999D02*
X1764817Y1335812D01*
X1764817D02*
X1763454Y1337687D01*
X1762090Y1338624*
X1762090D02*
X1760045D01*
X1751863Y1345187D02*
Y1329249D01*
X1751863D02*
X1751181Y1326437D01*
X1749817Y1325499*
X1749817D02*
X1748454D01*
X1753908Y1338624D02*
X1749136D01*
X1726636Y1345187D02*
Y1325499D01*
Y1345187D02*
X1717090Y1325499D01*
Y1345187D02*
Y1325499D01*
X1707545Y1338624D02*
X1708908Y1337687D01*
X1708908D02*
X1710272Y1335812D01*
X1710954Y1332999*
X1710954D02*
Y1331124D01*
X1710954D02*
X1710272Y1328312D01*
X1708908Y1326437*
X1708908D02*
X1707545Y1325499D01*
X1707545D02*
X1705499D01*
X1705499D02*
X1704136Y1326437D01*
X1702772Y1328312*
X1702090Y1331124*
X1702090D02*
Y1332999D01*
X1702090D02*
X1702772Y1335812D01*
X1704136Y1337687*
X1705499Y1338624*
X1705499D02*
X1707545D01*
X1695272D02*
X1695954Y1337687D01*
X1695272Y1336749*
X1695272D02*
X1694590Y1337687D01*
X1694590D02*
X1695272Y1338624D01*
Y1327374D02*
X1695954Y1326437D01*
X1695272Y1325499*
X1695272D02*
X1694590Y1326437D01*
X1694590D02*
X1695272Y1327374D01*
X1325500Y1287501D02*
X1085498D01*
X1805499Y1162500D02*
X1085498D01*
X1565500Y1102500D02*
Y1222500D01*
X1805499D02*
X1085498D01*
X1805499Y1267501D02*
X1325500D01*
X1805499Y1312500D02*
X1325500D01*
Y1102500D02*
Y1358001D01*
X1806500Y1357501D02*
X1085498D01*
G54D135*
X1805499Y1402500D02*
X1085498D01*
Y1102500D02*
X1805499D01*
X1805499D02*
Y1523000D01*
X1085498*
Y1102500*
G54D136*
X1754817Y1129499D02*
Y1130437D01*
X1754817D02*
X1754136Y1132312D01*
X1753454Y1133249*
X1753454D02*
X1752090Y1134187D01*
X1752090D02*
X1749363D01*
X1747999Y1133249*
X1747999D02*
X1747317Y1132312D01*
X1747317D02*
X1746636Y1130437D01*
Y1128562*
X1747317Y1126687*
X1747317D02*
X1748681Y1123874D01*
X1748681D02*
X1755499Y1114499D01*
X1755499D02*
X1745954D01*
X1735726Y1134187D02*
X1737772Y1133249D01*
X1737772D02*
X1739136Y1130437D01*
X1739817Y1125749*
X1739817D02*
Y1122937D01*
X1739817D02*
X1739136Y1118249D01*
X1739136D02*
X1737772Y1115437D01*
X1735726Y1114499*
X1735726D02*
X1734363D01*
X1734363D02*
X1732317Y1115437D01*
X1732317D02*
X1730954Y1118249D01*
X1730954D02*
X1730272Y1122937D01*
Y1125749*
X1730272D02*
X1730954Y1130437D01*
X1732317Y1133249*
X1732317D02*
X1734363Y1134187D01*
X1735726*
X1723454Y1129499D02*
Y1130437D01*
X1722772Y1132312*
X1722090Y1133249*
X1722090D02*
X1720727Y1134187D01*
X1717999*
X1717999D02*
X1716636Y1133249D01*
X1716636D02*
X1715954Y1132312D01*
X1715272Y1130437*
Y1128562*
X1715954Y1126687*
X1717317Y1123874*
X1717317D02*
X1724136Y1114499D01*
X1724136D02*
X1714590D01*
X1701636Y1134187D02*
X1708454Y1121062D01*
X1698227*
X1701636Y1134187D02*
Y1114499D01*
X1692090Y1122937D02*
X1679818D01*
X1669590Y1134187D02*
X1671636Y1133249D01*
X1671636D02*
X1672999Y1130437D01*
X1672999D02*
X1673681Y1125749D01*
X1673681D02*
Y1122937D01*
X1673681D02*
X1672999Y1118249D01*
X1672999D02*
X1671636Y1115437D01*
X1669590Y1114499*
X1669590D02*
X1668227D01*
X1668227D02*
X1666181Y1115437D01*
X1666181D02*
X1664818Y1118249D01*
X1664818D02*
X1664136Y1122937D01*
Y1125749*
X1664136D02*
X1664818Y1130437D01*
X1666181Y1133249*
X1666181D02*
X1668227Y1134187D01*
X1669590*
X1657999Y1130437D02*
X1656636Y1131374D01*
X1656636D02*
X1654590Y1134187D01*
X1654590D02*
Y1114499D01*
X1648454Y1122937D02*
X1636181D01*
X1625954Y1134187D02*
X1628000Y1133249D01*
X1628000D02*
X1629363Y1130437D01*
X1629363D02*
X1630045Y1125749D01*
X1630045D02*
Y1122937D01*
X1629363Y1118249*
X1629363D02*
X1628000Y1115437D01*
X1625954Y1114499*
X1625954D02*
X1624591D01*
X1624591D02*
X1622545Y1115437D01*
X1622545D02*
X1621181Y1118249D01*
X1621181D02*
X1620500Y1122937D01*
Y1125749*
X1620500D02*
X1621181Y1130437D01*
X1621181D02*
X1622545Y1133249D01*
X1622545D02*
X1624591Y1134187D01*
X1625954*
X1605500Y1127624D02*
X1606181Y1124812D01*
X1606181D02*
X1607545Y1122937D01*
X1607545D02*
X1609591Y1121999D01*
X1609591D02*
X1610272D01*
X1610272D02*
X1612318Y1122937D01*
X1613681Y1124812*
X1613681D02*
X1614363Y1127624D01*
X1614363D02*
Y1128562D01*
X1614363D02*
X1613681Y1131374D01*
X1613681D02*
X1612318Y1133249D01*
X1612318D02*
X1610272Y1134187D01*
X1610272D02*
X1609591D01*
X1607545Y1133249*
X1607545D02*
X1606181Y1131374D01*
X1606181D02*
X1605500Y1127624D01*
X1605500D02*
Y1122937D01*
X1606181Y1118249*
X1606181D02*
X1607545Y1115437D01*
X1607545D02*
X1609591Y1114499D01*
X1609591D02*
X1610954D01*
X1610954D02*
X1613000Y1115437D01*
X1613681Y1117312*
X1514818Y1129499D02*
Y1130437D01*
X1514136Y1132312*
X1513454Y1133249*
X1513454D02*
X1512091Y1134187D01*
X1509363*
X1509363D02*
X1508000Y1133249D01*
X1508000D02*
X1507318Y1132312D01*
X1506636Y1130437*
Y1128562*
X1507318Y1126687*
X1508681Y1123874*
X1508681D02*
X1515500Y1114499D01*
X1515500D02*
X1505954D01*
X1495727Y1134187D02*
X1497772Y1133249D01*
X1497772D02*
X1499136Y1130437D01*
X1499818Y1125749*
X1499818D02*
Y1122937D01*
X1499136Y1118249*
X1499136D02*
X1497772Y1115437D01*
X1497772D02*
X1495727Y1114499D01*
X1495727D02*
X1494363D01*
X1494363D02*
X1492318Y1115437D01*
X1490954Y1118249*
X1490954D02*
X1490272Y1122937D01*
X1490272D02*
Y1125749D01*
X1490272D02*
X1490954Y1130437D01*
X1490954D02*
X1492318Y1133249D01*
X1492318D02*
X1494363Y1134187D01*
X1494363D02*
X1495727D01*
X1483454Y1129499D02*
Y1130437D01*
X1483454D02*
X1482772Y1132312D01*
X1482772D02*
X1482091Y1133249D01*
X1482091D02*
X1480727Y1134187D01*
X1478000*
X1476636Y1133249*
X1476636D02*
X1475954Y1132312D01*
X1475954D02*
X1475272Y1130437D01*
X1475272D02*
Y1128562D01*
X1475272D02*
X1475954Y1126687D01*
X1475954D02*
X1477318Y1123874D01*
X1477318D02*
X1484136Y1114499D01*
X1484136D02*
X1474591D01*
X1461636Y1134187D02*
X1468454Y1121062D01*
X1468454D02*
X1458227D01*
X1461636Y1134187D02*
Y1114499D01*
X1452091Y1122937D02*
X1439818D01*
X1429591Y1134187D02*
X1431636Y1133249D01*
X1431636D02*
X1433000Y1130437D01*
X1433682Y1125749*
X1433682D02*
Y1122937D01*
X1433000Y1118249*
X1433000D02*
X1431636Y1115437D01*
X1431636D02*
X1429591Y1114499D01*
X1429591D02*
X1428227D01*
X1428227D02*
X1426182Y1115437D01*
X1424818Y1118249*
X1424818D02*
X1424136Y1122937D01*
X1424136D02*
Y1125749D01*
X1424136D02*
X1424818Y1130437D01*
X1424818D02*
X1426182Y1133249D01*
X1426182D02*
X1428227Y1134187D01*
X1428227D02*
X1429591D01*
X1418000Y1130437D02*
X1416636Y1131374D01*
X1416636D02*
X1414591Y1134187D01*
Y1114499*
X1408455Y1122937D02*
X1396182D01*
X1385955Y1134187D02*
X1388000Y1133249D01*
X1388000D02*
X1389364Y1130437D01*
X1390046Y1125749*
X1390046D02*
Y1122937D01*
X1389364Y1118249*
X1389364D02*
X1388000Y1115437D01*
X1388000D02*
X1385955Y1114499D01*
X1385955D02*
X1384591D01*
X1384591D02*
X1382546Y1115437D01*
X1381182Y1118249*
X1381182D02*
X1380500Y1122937D01*
X1380500D02*
Y1125749D01*
X1380500D02*
X1381182Y1130437D01*
X1382546Y1133249*
X1382546D02*
X1384591Y1134187D01*
X1385955*
X1365500Y1127624D02*
X1366182Y1124812D01*
X1367546Y1122937*
X1369591Y1121999*
X1369591D02*
X1370273D01*
X1370273D02*
X1372318Y1122937D01*
X1372318D02*
X1373682Y1124812D01*
X1374364Y1127624*
X1374364D02*
Y1128562D01*
X1373682Y1131374*
X1373682D02*
X1372318Y1133249D01*
X1372318D02*
X1370273Y1134187D01*
X1369591*
X1367546Y1133249*
X1367546D02*
X1366182Y1131374D01*
X1366182D02*
X1365500Y1127624D01*
X1365500D02*
Y1122937D01*
X1365500D02*
X1366182Y1118249D01*
X1366182D02*
X1367546Y1115437D01*
X1369591Y1114499*
X1369591D02*
X1370955D01*
X1370955D02*
X1373000Y1115437D01*
X1373000D02*
X1373682Y1117312D01*
X1274818Y1129499D02*
Y1130437D01*
X1274818D02*
X1274136Y1132312D01*
X1274136D02*
X1273455Y1133249D01*
X1273455D02*
X1272091Y1134187D01*
X1269364*
X1268000Y1133249*
X1268000D02*
X1267318Y1132312D01*
X1267318D02*
X1266636Y1130437D01*
X1266636D02*
Y1128562D01*
X1266636D02*
X1267318Y1126687D01*
X1267318D02*
X1268682Y1123874D01*
X1268682D02*
X1275500Y1114499D01*
X1275500D02*
X1265955D01*
X1255727Y1134187D02*
X1257773Y1133249D01*
X1257773D02*
X1259137Y1130437D01*
X1259818Y1125749*
X1259818D02*
Y1122937D01*
X1259818D02*
X1259137Y1118249D01*
X1259137D02*
X1257773Y1115437D01*
X1255727Y1114499*
X1255727D02*
X1254364D01*
X1254364D02*
X1252318Y1115437D01*
X1252318D02*
X1250955Y1118249D01*
X1250955D02*
X1250273Y1122937D01*
Y1125749*
X1250273D02*
X1250955Y1130437D01*
X1252318Y1133249*
X1252318D02*
X1254364Y1134187D01*
X1255727*
X1243455Y1129499D02*
Y1130437D01*
X1242773Y1132312*
X1242091Y1133249*
X1242091D02*
X1240727Y1134187D01*
X1240727D02*
X1238000D01*
X1238000D02*
X1236637Y1133249D01*
X1236637D02*
X1235955Y1132312D01*
X1235273Y1130437*
Y1128562*
X1235955Y1126687*
X1237318Y1123874*
X1237318D02*
X1244137Y1114499D01*
X1244137D02*
X1234591D01*
X1221637Y1134187D02*
X1228455Y1121062D01*
X1218228*
X1221637Y1134187D02*
Y1114499D01*
X1212091Y1122937D02*
X1199819D01*
X1189591Y1134187D02*
X1191637Y1133249D01*
X1191637D02*
X1193000Y1130437D01*
X1193000D02*
X1193682Y1125749D01*
X1193682D02*
Y1122937D01*
X1193682D02*
X1193000Y1118249D01*
X1193000D02*
X1191637Y1115437D01*
X1189591Y1114499*
X1189591D02*
X1188228D01*
X1188228D02*
X1186182Y1115437D01*
X1186182D02*
X1184819Y1118249D01*
X1184819D02*
X1184137Y1122937D01*
Y1125749*
X1184137D02*
X1184819Y1130437D01*
X1186182Y1133249*
X1186182D02*
X1188228Y1134187D01*
X1189591*
X1178000Y1130437D02*
X1176637Y1131374D01*
X1176637D02*
X1174591Y1134187D01*
X1174591D02*
Y1114499D01*
X1168455Y1122937D02*
X1156182D01*
X1145955Y1134187D02*
X1148001Y1133249D01*
X1148001D02*
X1149364Y1130437D01*
X1149364D02*
X1150046Y1125749D01*
X1150046D02*
Y1122937D01*
X1149364Y1118249*
X1149364D02*
X1148001Y1115437D01*
X1145955Y1114499*
X1145955D02*
X1144591D01*
X1144591D02*
X1142546Y1115437D01*
X1141182Y1118249*
X1141182D02*
X1140501Y1122937D01*
Y1125749*
X1140501D02*
X1141182Y1130437D01*
X1141182D02*
X1142546Y1133249D01*
X1142546D02*
X1144591Y1134187D01*
X1144591D02*
X1145955D01*
X1125501Y1127624D02*
X1126182Y1124812D01*
X1126182D02*
X1127546Y1122937D01*
X1127546D02*
X1129592Y1121999D01*
X1129592D02*
X1130273D01*
X1130273D02*
X1132319Y1122937D01*
X1133682Y1124812*
X1133682D02*
X1134364Y1127624D01*
X1134364D02*
Y1128562D01*
X1134364D02*
X1133682Y1131374D01*
X1133682D02*
X1132319Y1133249D01*
X1132319D02*
X1130273Y1134187D01*
X1130273D02*
X1129592D01*
X1127546Y1133249*
X1127546D02*
X1126182Y1131374D01*
X1126182D02*
X1125501Y1127624D01*
X1125501D02*
Y1122937D01*
X1126182Y1118249*
X1126182D02*
X1127546Y1115437D01*
X1127546D02*
X1129592Y1114499D01*
X1129592D02*
X1130955D01*
X1130955D02*
X1133001Y1115437D01*
X1133682Y1117312*
X1308430Y1193112D02*
Y1178113D01*
X1309112Y1175300*
X1309112D02*
X1309793Y1174363D01*
X1309793D02*
X1311157Y1173425D01*
X1311157D02*
X1312521D01*
X1312521D02*
X1313884Y1174363D01*
X1313884D02*
X1314566Y1175300D01*
X1314566D02*
X1315248Y1178113D01*
Y1179988*
X1302293Y1180925D02*
X1294112D01*
Y1182800*
X1294793Y1184675*
X1294793D02*
X1295475Y1185613D01*
X1295475D02*
X1296839Y1186550D01*
X1298884*
X1298884D02*
X1300248Y1185613D01*
X1301612Y1183738*
X1302293Y1180925*
X1302293D02*
Y1179050D01*
X1302293D02*
X1301612Y1176238D01*
X1300248Y1174363*
X1298884Y1173425*
X1298884D02*
X1296839D01*
X1296839D02*
X1295475Y1174363D01*
X1295475D02*
X1294112Y1176238D01*
X1279794Y1186550D02*
Y1173425D01*
Y1183738D02*
X1281157Y1185613D01*
X1281157D02*
X1282521Y1186550D01*
X1284566*
X1284566D02*
X1285930Y1185613D01*
X1287293Y1183738*
X1287293D02*
X1287975Y1180925D01*
X1287975D02*
Y1179050D01*
X1287975D02*
X1287293Y1176238D01*
X1287293D02*
X1285930Y1174363D01*
X1284566Y1173425*
X1284566D02*
X1282521D01*
X1282521D02*
X1281157Y1174363D01*
X1281157D02*
X1279794Y1176238D01*
X1273657Y1186550D02*
Y1173425D01*
Y1182800D02*
X1271612Y1185613D01*
X1270248Y1186550*
X1270248D02*
X1268203D01*
X1266839Y1185613*
X1266157Y1182800*
X1266157D02*
Y1173425D01*
X1260021Y1181863D02*
X1247748D01*
X1241612Y1193112D02*
Y1173425D01*
Y1193112D02*
X1236157Y1173425D01*
X1230703Y1193112D02*
X1236157Y1173425D01*
X1230703Y1193112D02*
Y1173425D01*
X1216385Y1186550D02*
Y1173425D01*
Y1183738D02*
X1217748Y1185613D01*
X1217748D02*
X1219112Y1186550D01*
X1221157*
X1221157D02*
X1222521Y1185613D01*
X1223885Y1183738*
X1224566Y1180925*
X1224566D02*
Y1179050D01*
X1224566D02*
X1223885Y1176238D01*
X1222521Y1174363*
X1221157Y1173425*
X1221157D02*
X1219112D01*
X1219112D02*
X1217748Y1174363D01*
X1217748D02*
X1216385Y1176238D01*
X1210248Y1186550D02*
Y1173425D01*
Y1180925D02*
X1209566Y1183738D01*
X1209566D02*
X1208203Y1185613D01*
X1206839Y1186550*
X1206839D02*
X1204794D01*
X1190476Y1183738D02*
X1191839Y1185613D01*
X1191839D02*
X1193203Y1186550D01*
X1195248*
X1195248D02*
X1196612Y1185613D01*
X1197976Y1183738*
X1198657Y1180925*
X1198657D02*
Y1179050D01*
X1198657D02*
X1197976Y1176238D01*
X1196612Y1174363*
X1195248Y1173425*
X1195248D02*
X1193203D01*
X1193203D02*
X1191839Y1174363D01*
X1191839D02*
X1190476Y1176238D01*
X1168658Y1193112D02*
Y1173425D01*
Y1193112D02*
X1163885D01*
X1163885D02*
X1161839Y1192175D01*
X1161839D02*
X1160476Y1190300D01*
X1159794Y1188425*
X1159112Y1185613*
X1159112D02*
Y1180925D01*
X1159112D02*
X1159794Y1178113D01*
X1160476Y1176238*
X1161839Y1174363*
X1161839D02*
X1163885Y1173425D01*
X1163885D02*
X1168658D01*
X1152976Y1193112D02*
Y1173425D01*
Y1193112D02*
X1144112D01*
X1152976Y1183738D02*
X1147521D01*
X1152976Y1173425D02*
X1144112D01*
X1137976Y1193112D02*
Y1173425D01*
X1137976D02*
X1129794D01*
X1118203Y1193112D02*
X1123658Y1173425D01*
X1118203Y1193112D02*
X1112749Y1173425D01*
X1121612Y1179988D02*
X1114794D01*
X1097067Y1190300D02*
X1098431Y1192175D01*
X1100476Y1193112*
X1100476D02*
X1103203D01*
X1103203D02*
X1105249Y1192175D01*
X1106612Y1190300*
X1106612D02*
Y1188425D01*
X1106612D02*
X1105930Y1186550D01*
X1105930D02*
X1105249Y1185613D01*
X1103885Y1184675*
X1103885D02*
X1099794Y1182800D01*
X1099794D02*
X1098431Y1181863D01*
X1097749Y1180925*
X1097067Y1179050*
Y1176238*
X1098431Y1174363*
X1100476Y1173425*
X1100476D02*
X1103203D01*
X1103203D02*
X1105249Y1174363D01*
X1106612Y1176238*
X1549030Y1192762D02*
Y1177763D01*
X1549712Y1174950*
X1549712D02*
X1550393Y1174013D01*
X1550393D02*
X1551757Y1173075D01*
X1551757D02*
X1553121D01*
X1553121D02*
X1554484Y1174013D01*
X1554484D02*
X1555166Y1174950D01*
X1555166D02*
X1555848Y1177763D01*
Y1179638*
X1542893Y1180575D02*
X1534712D01*
Y1182450*
X1535393Y1184325*
X1535393D02*
X1536075Y1185263D01*
X1536075D02*
X1537439Y1186200D01*
X1539484*
X1539484D02*
X1540848Y1185263D01*
X1542212Y1183388*
X1542893Y1180575*
X1542893D02*
Y1178700D01*
X1542893D02*
X1542212Y1175888D01*
X1540848Y1174013*
X1539484Y1173075*
X1539484D02*
X1537439D01*
X1537439D02*
X1536075Y1174013D01*
X1536075D02*
X1534712Y1175888D01*
X1520394Y1186200D02*
Y1173075D01*
Y1183388D02*
X1521757Y1185263D01*
X1521757D02*
X1523121Y1186200D01*
X1525166*
X1525166D02*
X1526530Y1185263D01*
X1527893Y1183388*
X1527893D02*
X1528575Y1180575D01*
X1528575D02*
Y1178700D01*
X1528575D02*
X1527893Y1175888D01*
X1527893D02*
X1526530Y1174013D01*
X1525166Y1173075*
X1525166D02*
X1523121D01*
X1523121D02*
X1521757Y1174013D01*
X1521757D02*
X1520394Y1175888D01*
X1514257Y1186200D02*
Y1173075D01*
Y1182450D02*
X1512212Y1185263D01*
X1510848Y1186200*
X1510848D02*
X1508803D01*
X1507439Y1185263*
X1506757Y1182450*
X1506757D02*
Y1173075D01*
X1500621Y1181513D02*
X1488348D01*
X1482212Y1192762D02*
Y1173075D01*
Y1192762D02*
X1476757Y1173075D01*
X1471303Y1192762D02*
X1476757Y1173075D01*
X1471303Y1192762D02*
Y1173075D01*
X1456985Y1186200D02*
Y1173075D01*
Y1183388D02*
X1458348Y1185263D01*
X1458348D02*
X1459712Y1186200D01*
X1461757*
X1461757D02*
X1463121Y1185263D01*
X1464485Y1183388*
X1465166Y1180575*
X1465166D02*
Y1178700D01*
X1465166D02*
X1464485Y1175888D01*
X1463121Y1174013*
X1461757Y1173075*
X1461757D02*
X1459712D01*
X1459712D02*
X1458348Y1174013D01*
X1458348D02*
X1456985Y1175888D01*
X1450848Y1186200D02*
Y1173075D01*
Y1180575D02*
X1450166Y1183388D01*
X1450166D02*
X1448803Y1185263D01*
X1447439Y1186200*
X1447439D02*
X1445394D01*
X1431076Y1183388D02*
X1432439Y1185263D01*
X1432439D02*
X1433803Y1186200D01*
X1435848*
X1435848D02*
X1437212Y1185263D01*
X1438576Y1183388*
X1439257Y1180575*
X1439257D02*
Y1178700D01*
X1439257D02*
X1438576Y1175888D01*
X1437212Y1174013*
X1435848Y1173075*
X1435848D02*
X1433803D01*
X1433803D02*
X1432439Y1174013D01*
X1432439D02*
X1431076Y1175888D01*
X1409258Y1192762D02*
Y1173075D01*
Y1192762D02*
X1404485D01*
X1404485D02*
X1402439Y1191825D01*
X1402439D02*
X1401076Y1189950D01*
X1400394Y1188075*
X1399712Y1185263*
X1399712D02*
Y1180575D01*
X1399712D02*
X1400394Y1177763D01*
X1401076Y1175888*
X1402439Y1174013*
X1402439D02*
X1404485Y1173075D01*
X1404485D02*
X1409258D01*
X1393576Y1192762D02*
Y1173075D01*
Y1192762D02*
X1384712D01*
X1393576Y1183388D02*
X1388121D01*
X1393576Y1173075D02*
X1384712D01*
X1378576Y1192762D02*
Y1173075D01*
X1378576D02*
X1370394D01*
X1358803Y1192762D02*
X1364258Y1173075D01*
X1358803Y1192762D02*
X1353349Y1173075D01*
X1362212Y1179638D02*
X1355394D01*
X1337667Y1189950D02*
X1339031Y1191825D01*
X1341076Y1192762*
X1341076D02*
X1343803D01*
X1343803D02*
X1345849Y1191825D01*
X1347212Y1189950*
X1347212D02*
Y1188075D01*
X1347212D02*
X1346530Y1186200D01*
X1346530D02*
X1345849Y1185263D01*
X1344485Y1184325*
X1344485D02*
X1340394Y1182450D01*
X1340394D02*
X1339031Y1181513D01*
X1338349Y1180575*
X1337667Y1178700*
Y1175888*
X1339031Y1174013*
X1341076Y1173075*
X1341076D02*
X1343803D01*
X1343803D02*
X1345849Y1174013D01*
X1347212Y1175888*
X1755499Y1194186D02*
X1752090Y1174499D01*
X1748681Y1194186D02*
X1752090Y1174499D01*
X1748681Y1194186D02*
X1745272Y1174499D01*
X1741863Y1194186D02*
X1745272Y1174499D01*
X1727545Y1187624D02*
Y1174499D01*
Y1184811D02*
X1728908Y1186686D01*
X1728908D02*
X1730272Y1187624D01*
X1732317*
X1732317D02*
X1733681Y1186686D01*
X1733681D02*
X1735045Y1184811D01*
X1735045D02*
X1735726Y1181999D01*
X1735726D02*
Y1180124D01*
X1735726D02*
X1735045Y1177312D01*
X1733681Y1175437*
X1732317Y1174499*
X1732317D02*
X1730272D01*
X1728908Y1175437*
X1728908D02*
X1727545Y1177312D01*
X1713227Y1187624D02*
Y1167937D01*
Y1184811D02*
X1714590Y1186686D01*
X1714590D02*
X1715954Y1187624D01*
X1717999*
X1717999D02*
X1719363Y1186686D01*
X1719363D02*
X1720727Y1184811D01*
X1720727D02*
X1721408Y1181999D01*
X1721408D02*
Y1180124D01*
X1721408D02*
X1720727Y1177312D01*
X1719363Y1175437*
X1717999Y1174499*
X1717999D02*
X1715954D01*
X1714590Y1175437*
X1714590D02*
X1713227Y1177312D01*
X1698908Y1187624D02*
Y1174499D01*
Y1184811D02*
X1700272Y1186686D01*
X1700272D02*
X1701636Y1187624D01*
X1703681*
X1703681D02*
X1705045Y1186686D01*
X1705045D02*
X1706408Y1184811D01*
X1706408D02*
X1707090Y1181999D01*
X1707090D02*
Y1180124D01*
X1707090D02*
X1706408Y1177312D01*
X1706408D02*
X1705045Y1175437D01*
X1703681Y1174499*
X1703681D02*
X1701636D01*
X1700272Y1175437*
X1700272D02*
X1698908Y1177312D01*
X1685272Y1184811D02*
X1685954Y1186686D01*
X1685954D02*
X1687999Y1187624D01*
X1687999D02*
X1690045D01*
X1692090Y1186686*
X1692090D02*
X1692772Y1184811D01*
X1692772D02*
X1692090Y1182936D01*
X1692090D02*
X1690727Y1181999D01*
X1687318Y1181061*
X1687318D02*
X1685954Y1180124D01*
X1685272Y1178249*
X1685272D02*
Y1177312D01*
X1685272D02*
X1685954Y1175437D01*
X1687999Y1174499*
X1687999D02*
X1690045D01*
X1692090Y1175437*
X1692090D02*
X1692772Y1177312D01*
X1663454Y1194186D02*
Y1174499D01*
Y1194186D02*
X1653909Y1174499D01*
Y1194186D02*
Y1174499D01*
X1639590Y1187624D02*
Y1174499D01*
Y1184811D02*
X1640954Y1186686D01*
X1640954D02*
X1642318Y1187624D01*
X1644363*
X1644363D02*
X1645727Y1186686D01*
X1645727D02*
X1647090Y1184811D01*
X1647090D02*
X1647772Y1181999D01*
X1647772D02*
Y1180124D01*
X1647772D02*
X1647090Y1177312D01*
X1647090D02*
X1645727Y1175437D01*
X1644363Y1174499*
X1644363D02*
X1642318D01*
X1640954Y1175437*
X1640954D02*
X1639590Y1177312D01*
X1633454Y1187624D02*
X1630727Y1174499D01*
X1628000Y1187624D02*
X1630727Y1174499D01*
X1628000Y1187624D02*
X1625272Y1174499D01*
X1622545Y1187624D02*
X1625272Y1174499D01*
X1608227Y1187624D02*
Y1174499D01*
Y1184811D02*
X1609591Y1186686D01*
X1609591D02*
X1610954Y1187624D01*
X1610954D02*
X1613000D01*
X1614363Y1186686*
X1614363D02*
X1615727Y1184811D01*
X1615727D02*
X1616409Y1181999D01*
Y1180124*
X1615727Y1177312*
X1614363Y1175437*
X1614363D02*
X1613000Y1174499D01*
X1610954*
X1610954D02*
X1609591Y1175437D01*
X1608227Y1177312*
X1594591Y1187624D02*
X1602091Y1174499D01*
Y1187624D02*
X1594591D01*
X1602091Y1174499D02*
X1594591D01*
X1667498Y1345187D02*
Y1325499D01*
X1657953Y1345187D02*
Y1325499D01*
X1667498Y1335812D02*
X1657953D01*
X1651817Y1345187D02*
X1648407Y1325499D01*
X1644998Y1345187D02*
X1648407Y1325499D01*
X1644998Y1345187D02*
X1641589Y1325499D01*
X1638180Y1345187D02*
X1641589Y1325499D01*
X1632044Y1345187D02*
Y1325499D01*
Y1345187D02*
X1625908D01*
X1623862Y1344249*
X1623862D02*
X1623180Y1343312D01*
X1623180D02*
X1622498Y1341437D01*
X1622498D02*
Y1338624D01*
X1622498D02*
X1623180Y1336749D01*
X1623180D02*
X1623862Y1335812D01*
X1623862D02*
X1625908Y1334874D01*
X1625908D02*
X1632044D01*
X1611589Y1345187D02*
Y1325499D01*
X1616362Y1345187D02*
X1606817D01*
X1596589D02*
X1598635Y1344249D01*
X1598635D02*
X1599999Y1341437D01*
X1600680Y1336749*
X1600680D02*
Y1333937D01*
X1600680D02*
X1599999Y1329249D01*
X1599999D02*
X1598635Y1326437D01*
X1596589Y1325499*
X1596589D02*
X1595226D01*
X1595226D02*
X1593180Y1326437D01*
X1593180D02*
X1591817Y1329249D01*
X1591817D02*
X1591135Y1333937D01*
Y1336749*
X1591135D02*
X1591817Y1341437D01*
X1593180Y1344249*
X1593180D02*
X1595226Y1345187D01*
X1596589*
X1584999Y1341437D02*
X1583635Y1342374D01*
X1583635D02*
X1581590Y1345187D01*
Y1325499*
X1575453Y1341437D02*
X1574090Y1342374D01*
X1574090D02*
X1572044Y1345187D01*
X1572044D02*
Y1325499D01*
X1565908Y1345187D02*
X1556362Y1325499D01*
Y1345187D02*
X1565908Y1325499D01*
X1542044Y1342374D02*
X1542726Y1344249D01*
X1542726D02*
X1544771Y1345187D01*
X1544771D02*
X1546135D01*
X1546135D02*
X1548181Y1344249D01*
X1548181D02*
X1549544Y1341437D01*
X1549544D02*
X1550226Y1336749D01*
X1550226D02*
Y1332062D01*
X1549544Y1328312*
X1549544D02*
X1548181Y1326437D01*
X1546135Y1325499*
X1546135D02*
X1545453D01*
X1545453D02*
X1543408Y1326437D01*
X1542044Y1328312*
X1542044D02*
X1541362Y1331124D01*
X1541362D02*
Y1332062D01*
X1541362D02*
X1542044Y1334874D01*
X1542044D02*
X1543408Y1336749D01*
X1543408D02*
X1545453Y1337687D01*
X1545453D02*
X1546135D01*
X1546135D02*
X1548181Y1336749D01*
X1548181D02*
X1549544Y1334874D01*
X1549544D02*
X1550226Y1332062D01*
X1717498Y1390188D02*
Y1370501D01*
Y1390188D02*
X1707953Y1370501D01*
Y1390188D02*
Y1370501D01*
X1701816Y1390188D02*
Y1370501D01*
Y1390188D02*
X1692953D01*
X1701816Y1380813D02*
X1696362D01*
X1701816Y1370501D02*
X1692953D01*
X1686816Y1390188D02*
Y1370501D01*
X1677271Y1390188D02*
X1686816Y1377063D01*
X1683407Y1381751D02*
X1677271Y1370501D01*
X1666362Y1390188D02*
Y1370501D01*
X1671135Y1390188D02*
X1661589D01*
X1649998D02*
X1655453Y1370501D01*
X1649998Y1390188D02*
X1644544Y1370501D01*
X1653408Y1377063D02*
X1646589D01*
X1638408Y1390188D02*
Y1370501D01*
Y1390188D02*
X1632271D01*
X1632271D02*
X1630226Y1389251D01*
X1629544Y1388313*
X1629544D02*
X1628862Y1386438D01*
X1628862D02*
Y1384563D01*
X1628862D02*
X1629544Y1382688D01*
X1629544D02*
X1630226Y1381751D01*
X1632271Y1380813*
X1632271D02*
X1638408D01*
X1633635D02*
X1628862Y1370501D01*
X1607044Y1390188D02*
Y1370501D01*
Y1390188D02*
X1600908D01*
X1600908D02*
X1598862Y1389251D01*
X1598862D02*
X1598180Y1388313D01*
X1598180D02*
X1597499Y1386438D01*
X1597499D02*
Y1383626D01*
X1598180Y1381751*
X1598180D02*
X1598862Y1380813D01*
X1598862D02*
X1600908Y1379876D01*
X1607044*
X1581135Y1385501D02*
X1581817Y1387376D01*
X1583180Y1389251*
X1583180D02*
X1584544Y1390188D01*
X1584544D02*
X1587271D01*
X1587271D02*
X1588635Y1389251D01*
X1589999Y1387376*
X1590680Y1385501*
X1590680D02*
X1591362Y1382688D01*
X1591362D02*
Y1378001D01*
X1591362D02*
X1590680Y1375188D01*
X1590680D02*
X1589999Y1373313D01*
X1589999D02*
X1588635Y1371438D01*
X1588635D02*
X1587271Y1370501D01*
X1587271D02*
X1584544D01*
X1584544D02*
X1583180Y1371438D01*
X1583180D02*
X1581817Y1373313D01*
X1581817D02*
X1581135Y1375188D01*
X1574999Y1390188D02*
Y1370501D01*
Y1390188D02*
X1568862D01*
X1568862D02*
X1566817Y1389251D01*
X1566135Y1388313*
X1566135D02*
X1565453Y1386438D01*
X1565453D02*
Y1384563D01*
X1565453D02*
X1566135Y1382688D01*
X1566135D02*
X1566817Y1381751D01*
X1568862Y1380813*
X1574999D02*
X1568862D01*
X1568862D02*
X1566817Y1379876D01*
X1566135Y1378938*
X1566135D02*
X1565453Y1377063D01*
X1565453D02*
Y1374251D01*
X1565453D02*
X1566135Y1372376D01*
X1566135D02*
X1566817Y1371438D01*
X1566817D02*
X1568862Y1370501D01*
X1568862D02*
X1574999D01*
X1635499Y1300188D02*
Y1280501D01*
X1625954Y1300188D02*
Y1280501D01*
X1635499Y1290813D02*
X1625954D01*
X1619818Y1300188D02*
X1616409Y1280501D01*
X1612999Y1300188D02*
X1616409Y1280501D01*
X1612999Y1300188D02*
X1609590Y1280501D01*
X1606181Y1300188D02*
X1609590Y1280501D01*
X1600045Y1300188D02*
Y1280501D01*
Y1300188D02*
X1593909D01*
X1593909D02*
X1591863Y1299251D01*
X1591863D02*
X1591181Y1298313D01*
X1591181D02*
X1590500Y1296438D01*
X1590500D02*
Y1293626D01*
X1591181Y1291751*
X1591181D02*
X1591863Y1290813D01*
X1591863D02*
X1593909Y1289876D01*
X1600045*
X1579590Y1300188D02*
Y1280501D01*
X1584363Y1300188D02*
X1574818D01*
X1564591D02*
X1566636Y1299251D01*
X1568000Y1296438*
X1568000D02*
X1568681Y1291751D01*
X1568681D02*
Y1288938D01*
X1568681D02*
X1568000Y1284251D01*
X1566636Y1281438*
X1566636D02*
X1564591Y1280501D01*
X1563227*
X1561181Y1281438*
X1561181D02*
X1559818Y1284251D01*
X1559136Y1288938*
X1559136D02*
Y1291751D01*
X1559818Y1296438*
X1559818D02*
X1561181Y1299251D01*
X1561181D02*
X1563227Y1300188D01*
X1563227D02*
X1564591D01*
X1553000Y1296438D02*
X1551636Y1297376D01*
X1549591Y1300188*
X1549591D02*
Y1280501D01*
X1543454Y1296438D02*
X1542091Y1297376D01*
X1540045Y1300188*
X1540045D02*
Y1280501D01*
X1533909Y1300188D02*
X1524363Y1280501D01*
Y1300188D02*
X1533909Y1280501D01*
X1510045Y1297376D02*
X1510727Y1299251D01*
X1510727D02*
X1512773Y1300188D01*
X1512773D02*
X1514136D01*
X1514136D02*
X1516182Y1299251D01*
X1517545Y1296438*
X1517545D02*
X1518227Y1291751D01*
X1518227D02*
Y1287063D01*
X1518227D02*
X1517545Y1283313D01*
X1517545D02*
X1516182Y1281438D01*
X1516182D02*
X1514136Y1280501D01*
X1514136D02*
X1513454D01*
X1513454D02*
X1511409Y1281438D01*
X1511409D02*
X1510045Y1283313D01*
X1510045D02*
X1509363Y1286126D01*
X1509363D02*
Y1287063D01*
X1509363D02*
X1510045Y1289876D01*
X1510045D02*
X1511409Y1291751D01*
X1513454Y1292688*
X1513454D02*
X1514136D01*
X1514136D02*
X1516182Y1291751D01*
X1517545Y1289876*
X1517545D02*
X1518227Y1287063D01*
X1503227Y1300188D02*
Y1280501D01*
Y1300188D02*
X1497091D01*
X1497091D02*
X1495045Y1299251D01*
X1495045D02*
X1494364Y1298313D01*
X1494364D02*
X1493682Y1296438D01*
X1493682D02*
Y1294563D01*
X1493682D02*
X1494364Y1292688D01*
X1494364D02*
X1495045Y1291751D01*
X1495045D02*
X1497091Y1290813D01*
X1497091D02*
X1503227D01*
X1498454D02*
X1493682Y1280501D01*
X1480727Y1300188D02*
X1487545Y1287063D01*
X1487545D02*
X1477318D01*
X1480727Y1300188D02*
Y1280501D01*
G54D137*
X1795499Y1215625D02*
Y1202500D01*
Y1215625D02*
X1792317D01*
X1792317D02*
X1790954Y1215000D01*
X1790045Y1213750*
X1789590Y1212500*
X1789135Y1210625*
X1789135D02*
Y1207500D01*
X1789135D02*
X1789590Y1205625D01*
X1790045Y1204375*
X1790954Y1203125*
X1792317Y1202500*
X1792317D02*
X1795499D01*
X1785045Y1215625D02*
X1782772Y1202500D01*
X1780499Y1215625D02*
X1782772Y1202500D01*
X1780499Y1215625D02*
X1778226Y1202500D01*
X1775954Y1215625D02*
X1778226Y1202500D01*
X1771863Y1215625D02*
Y1202500D01*
Y1215625D02*
X1765499Y1202500D01*
Y1215625D02*
Y1202500D01*
X1760954Y1211250D02*
X1761408Y1210625D01*
X1761408D02*
X1760954Y1210000D01*
X1760499Y1210625*
X1760499D02*
X1760954Y1211250D01*
Y1203750D02*
X1761408Y1203125D01*
X1761408D02*
X1760954Y1202500D01*
X1760499Y1203125*
X1760499D02*
X1760954Y1203750D01*
X1795499Y1155625D02*
Y1142500D01*
Y1155625D02*
X1792317D01*
X1792317D02*
X1790954Y1155000D01*
X1790954D02*
X1790045Y1153750D01*
X1790045D02*
X1789590Y1152500D01*
X1789590D02*
X1789135Y1150625D01*
X1789135D02*
Y1147500D01*
X1789135D02*
X1789590Y1145625D01*
X1789590D02*
X1790045Y1144375D01*
X1790045D02*
X1790954Y1143125D01*
X1790954D02*
X1792317Y1142500D01*
X1792317D02*
X1795499D01*
X1781408Y1155625D02*
X1785045Y1142500D01*
X1781408Y1155625D02*
X1777772Y1142500D01*
X1783681Y1146875D02*
X1779135D01*
X1770499Y1155625D02*
Y1142500D01*
X1773681Y1155625D02*
X1767317D01*
X1763226D02*
Y1142500D01*
Y1155625D02*
X1757317D01*
X1763226Y1149375D02*
X1759590D01*
X1763226Y1142500D02*
X1757317D01*
X1752772Y1151250D02*
X1753226Y1150625D01*
X1753226D02*
X1752772Y1150000D01*
X1752772D02*
X1752317Y1150625D01*
X1752317D02*
X1752772Y1151250D01*
Y1143750D02*
X1753226Y1143125D01*
X1753226D02*
X1752772Y1142500D01*
X1752772D02*
X1752317Y1143125D01*
X1752317D02*
X1752772Y1143750D01*
X1548681Y1212500D02*
X1549136Y1213750D01*
X1550045Y1215000*
X1550954Y1215625*
X1550954D02*
X1552772D01*
X1552772D02*
X1553681Y1215000D01*
X1553681D02*
X1554590Y1213750D01*
X1554590D02*
X1555045Y1212500D01*
X1555500Y1210625*
Y1207500*
X1555045Y1205625*
X1554590Y1204375*
X1554590D02*
X1553681Y1203125D01*
X1553681D02*
X1552772Y1202500D01*
X1552772D02*
X1550954D01*
X1550954D02*
X1550045Y1203125D01*
X1549136Y1204375*
X1548681Y1205625*
X1544590Y1215625D02*
Y1202500D01*
X1538227Y1215625D02*
Y1202500D01*
X1544590Y1209375D02*
X1538227D01*
X1534136Y1215625D02*
Y1202500D01*
X1527772Y1215625D02*
X1534136Y1206875D01*
X1531863Y1210000D02*
X1527772Y1202500D01*
X1523227Y1211250D02*
X1523681Y1210625D01*
X1523681D02*
X1523227Y1210000D01*
X1522772Y1210625*
X1522772D02*
X1523227Y1211250D01*
Y1203750D02*
X1523681Y1203125D01*
X1523681D02*
X1523227Y1202500D01*
X1522772Y1203125*
X1522772D02*
X1523227Y1203750D01*
X1555500Y1155625D02*
Y1142500D01*
Y1155625D02*
X1552318D01*
X1552318D02*
X1550954Y1155000D01*
X1550954D02*
X1550045Y1153750D01*
X1550045D02*
X1549590Y1152500D01*
X1549590D02*
X1549136Y1150625D01*
X1549136D02*
Y1147500D01*
X1549136D02*
X1549590Y1145625D01*
X1549590D02*
X1550045Y1144375D01*
X1550045D02*
X1550954Y1143125D01*
X1550954D02*
X1552318Y1142500D01*
X1552318D02*
X1555500D01*
X1541409Y1155625D02*
X1545045Y1142500D01*
X1541409Y1155625D02*
X1537772Y1142500D01*
X1543681Y1146875D02*
X1539136D01*
X1530500Y1155625D02*
Y1142500D01*
X1533681Y1155625D02*
X1527318D01*
X1523227D02*
Y1142500D01*
Y1155625D02*
X1517318D01*
X1523227Y1149375D02*
X1519591D01*
X1523227Y1142500D02*
X1517318D01*
X1512772Y1151250D02*
X1513227Y1150625D01*
X1513227D02*
X1512772Y1150000D01*
X1512772D02*
X1512318Y1150625D01*
X1512318D02*
X1512772Y1151250D01*
Y1143750D02*
X1513227Y1143125D01*
X1513227D02*
X1512772Y1142500D01*
X1512772D02*
X1512318Y1143125D01*
X1512318D02*
X1512772Y1143750D01*
X1315500Y1155625D02*
Y1142500D01*
Y1155625D02*
X1312318D01*
X1312318D02*
X1310955Y1155000D01*
X1310955D02*
X1310045Y1153750D01*
X1310045D02*
X1309591Y1152500D01*
X1309591D02*
X1309136Y1150625D01*
X1309136D02*
Y1147500D01*
X1309136D02*
X1309591Y1145625D01*
X1309591D02*
X1310045Y1144375D01*
X1310045D02*
X1310955Y1143125D01*
X1310955D02*
X1312318Y1142500D01*
X1312318D02*
X1315500D01*
X1301409Y1155625D02*
X1305045Y1142500D01*
X1301409Y1155625D02*
X1297773Y1142500D01*
X1303682Y1146875D02*
X1299136D01*
X1290500Y1155625D02*
Y1142500D01*
X1293682Y1155625D02*
X1287318D01*
X1283227D02*
Y1142500D01*
Y1155625D02*
X1277318D01*
X1283227Y1149375D02*
X1279591D01*
X1283227Y1142500D02*
X1277318D01*
X1272773Y1151250D02*
X1273227Y1150625D01*
X1273227D02*
X1272773Y1150000D01*
X1272773D02*
X1272318Y1150625D01*
X1272318D02*
X1272773Y1151250D01*
Y1143750D02*
X1273227Y1143125D01*
X1273227D02*
X1272773Y1142500D01*
X1272773D02*
X1272318Y1143125D01*
X1272318D02*
X1272773Y1143750D01*
X1311864Y1215625D02*
X1315500Y1202500D01*
X1311864Y1215625D02*
X1308227Y1202500D01*
X1314136Y1206875D02*
X1309591D01*
X1304136Y1215625D02*
Y1202500D01*
Y1215625D02*
X1300046D01*
X1298682Y1215000*
X1298227Y1214375*
X1298227D02*
X1297773Y1213125D01*
Y1211250*
X1298227Y1210000*
X1298227D02*
X1298682Y1209375D01*
X1300046Y1208750*
X1304136*
X1293682Y1215625D02*
Y1202500D01*
Y1215625D02*
X1289591D01*
X1288227Y1215000*
X1288227D02*
X1287773Y1214375D01*
X1287318Y1213125*
X1287318D02*
Y1211250D01*
X1287318D02*
X1287773Y1210000D01*
X1288227Y1209375*
X1288227D02*
X1289591Y1208750D01*
X1293682*
X1283227Y1215625D02*
Y1202500D01*
Y1215625D02*
X1279136D01*
X1279136D02*
X1277773Y1215000D01*
X1277318Y1214375*
X1277318D02*
X1276864Y1213125D01*
Y1211875*
X1277318Y1210625*
X1277318D02*
X1277773Y1210000D01*
X1279136Y1209375*
X1279136D02*
X1283227D01*
X1280046D02*
X1276864Y1202500D01*
X1272318Y1211250D02*
X1272773Y1210625D01*
X1272318Y1210000*
X1272318D02*
X1271864Y1210625D01*
X1272318Y1211250*
Y1203750D02*
X1272773Y1203125D01*
X1272318Y1202500*
X1272318D02*
X1271864Y1203125D01*
X1272318Y1203750*
X805499Y2473000D02*
X865443D01*
X835471Y2443028D02*
Y2502972D01*
X827851Y2480366D02*
X822771Y2485446D01*
X845377Y2473000D02*
G03X845377I-9905J0D01*
G01X855471D02*
G03X855471I-19999J0D01*
G01X825311Y2475286D02*
X818674Y2481923D01*
X817165Y2479586D02*
X828915Y2491336D01*
X825311Y2473000D02*
X817945Y2480366D01*
X816434Y2476315D02*
X832931Y2492812D01*
X822771Y2473000D02*
X817945Y2477826D01*
X815405Y2473000D02*
X835471Y2492812D01*
X817945Y2473000D02*
X815954Y2474991D01*
X820485Y2473000D02*
X817945Y2475286D01*
Y2473000D02*
X835471Y2490272D01*
X820485Y2473000D02*
X835471Y2487986D01*
X822771Y2473000D02*
X825311Y2475286D01*
Y2477826D02*
X820485Y2482906D01*
Y2485446D02*
X825311Y2480366D01*
X820485Y2485446D02*
X822771Y2487986D01*
X822771D02*
X827851Y2482906D01*
X830391D02*
X825311Y2487986D01*
X832931Y2482906D02*
X826157Y2489680D01*
X827851Y2490272D02*
X835471Y2482906D01*
Y2485446D02*
X830391Y2490272D01*
X835471D02*
X832931Y2492812D01*
X835471Y2487986D02*
X832931Y2490272D01*
X835471Y2485446D02*
X832931Y2482906D01*
X835471Y2480366D02*
X837178Y2482073D01*
X845377Y2473000D02*
X835471Y2482906D01*
Y2477826D02*
X837757Y2480366D01*
X842837Y2473000D02*
X835471Y2480366D01*
X840297Y2473000D02*
X835471Y2477826D01*
Y2475286D02*
X840716Y2480531D01*
X830391Y2468174D02*
X840297Y2477826D01*
X837757Y2473000D02*
X835471Y2475286D01*
X837757Y2473000D02*
X842710Y2477953D01*
X840297Y2473000D02*
X842837Y2475286D01*
X838707Y2481956D02*
X844206Y2476457D01*
X842837Y2473000D02*
X844793Y2474956D01*
X835471Y2468174D02*
X830391Y2473000D01*
X835471Y2470714D02*
X832931Y2473000D01*
X835471Y2465634D02*
X827851Y2473000D01*
X835471Y2463094D02*
X825311Y2473000D01*
X826886Y2469139D02*
X831638Y2464387D01*
X826172Y2471575D02*
X827851Y2473000D01*
Y2470714D02*
X830391Y2473000D01*
X832931D02*
X827851Y2468174D01*
X835471Y2470714D02*
X830391Y2465634D01*
X832931D02*
X835471Y2468174D01*
X833792Y2463955D02*
X835471Y2465634D01*
Y2460554D02*
X837757Y2463094D01*
X842837Y2455728D02*
X835471Y2463094D01*
Y2453188D02*
X855283Y2473000D01*
X838659Y2454090D02*
X855016Y2470447D01*
X835471Y2455728D02*
X837478Y2453721D01*
X835471Y2458014D02*
X837757Y2455728D01*
X835471D02*
X852997Y2473000D01*
X850457D02*
X835471Y2458014D01*
X841138Y2454887D02*
X835471Y2460554D01*
X837757Y2463094D02*
X844549Y2456302D01*
X846319Y2457072D02*
X840297Y2463094D01*
X842837Y2455728D02*
X852997Y2465634D01*
X847917Y2458014D02*
X842837Y2463094D01*
X847917Y2458014D02*
X850457Y2460554D01*
X842837Y2465634D02*
X848610Y2459861D01*
X850457Y2460554D02*
X845377Y2465634D01*
X851150Y2462401D02*
X845377Y2468174D01*
X852420Y2463671D02*
X845377Y2470714D01*
Y2473000D02*
X852997Y2465634D01*
X847917Y2473000D02*
X853457Y2467460D01*
X850457Y2473000D02*
X852997Y2470714D01*
X854874Y2471123D02*
X852997Y2473000D01*
X847917D02*
X845377Y2470714D01*
X800999Y1593000D02*
X860943D01*
X830971Y1563028D02*
Y1622972D01*
X823351Y1600366D02*
X818271Y1605446D01*
X840877Y1593000D02*
G03X840877I-9905J0D01*
G01X850971D02*
G03X850971I-19999J0D01*
G01X820811Y1595286D02*
X814174Y1601923D01*
X812665Y1599586D02*
X824415Y1611336D01*
X820811Y1593000D02*
X813445Y1600366D01*
X811934Y1596315D02*
X828431Y1612812D01*
X818271Y1593000D02*
X813445Y1597826D01*
X810905Y1593000D02*
X830971Y1612812D01*
X813445Y1593000D02*
X811454Y1594991D01*
X815985Y1593000D02*
X813445Y1595286D01*
Y1593000D02*
X830971Y1610272D01*
X815985Y1593000D02*
X830971Y1607986D01*
X818271Y1593000D02*
X820811Y1595286D01*
Y1597826D02*
X815985Y1602906D01*
Y1605446D02*
X820811Y1600366D01*
X815985Y1605446D02*
X818271Y1607986D01*
X818271D02*
X823351Y1602906D01*
X825891D02*
X820811Y1607986D01*
X828431Y1602906D02*
X821657Y1609680D01*
X823351Y1610272D02*
X830971Y1602906D01*
Y1605446D02*
X825891Y1610272D01*
X830971D02*
X828431Y1612812D01*
X830971Y1607986D02*
X828431Y1610272D01*
X830971Y1605446D02*
X828431Y1602906D01*
X830971Y1600366D02*
X832678Y1602073D01*
X840877Y1593000D02*
X830971Y1602906D01*
Y1597826D02*
X833257Y1600366D01*
X838337Y1593000D02*
X830971Y1600366D01*
X835797Y1593000D02*
X830971Y1597826D01*
Y1595286D02*
X836216Y1600531D01*
X825891Y1588174D02*
X835797Y1597826D01*
X833257Y1593000D02*
X830971Y1595286D01*
X833257Y1593000D02*
X838210Y1597953D01*
X835797Y1593000D02*
X838337Y1595286D01*
X834207Y1601956D02*
X839706Y1596457D01*
X838337Y1593000D02*
X840293Y1594956D01*
X830971Y1588174D02*
X825891Y1593000D01*
X830971Y1590714D02*
X828431Y1593000D01*
X830971Y1585634D02*
X823351Y1593000D01*
X830971Y1583094D02*
X820811Y1593000D01*
X822386Y1589139D02*
X827138Y1584387D01*
X821672Y1591575D02*
X823351Y1593000D01*
Y1590714D02*
X825891Y1593000D01*
X828431D02*
X823351Y1588174D01*
X830971Y1590714D02*
X825891Y1585634D01*
X828431D02*
X830971Y1588174D01*
X829292Y1583955D02*
X830971Y1585634D01*
Y1580554D02*
X833257Y1583094D01*
X838337Y1575728D02*
X830971Y1583094D01*
Y1573188D02*
X850783Y1593000D01*
X834159Y1574090D02*
X850516Y1590447D01*
X830971Y1575728D02*
X832978Y1573721D01*
X830971Y1578014D02*
X833257Y1575728D01*
X830971D02*
X848497Y1593000D01*
X845957D02*
X830971Y1578014D01*
X836638Y1574887D02*
X830971Y1580554D01*
X833257Y1583094D02*
X840049Y1576302D01*
X841819Y1577072D02*
X835797Y1583094D01*
X838337Y1575728D02*
X848497Y1585634D01*
X843417Y1578014D02*
X838337Y1583094D01*
X843417Y1578014D02*
X845957Y1580554D01*
X838337Y1585634D02*
X844110Y1579861D01*
X845957Y1580554D02*
X840877Y1585634D01*
X846650Y1582401D02*
X840877Y1588174D01*
X847920Y1583671D02*
X840877Y1590714D01*
Y1593000D02*
X848497Y1585634D01*
X843417Y1593000D02*
X848957Y1587460D01*
X845957Y1593000D02*
X848497Y1590714D01*
X850374Y1591123D02*
X848497Y1593000D01*
X843417D02*
X840877Y1590714D01*
X1980999Y1593000D02*
X2040943D01*
X2010971Y1563028D02*
Y1622972D01*
X2003351Y1600366D02*
X1998271Y1605446D01*
X2020877Y1593000D02*
G03X2020877I-9905J0D01*
G01X2030971D02*
G03X2030971I-19999J0D01*
G01X2000811Y1595286D02*
X1994174Y1601923D01*
X1992665Y1599586D02*
X2004415Y1611336D01*
X2000811Y1593000D02*
X1993445Y1600366D01*
X1991934Y1596315D02*
X2008431Y1612812D01*
X1998271Y1593000D02*
X1993445Y1597826D01*
X1990905Y1593000D02*
X2010971Y1612812D01*
X1993445Y1593000D02*
X1991454Y1594991D01*
X1995985Y1593000D02*
X1993445Y1595286D01*
Y1593000D02*
X2010971Y1610272D01*
X1995985Y1593000D02*
X2010971Y1607986D01*
X1998271Y1593000D02*
X2000811Y1595286D01*
Y1597826D02*
X1995985Y1602906D01*
Y1605446D02*
X2000811Y1600366D01*
X1995985Y1605446D02*
X1998271Y1607986D01*
X1998271D02*
X2003351Y1602906D01*
X2005891D02*
X2000811Y1607986D01*
X2008431Y1602906D02*
X2001657Y1609680D01*
X2003351Y1610272D02*
X2010971Y1602906D01*
Y1605446D02*
X2005891Y1610272D01*
X2010971D02*
X2008431Y1612812D01*
X2010971Y1607986D02*
X2008431Y1610272D01*
X2010971Y1605446D02*
X2008431Y1602906D01*
X2010971Y1600366D02*
X2012678Y1602073D01*
X2020877Y1593000D02*
X2010971Y1602906D01*
Y1597826D02*
X2013257Y1600366D01*
X2018337Y1593000D02*
X2010971Y1600366D01*
X2015797Y1593000D02*
X2010971Y1597826D01*
Y1595286D02*
X2016216Y1600531D01*
X2005891Y1588174D02*
X2015797Y1597826D01*
X2013257Y1593000D02*
X2010971Y1595286D01*
X2013257Y1593000D02*
X2018210Y1597953D01*
X2015797Y1593000D02*
X2018337Y1595286D01*
X2014207Y1601956D02*
X2019706Y1596457D01*
X2018337Y1593000D02*
X2020293Y1594956D01*
X2010971Y1588174D02*
X2005891Y1593000D01*
X2010971Y1590714D02*
X2008431Y1593000D01*
X2010971Y1585634D02*
X2003351Y1593000D01*
X2010971Y1583094D02*
X2000811Y1593000D01*
X2002386Y1589139D02*
X2007138Y1584387D01*
X2001672Y1591575D02*
X2003351Y1593000D01*
Y1590714D02*
X2005891Y1593000D01*
X2008431D02*
X2003351Y1588174D01*
X2010971Y1590714D02*
X2005891Y1585634D01*
X2008431D02*
X2010971Y1588174D01*
X2009292Y1583955D02*
X2010971Y1585634D01*
Y1580554D02*
X2013257Y1583094D01*
X2018337Y1575728D02*
X2010971Y1583094D01*
Y1573188D02*
X2030783Y1593000D01*
X2014159Y1574090D02*
X2030516Y1590447D01*
X2010971Y1575728D02*
X2012978Y1573721D01*
X2010971Y1578014D02*
X2013257Y1575728D01*
X2010971D02*
X2028497Y1593000D01*
X2025957D02*
X2010971Y1578014D01*
X2016638Y1574887D02*
X2010971Y1580554D01*
X2013257Y1583094D02*
X2020049Y1576302D01*
X2021819Y1577072D02*
X2015797Y1583094D01*
X2018337Y1575728D02*
X2028497Y1585634D01*
X2023417Y1578014D02*
X2018337Y1583094D01*
X2023417Y1578014D02*
X2025957Y1580554D01*
X2018337Y1585634D02*
X2024110Y1579861D01*
X2025957Y1580554D02*
X2020877Y1585634D01*
X2026650Y1582401D02*
X2020877Y1588174D01*
X2027920Y1583671D02*
X2020877Y1590714D01*
Y1593000D02*
X2028497Y1585634D01*
X2023417Y1593000D02*
X2028957Y1587460D01*
X2025957Y1593000D02*
X2028497Y1590714D01*
X2030374Y1591123D02*
X2028497Y1593000D01*
X2023417D02*
X2020877Y1590714D01*
G54D138*
X1219498Y1262062D02*
X1217225Y1263625D01*
X1217225D02*
X1213816Y1268312D01*
X1213816D02*
Y1235500D01*
X1280999Y1339313D02*
Y1306500D01*
Y1339313D02*
X1265090Y1306500D01*
Y1339313D02*
Y1306500D01*
X1254863Y1339313D02*
Y1306500D01*
Y1339313D02*
X1240090D01*
X1254863Y1323688D02*
X1245772D01*
X1254863Y1306500D02*
X1240090D01*
X1229863Y1339313D02*
Y1306500D01*
X1213954Y1339313D02*
X1229863Y1317438D01*
X1224181Y1325250D02*
X1213954Y1306500D01*
X1195772Y1339313D02*
Y1306500D01*
X1203726Y1339313D02*
X1187817D01*
X1168499D02*
X1177590Y1306500D01*
X1168499Y1339313D02*
X1159408Y1306500D01*
X1174181Y1317438D02*
X1162817D01*
X1149181Y1339313D02*
Y1306500D01*
Y1339313D02*
X1138954D01*
X1135545Y1337750*
X1135545D02*
X1134408Y1336188D01*
X1134408D02*
X1133272Y1333063D01*
X1133272D02*
Y1329938D01*
X1133272D02*
X1134408Y1326813D01*
X1134408D02*
X1135545Y1325250D01*
X1135545D02*
X1138954Y1323688D01*
X1149181*
X1141227D02*
X1133272Y1306500D01*
G54D337*
X906111Y1651406D02*
X903838Y1647031D01*
X903838D02*
X907248D01*
X906111Y1651406D02*
Y1644843D01*
G54D421*
X961749Y2274000D03*
Y2244000D03*
G74*
X0Y0D02*
M02*
